<svg width="512" height="512" viewBox="0 0 512 512" fill="none" xmlns="http://www.w3.org/2000/svg">
<g clip-path="url(#clip0)">
<path d="M505 366.133V560.132C505 562.819 502.753 565 499.985 565H458.311C455.543 565 453.296 562.819 453.296 560.132V386.189H337V336H473.957C491.098 336.001 505 349.495 505 366.133V366.133Z" fill="#A49CA7"/>
<path d="M337.109 335.769H433.719V387.287H337.109V335.769Z" fill="#766D78"/>
<path d="M78.271 422.992H371.215V482.637H78.271V422.992Z" fill="#766D78"/>
<path d="M78.271 422.994H113.249V482.637H78.271V422.994Z" fill="#655E67"/>
<path d="M131.791 93H11.997C9.237 93 7 95.237 7 97.997V140.946C7 143.706 9.237 145.943 11.997 145.943H110.698V264.393H163.641V124.849C163.64 107.26 149.381 93 131.791 93Z" fill="#A49CA7"/>
<path d="M173.329 236.667H102.639C98.0869 236.667 94.3979 240.357 94.3979 244.908V274.365H181.571V244.908C181.57 240.356 177.881 236.667 173.329 236.667V236.667Z" fill="#766D78"/>
<path d="M170.762 176.028H103.577C98.058 176.028 93.583 180.502 93.583 186.022V201.638C93.583 207.157 98.057 211.632 103.577 211.632H170.762C176.281 211.632 180.756 207.158 180.756 201.638V186.022C180.755 180.502 176.281 176.028 170.762 176.028Z" fill="#766D78"/>
<path d="M46.975 145.947H11.997C9.239 145.947 7 143.708 7 140.95V97.997C7 95.239 9.239 93 11.997 93H46.975C44.217 93 41.978 95.239 41.978 97.997V140.95C41.978 143.708 44.217 145.947 46.975 145.947Z" fill="#8E8391"/>
<path d="M137.614 236.67C133.067 236.67 129.379 240.358 129.379 244.905V274.367H94.401V244.905C94.401 240.358 98.089 236.67 102.636 236.67H137.614Z" fill="#655E67"/>
<path d="M138.558 211.636H103.58C98.0531 211.636 93.5861 207.159 93.5861 201.642V186.022C93.5861 180.505 98.0531 176.028 103.58 176.028H138.558C133.031 176.028 128.564 180.505 128.564 186.022V201.642C128.564 207.159 133.031 211.636 138.558 211.636Z" fill="#655E67"/>
<path d="M311.149 168.38C323.2 168.38 332.969 158.611 332.969 146.56C332.969 134.509 323.2 124.74 311.149 124.74C299.098 124.74 289.329 134.509 289.329 146.56C289.329 158.611 299.098 168.38 311.149 168.38Z" fill="#544F56"/>
<path d="M312.791 230.87H249.376C242.283 230.87 236.161 235.841 234.705 242.783V280.161H327.782V245.861C327.782 237.582 321.07 230.87 312.791 230.87V230.87Z" fill="#766D78"/>
<path d="M284.352 230.874C277.256 230.874 271.14 235.841 269.681 242.787V280.164H234.703V242.787C236.162 235.841 242.278 230.874 249.374 230.874H284.352Z" fill="#655E67"/>
<path d="M322.518 165.185C319.21 167.214 315.312 168.383 311.145 168.383C299.102 168.383 289.329 158.609 289.329 146.557C289.329 134.515 299.103 124.741 311.145 124.741C315.312 124.741 319.21 125.91 322.518 127.939C316.252 131.767 312.065 138.672 312.065 146.557C312.065 154.442 316.252 161.357 322.518 165.185V165.185Z" fill="#444145"/>
<path d="M72.7191 422.992L15.689 410.029C13.414 409.512 11.8 407.489 11.8 405.156V305.893C11.8 303.56 13.414 301.538 15.689 301.02L72.7191 288.057V422.992Z" fill="#A49CA7"/>
<path d="M94.3979 271.201H349.536V439.848H94.3979V271.201Z" fill="#49C1E4"/>
<path d="M94.3981 439.848H64.3511C56.9991 439.848 51.0391 433.888 51.0391 426.536V284.513C51.0391 277.161 56.9991 271.201 64.3511 271.201H94.3971L94.3981 439.848Z" fill="#2FA8CC"/>
<path d="M349.536 439.848H379.582C386.934 439.848 392.894 433.888 392.894 426.536V284.513C392.894 277.161 386.934 271.201 379.582 271.201H349.536V439.848Z" fill="#2FA8CC"/>
<path d="M206.027 400.559H136.295C133.535 400.559 131.298 398.322 131.298 395.562V315.486C131.298 312.726 133.535 310.489 136.295 310.489H206.027C208.787 310.489 211.024 312.726 211.024 315.486V395.562C211.024 398.322 208.787 400.559 206.027 400.559Z" fill="#766D78"/>
<path d="M394.489 580.186H12.492C9.73199 580.186 7.495 577.949 7.495 575.189V487.634C7.495 484.874 9.73199 482.637 12.492 482.637H394.489C397.249 482.637 399.486 484.874 399.486 487.634V575.189C399.486 577.949 397.249 580.186 394.489 580.186Z" fill="#49C1E4"/>
<path d="M171.273 400.558H136.295C133.537 400.558 131.298 398.319 131.298 395.561V315.491C131.298 312.723 133.537 310.494 136.295 310.494H171.273C168.515 310.494 166.276 312.723 166.276 315.491V395.561C166.276 398.319 168.515 400.558 171.273 400.558V400.558Z" fill="#655E67"/>
<path d="M47.47 580.186H12.492C9.73399 580.186 7.495 577.947 7.495 575.189V487.634C7.495 484.876 9.73399 482.637 12.492 482.637H47.47C44.712 482.637 42.473 484.876 42.473 487.634V575.189C42.473 577.947 44.712 580.186 47.47 580.186Z" fill="#2FA8CC"/>
<path d="M473.574 328.273H400.39V284.512C400.39 273.039 391.056 263.705 379.583 263.705C369.697 263.705 345.288 263.705 335.281 263.705V245.864C335.281 233.465 325.194 223.378 312.795 223.378H295.2L309.924 175.843C326.683 176.535 340.463 163.093 340.463 146.559C340.463 130.395 327.312 117.244 311.148 117.244C281.88 117.244 270.693 155.754 295.607 171.398L279.506 223.377H249.373C238.797 223.377 229.542 230.891 227.367 241.243C227.261 241.75 227.207 242.267 227.207 242.785V263.704H189.061V244.903C189.061 236.23 182.004 229.173 173.331 229.173H171.952L171.948 219.601C181.417 219.398 189.061 211.648 189.061 202.131V186.515C189.061 176.998 181.417 169.248 171.948 169.045V132.236C171.948 110.541 154.298 92.89 132.602 92.89H80.925C76.785 92.89 73.43 96.246 73.43 100.385C73.43 104.524 76.786 107.88 80.925 107.88H132.603C146.032 107.88 156.958 118.806 156.958 132.235V169.027H119.001V153.333C119.001 149.193 115.645 145.838 111.506 145.838H15.306V107.881H50.944C55.084 107.881 58.439 104.525 58.439 100.386C58.439 96.247 55.084 92.891 50.944 92.891H7.811C3.671 92.891 0.316002 96.247 0.316002 100.386V153.333C0.316002 157.473 3.672 160.828 7.811 160.828H104.011V169.047C94.543 169.25 86.899 177.001 86.899 186.517V202.133C86.899 211.649 94.543 219.4 104.011 219.603L104.015 229.175H102.636C93.963 229.175 86.906 236.232 86.906 244.905V263.706H64.351C52.878 263.706 43.544 273.04 43.544 284.513V287.002L10.142 294.591C6.729 295.366 4.307 298.4 4.307 301.9V409.143C4.307 412.642 6.728 415.676 10.14 416.451L43.544 424.049V426.536C43.544 438.009 52.878 447.343 64.351 447.343H70.775V475.142H55.648C51.508 475.142 48.153 478.498 48.153 482.637C48.153 486.777 51.509 490.132 55.648 490.132H389.497C390.875 490.132 391.995 491.253 391.995 492.63V518.15C376.159 515.32 359.577 518.253 345.288 526.961C328.534 537.172 307.718 537.173 290.964 526.961C269.397 513.817 242.603 513.816 221.036 526.961C204.282 537.172 183.466 537.173 166.712 526.961C145.145 513.817 118.351 513.816 96.784 526.961C80.03 537.173 59.214 537.173 42.46 526.961L14.991 510.219V490.132H25.667C29.807 490.132 33.162 486.776 33.162 482.637C33.162 478.498 29.806 475.142 25.667 475.142H7.495C3.355 475.142 0 478.498 0 482.637V580.186C0 584.325 3.356 587.681 7.495 587.681H504.504C508.644 587.681 511.999 584.325 511.999 580.186C511.999 491.68 511.999 462.177 511.999 366.699C512 345.511 494.762 328.273 473.574 328.273ZM311.149 132.236C319.047 132.236 325.474 138.662 325.474 146.56C325.474 154.458 319.048 160.885 311.149 160.885C303.251 160.885 296.825 154.459 296.825 146.56C296.825 138.661 303.251 132.236 311.149 132.236ZM43.545 408.676L19.298 403.161V307.884L43.545 302.375V408.676ZM242.198 243.702C243.145 240.577 246.065 238.369 249.374 238.369H312.794C316.927 238.369 320.289 241.731 320.289 245.864V263.705H242.198V243.702ZM101.889 202.133V186.517C101.889 185.139 103.01 184.019 104.387 184.019H171.572C172.95 184.019 174.07 185.14 174.07 186.517V202.133C174.07 203.511 172.949 204.631 171.572 204.631H104.387C103.01 204.632 101.889 203.511 101.889 202.133ZM156.958 219.622L156.962 229.175H119.005L119.001 219.622H156.958ZM101.896 244.905C101.896 244.498 102.228 244.166 102.635 244.166H173.331C173.738 244.166 174.07 244.498 174.07 244.905V263.706H101.895V244.905H101.896ZM101.893 278.696H342.041V432.352H101.893V278.696ZM64.351 432.352C61.144 432.352 58.535 429.743 58.535 426.536V284.513C58.535 281.306 61.144 278.697 64.351 278.697H86.902V432.353C81.691 432.352 69.414 432.352 64.351 432.352ZM363.723 475.142H85.766V447.343H363.722V475.142H363.723ZM371.218 432.348C371.189 432.348 371.16 432.352 371.131 432.352H357.032V278.696H379.583C382.79 278.696 385.399 281.305 385.399 284.512V426.536C385.399 429.743 382.79 432.352 379.583 432.352H371.305C371.276 432.352 371.247 432.348 371.218 432.348ZM497.009 572.691C487.63 572.691 25.902 572.691 14.99 572.691V527.775L34.657 539.762C56.224 552.907 83.018 552.907 104.585 539.762C121.339 529.551 142.155 529.55 158.909 539.762C180.477 552.907 207.27 552.907 228.837 539.762C245.591 529.551 266.407 529.55 283.161 539.762C304.729 552.907 331.522 552.907 353.089 539.762C370.186 529.341 391.03 529.776 407.413 539.762C428.98 552.906 455.775 552.906 477.341 539.762L497.008 527.775C497.009 538.331 497.009 550.155 497.009 572.691ZM497.009 510.219C467.22 528.375 466.656 529.055 460.482 531.351V487.094C460.482 482.955 457.126 479.599 452.987 479.599C448.848 479.599 445.492 482.955 445.492 487.094V534.521C426.02 535.693 416.508 526.833 406.986 522.685V492.631C406.986 482.988 399.14 475.142 389.497 475.142H378.714V447.343C392.056 447.343 400.39 437.294 400.39 426.536V394.781H445.492V457.112C445.492 461.251 448.848 464.607 452.987 464.607C457.126 464.607 460.482 461.251 460.482 457.112V387.286C460.482 383.147 457.126 379.791 452.987 379.791H400.39V343.264H473.574C486.497 343.264 497.01 353.777 497.01 366.699V510.219H497.009Z" fill="black"/>
<path d="M211.024 302.994H131.298C127.158 302.994 123.803 306.35 123.803 310.489V400.559C123.803 404.699 127.159 408.054 131.298 408.054H211.024C215.164 408.054 218.519 404.698 218.519 400.559V310.489C218.52 306.35 215.164 302.994 211.024 302.994V302.994ZM203.529 393.064H138.794V317.985H203.529V393.064Z" fill="black"/>
<path d="M312.635 316.811H248.13C243.991 316.811 240.635 320.167 240.635 324.306C240.635 328.446 243.991 331.801 248.13 331.801H312.635C316.774 331.801 320.13 328.445 320.13 324.306C320.131 320.167 316.775 316.811 312.635 316.811Z" fill="black"/>
<path d="M312.635 348.029H248.13C243.991 348.029 240.635 351.385 240.635 355.524C240.635 359.663 243.991 363.019 248.13 363.019H312.635C316.774 363.019 320.13 359.663 320.13 355.524C320.13 351.385 316.775 348.029 312.635 348.029Z" fill="black"/>
<path d="M312.635 379.247H248.13C243.991 379.247 240.635 382.603 240.635 386.742C240.635 390.881 243.991 394.237 248.13 394.237H312.635C316.774 394.237 320.13 390.881 320.13 386.742C320.13 382.603 316.775 379.247 312.635 379.247Z" fill="black"/>
<path d="M161.899 363.02H169.447L166.543 370.452C165.036 374.307 166.94 378.654 170.796 380.161C171.692 380.511 172.615 380.677 173.522 380.677C176.519 380.677 179.348 378.868 180.505 375.908L187.405 358.253C188.307 355.946 188.011 353.343 186.614 351.298C185.217 349.253 182.901 348.03 180.424 348.03H172.876L175.78 340.598C177.287 336.743 175.383 332.396 171.527 330.889C167.672 329.38 163.324 331.285 161.818 335.142L154.918 352.797C154.016 355.104 154.312 357.707 155.709 359.752C157.105 361.796 159.422 363.02 161.899 363.02V363.02Z" fill="#F0A70A"/>
</g>
<defs>
<clipPath id="clip0">
<rect width="512" height="512" fill="white"/>
</clipPath>
</defs>
</svg>
