<svg width="512" height="512" viewBox="0 0 512 512" fill="none" xmlns="http://www.w3.org/2000/svg">
<g clip-path="url(#clip0)">
<path d="M222.5 2H290.5V55H222.5V2Z" fill="#065094"/>
<path d="M222.5 2H290.5V27.5H222.5V2Z" fill="#044078"/>
<path d="M290.5 2H242.5H222.5V27.5V55H242.5V37.5C242.5 31.977 246.977 27.5 252.5 27.5H290.5V2Z" fill="#044078"/>
<path d="M17.5 291.5H494.5C500.023 291.5 504.5 287.023 504.5 281.5V188.5C504.5 182.977 500.023 178.5 494.5 178.5H17.5C11.977 178.5 7.5 182.977 7.5 188.5V281.5C7.5 287.023 11.977 291.5 17.5 291.5Z" fill="#065094"/>
<path d="M140.38 178.5L146.62 235.01L140.31 291.5H41.5V178.5H140.38Z" fill="#044078"/>
<path d="M471.5 178.5V291.5H372.8L366.38 232.52L372.51 178.5H471.5Z" fill="#044078"/>
<path d="M146.62 235.01L140.31 291.5H41.5V178.5H140.38L146.62 235.01Z" fill="#044078"/>
<path d="M116.5 144.5H81.5C70.454 144.5 61.5 153.454 61.5 164.5V304.5C61.5 315.546 70.454 324.5 81.5 324.5H116.5L126.5 235L116.5 144.5Z" fill="#065094"/>
<path d="M471.5 178.5V291.5H372.8L366.38 232.52L372.51 178.5H471.5Z" fill="#044078"/>
<path d="M396.5 324.5H431.5C442.546 324.5 451.5 315.546 451.5 304.5V164.5C451.5 153.454 442.546 144.5 431.5 144.5H396.5L386.5 232.569L396.5 324.5Z" fill="#065094"/>
<path d="M336.5 94.5V69.5C336.5 58.454 327.546 49.5 316.5 49.5H196.5C185.454 49.5 176.5 58.454 176.5 69.5V94.5L256.5 104.5L336.5 94.5Z" fill="#065094"/>
<path d="M126.5 235L116.5 324.5H96.5V144.5H116.5L126.5 235Z" fill="#03427C"/>
<path d="M416.5 144.5V324.5H396.5L386.5 232.57L396.5 144.5H416.5Z" fill="#03427C"/>
<path d="M116.5 144.5L126.5 235L116.5 324.5H96.5V144.5H116.5Z" fill="#03427C"/>
<path d="M201.5 74.5C198.739 74.5 196.5 72.261 196.5 69.5C196.5 58.45 205.45 49.5 216.5 49.5H196.5C185.454 49.5 176.5 58.454 176.5 69.5V74.5V94.5L187 99L196.5 94.5H336.5V74.5H201.5Z" fill="#03427C"/>
<path d="M416.5 144.5V324.5H396.5L386.5 232.57L396.5 144.5H416.5Z" fill="#03427C"/>
<path d="M166.5 94.5H346.5C374.114 94.5 396.5 116.886 396.5 144.5V324.5C396.5 352.114 374.114 374.5 346.5 374.5H166.5C138.886 374.5 116.5 352.114 116.5 324.5V144.5C116.5 116.886 138.886 94.5 166.5 94.5Z" fill="#065094"/>
<path d="M186.5 374.5H166.5C138.89 374.5 116.5 352.11 116.5 324.5V144.5C116.5 116.89 138.89 94.5 166.5 94.5H186.5C158.89 94.5 136.5 116.89 136.5 144.5V324.5C136.5 352.11 158.89 374.5 186.5 374.5Z" fill="#044078"/>
<path d="M494.5 171.001H459V164.501C459 149.338 446.663 137.001 431.5 137.001H403.495C399.807 108.828 375.663 87.0009 346.5 87.0009H344V69.5009C344 54.3379 331.663 42 316.5 42H298V14.9999L298.412 -33.5001C214.588 -33.5001 308.796 -64 321 -64C343.332 -64 377.5 -49.168 377.5 -71.5C377.5 -93.832 359.332 -112 337 -112C324.796 -112 305.844 -95.0662 298.412 -86.5002L214.588 -86.5002C207.157 -95.0662 229.204 -54.5002 217 -54.5002C212.857 -54.5002 209.5 -51.1431 209.5 -47.0001C209.5 -42.8571 212.857 -39.5001 217 -39.5001C231.061 -39.5001 209.5 -74.0612 209.5 -60.0002C209.5 -45.9392 198.061 -34.5001 184 -34.5001C169.939 -34.5001 158.5 -45.9392 158.5 -60.0002C158.5 -63.4072 159.159 -66.7122 160.458 -69.8212C162.056 -73.6422 160.252 -78.0362 156.43 -79.6332C152.607 -81.2342 148.215 -79.4272 146.618 -75.6052C144.549 -70.6532 143.5 -65.4032 143.5 -60.0002C143.5 -37.6682 161.668 -19.5001 184 -19.5001C196.204 -19.5001 207.156 -24.9341 214.588 -33.5001L215 14.9999V42H196.5C181.337 42 169 54.3379 169 69.5009V87.0009H166.5C137.337 87.0009 113.194 108.828 109.505 137.001H81.5C66.337 137.001 54 149.338 54 164.501V171.001H17.5C7.851 171.001 0 178.851 0 188.5V281.5C0 291.149 7.851 299 17.5 299H54V304.5C54 319.663 66.337 332 81.5 332H109.505C113.193 360.173 137.337 382 166.5 382H346.5C375.663 382 399.806 360.173 403.495 332H431.5C446.663 332 459 319.663 459 304.5V299H494.5C504.149 299 512 291.149 512 281.5V188.5C512 178.851 504.149 171.001 494.5 171.001ZM337 -97C351.061 -97 362.5 -85.561 362.5 -71.5C362.5 -57.439 351.061 -46 337 -46C322.939 -46 303.5 -45.9392 303.5 -60.0002C303.5 -74.0612 322.939 -97 337 -97ZM222.827 -71.5002H290.173C287.958 -64.2682 287.958 -55.7322 290.173 -48.5002L222.827 -48.5001C225.043 -55.7321 225.043 -64.2682 222.827 -71.5002ZM230 14.9999H283V42H230V14.9999ZM69 304.5V234.5C69 230.357 65.643 227 61.5 227C57.357 227 54 230.357 54 234.5V284H17.5C16.121 284 15 282.879 15 281.5V188.5C15 187.121 16.121 186 17.5 186H54V199C54 203.143 57.357 206.5 61.5 206.5C65.643 206.5 69 203.143 69 199V164.501C69 157.608 74.607 152.001 81.5 152.001H109V317H81.5C74.607 317 69 311.393 69 304.5ZM346.5 367H166.5C143.065 367 124 347.935 124 324.5V144.501C124 121.066 143.065 102.001 166.5 102.001H209C213.143 102.001 216.5 98.644 216.5 94.501C216.5 90.358 213.143 87.0009 209 87.0009H184V69.5009C184 62.6079 189.607 57.0007 196.5 57.0007H316.5C323.393 57.0007 329 62.6079 329 69.5009V87.0009H244C239.857 87.0009 236.5 90.358 236.5 94.501C236.5 98.644 239.857 102.001 244 102.001H346.5C369.935 102.001 389 121.066 389 144.501V324.5C389 347.935 369.935 367 346.5 367ZM444 304.5C444 311.393 438.393 317 431.5 317H404V152.001H431.5C438.393 152.001 444 157.608 444 164.501V304.5ZM497 281.5C497 282.879 495.879 284 494.5 284H459V186H494.5C495.879 186 497 187.121 497 188.5V281.5Z" fill="black"/>
<g clip-path="url(#clip1)">
<path d="M367.215 235.915C367.215 294.314 319.79 341.827 261.5 341.827C203.203 341.827 155.785 294.314 155.785 235.915C155.785 177.516 203.203 130 261.5 130C319.79 130 367.215 177.516 367.215 235.915V235.915Z" fill="#49C1E4"/>
<path d="M367.215 235.915C367.215 294.314 319.79 341.827 261.5 341.827V130C319.79 130 367.215 177.516 367.215 235.915V235.915Z" fill="#2FA8CC"/>
<path d="M333.579 235.915C333.579 240.626 329.761 244.44 325.054 244.44C320.347 244.44 316.529 240.626 316.529 235.915C316.529 205.501 291.838 180.755 261.5 180.755C231.155 180.755 206.467 205.501 206.467 235.915C206.467 240.626 202.646 244.44 197.941 244.44C193.235 244.44 189.416 240.626 189.416 235.915C189.416 196.094 221.748 163.704 261.5 163.704C301.245 163.704 333.579 196.094 333.579 235.915Z" fill="white"/>
<path d="M270.025 206.973V248.543C270.025 253.25 266.207 257.068 261.5 257.068C256.789 257.068 252.975 253.25 252.975 248.543V206.973C252.975 202.266 256.789 198.447 261.5 198.447C266.207 198.447 270.025 202.266 270.025 206.973Z" fill="#FF6555"/>
<path d="M270.025 206.973V248.543C270.025 253.25 266.207 257.068 261.5 257.068V198.447C266.207 198.447 270.025 202.266 270.025 206.973Z" fill="#F4493B"/>
<path d="M289.509 268.071C289.509 283.537 276.943 296.125 261.5 296.125C246.052 296.125 233.486 283.537 233.486 268.071C233.486 252.601 246.052 240.018 261.5 240.018C276.943 240.018 289.509 252.601 289.509 268.071Z" fill="#007DCC"/>
<path d="M261.5 296.125V240.018C276.943 240.018 289.509 252.601 289.509 268.071C289.509 283.537 276.943 296.125 261.5 296.125Z" fill="#005389"/>
<path d="M333.58 235.915C333.58 240.626 329.761 244.44 325.054 244.44C320.347 244.44 316.529 240.626 316.529 235.915C316.529 205.501 291.838 180.755 261.5 180.755V163.704C301.245 163.704 333.58 196.094 333.58 235.915Z" fill="#EBEAF0"/>
</g>
<path d="M370 234.5C370 296.221 321.059 346 261 346C200.941 346 152 296.221 152 234.5C152 172.779 200.941 123 261 123C321.059 123 370 172.779 370 234.5Z" stroke="black" stroke-width="14"/>
</g>
<defs>
<clipPath id="clip0">
<rect width="512" height="512" fill="white"/>
</clipPath>
<clipPath id="clip1">
<rect width="291" height="291" fill="white" transform="translate(116 130)"/>
</clipPath>
</defs>
</svg>
