<svg width="512" height="512" viewBox="0 0 512 512" fill="none" xmlns="http://www.w3.org/2000/svg">
<g clip-path="url(#clip0)">
<path d="M213.333 209.067H298.667V439.467H213.333V209.067Z" fill="#547580"/>
<path d="M273.067 209.067H298.667V439.467H273.067V209.067Z" fill="black" fill-opacity="0.2"/>
<path d="M187.733 268.8H213.333V337.067H187.733C178.308 337.067 170.667 329.426 170.667 320V285.867C170.667 276.441 178.308 268.8 187.733 268.8Z" fill="#3F5C6C"/>
<path d="M47.5308 465.067L120.917 296.107C123.594 289.867 129.744 285.834 136.533 285.867L170.667 285.866V320H147.712L84.6508 465.067H47.5308Z" fill="#7F8C8D"/>
<path d="M324.267 337.067H298.667V268.8H324.267C333.692 268.8 341.333 276.441 341.333 285.867V320C341.333 329.426 333.692 337.067 324.267 337.067Z" fill="#3F5C6C"/>
<path d="M324.267 268.8H298.667C308.092 268.8 315.733 276.441 315.733 285.867V320C315.733 329.426 308.092 337.067 298.667 337.067H324.267C333.692 337.067 341.333 329.426 341.333 320V285.867C341.333 276.441 333.692 268.8 324.267 268.8Z" fill="black" fill-opacity="0.2"/>
<path d="M427.35 465.067L364.288 320H341.333V285.866L375.467 285.867C382.256 285.834 388.406 289.867 391.083 296.107L464.47 465.067H427.35Z" fill="#7F8C8D"/>
<path d="M391.083 296.107C388.406 289.867 382.256 285.834 375.467 285.867L349.867 285.866C356.656 285.834 362.806 289.867 365.483 296.107L438.869 465.067H464.469L391.083 296.107Z" fill="black" fill-opacity="0.2"/>
<path d="M332.8 473.6V490.667C332.8 495.379 328.98 499.2 324.267 499.2H187.733C183.021 499.2 179.2 495.379 179.2 490.667V473.6C179.174 470.718 179.547 467.846 180.309 465.067C184.177 449.991 197.77 439.454 213.333 439.467H298.667C314.23 439.454 327.823 449.991 331.691 465.067C332.453 467.846 332.826 470.718 332.8 473.6Z" fill="#BDC3C7"/>
<path d="M331.691 465.067C327.823 449.991 314.23 439.454 298.667 439.467H273.067C288.63 439.454 302.223 449.991 306.091 465.067C306.853 467.846 307.226 470.718 307.2 473.6V490.667C307.2 495.379 303.38 499.2 298.667 499.2H324.267C328.98 499.2 332.8 495.379 332.8 490.667V473.6C332.826 470.718 332.453 467.846 331.691 465.067Z" fill="black" fill-opacity="0.2"/>
<path d="M298.667 157.867H213.333C203.908 157.867 196.267 165.508 196.267 174.933V192C196.267 201.426 203.908 209.067 213.333 209.067H298.667C308.092 209.067 315.733 201.426 315.733 192V174.933C315.733 165.508 308.092 157.867 298.667 157.867Z" fill="#95A5A5"/>
<path d="M298.667 157.867H273.067C282.493 157.867 290.134 165.508 290.134 174.933V192C290.134 201.426 282.493 209.067 273.067 209.067H298.667C308.093 209.067 315.734 201.426 315.734 192V174.933C315.734 165.508 308.093 157.867 298.667 157.867Z" fill="black" fill-opacity="0.2"/>
<path d="M503.467 473.6V490.667C503.467 495.379 499.646 499.2 494.933 499.2H324.267C328.979 499.2 332.8 495.379 332.8 490.667V473.6C332.826 470.718 332.453 467.846 331.691 465.067H494.933C499.646 465.067 503.467 468.887 503.467 473.6Z" fill="#95A5A5"/>
<path d="M494.933 465.067H469.333C474.046 465.067 477.867 468.887 477.867 473.6V490.667C477.867 495.379 474.046 499.2 469.333 499.2H494.933C499.646 499.2 503.467 495.379 503.467 490.667V473.6C503.467 468.887 499.646 465.067 494.933 465.067Z" fill="black" fill-opacity="0.2"/>
<path d="M187.733 499.2H17.0668C12.354 499.2 8.53345 495.379 8.53345 490.667V473.6C8.53345 468.887 12.354 465.067 17.0668 465.067H180.309C179.547 467.846 179.174 470.718 179.2 473.6V490.667C179.2 495.379 183.021 499.2 187.733 499.2Z" fill="#95A5A5"/>
<path d="M270.788 118.042C272.167 121.044 275.155 122.98 278.458 123.013C281.761 123.046 284.787 121.169 286.225 118.195C291.205 107.68 297.83 98.027 305.852 89.5999C322.919 72.5333 357.052 63.9999 348.519 38.3999C339.985 12.7999 305.852 12.7999 288.785 29.8666C270.507 48.1535 258.833 89.9669 270.788 118.042V118.042Z" fill="#2FA8CC"/>
<path d="M348.519 38.4C342.247 19.567 322.134 14.6347 305.135 20.1046C313.616 23.0588 320.206 29.8392 322.919 38.4C331.452 64 297.319 72.5334 280.252 89.6001C275.314 94.6701 270.963 100.281 267.281 106.325C268.038 110.343 269.213 114.269 270.788 118.042C272.167 121.044 275.155 122.98 278.458 123.013C281.761 123.046 284.787 121.169 286.225 118.195C291.205 107.68 297.83 98.0271 305.852 89.6001C322.919 72.5334 357.052 64 348.519 38.4V38.4Z" fill="black" fill-opacity="0.2"/>
<path d="M242.048 120.499C241.845 123.172 240.111 125.485 237.602 126.429C235.093 127.373 232.264 126.778 230.349 124.902C223.64 118.287 215.92 112.783 207.479 108.595C189.756 100.352 161.399 103.339 160.794 81.4934C160.188 59.6481 186.146 50.1675 203.87 58.4107C222.865 67.2513 243.354 95.8209 242.048 120.499Z" fill="#2FA8CC"/>
<path d="M203.87 58.4107C195.393 54.667 185.763 54.5101 177.169 57.9755C177.527 58.1291 177.911 58.2485 178.27 58.4107C198.796 69.9259 212.815 90.3159 216.217 113.604C221.254 116.943 225.984 120.724 230.349 124.902C232.264 126.778 235.093 127.373 237.602 126.429C240.11 125.485 241.845 123.172 242.048 120.499C243.353 95.8208 222.865 67.2512 203.87 58.4107V58.4107Z" fill="black" fill-opacity="0.2"/>
<path d="M135.68 155.87C137.008 157.635 137.106 160.037 135.927 161.904C134.747 163.771 132.537 164.715 130.372 164.275C122.555 162.983 114.584 162.908 106.744 164.053C90.7692 166.81 73.822 182.033 61.807 167.714C49.7921 153.395 61.7388 134.929 77.7132 132.164C99.7457 130.137 121.382 138.985 135.68 155.87V155.87Z" fill="#2FA8CC"/>
<path d="M373.495 155.87C372.168 157.635 372.07 160.037 373.249 161.904C374.428 163.771 376.639 164.715 378.803 164.275C386.621 162.983 394.591 162.908 402.432 164.053C418.406 166.81 435.354 182.033 447.368 167.714C459.383 153.395 447.437 134.929 431.462 132.164C409.43 130.137 387.794 138.985 373.495 155.87V155.87Z" fill="#2FA8CC"/>
<path d="M431.462 132.164C424.473 131.25 417.372 131.705 410.556 133.504C423.996 138.624 432.572 154.837 421.768 167.714C421.12 168.482 420.416 169.201 419.661 169.865C429.901 173.909 439.654 176.913 447.368 167.714C459.383 153.387 447.437 134.929 431.462 132.164Z" fill="black" fill-opacity="0.2"/>
<path d="M136.533 115.2C141.246 115.2 145.067 111.379 145.067 106.667C145.067 101.954 141.246 98.1333 136.533 98.1333C131.821 98.1333 128 101.954 128 106.667C128 111.379 131.821 115.2 136.533 115.2Z" fill="#67B9CC"/>
<path d="M230.4 38.3999C235.113 38.3999 238.933 34.5794 238.933 29.8666C238.933 25.1538 235.113 21.3333 230.4 21.3333C225.687 21.3333 221.867 25.1538 221.867 29.8666C221.867 34.5794 225.687 38.3999 230.4 38.3999Z" fill="#67B9CC"/>
<path d="M426.667 38.3999C431.379 38.3999 435.2 34.5794 435.2 29.8666C435.2 25.1538 431.379 21.3333 426.667 21.3333C421.954 21.3333 418.133 25.1538 418.133 29.8666C418.133 34.5794 421.954 38.3999 426.667 38.3999Z" fill="#67B9CC"/>
<path d="M392.533 55.4666C397.246 55.4666 401.067 51.6461 401.067 46.9332C401.067 42.2204 397.246 38.3999 392.533 38.3999C387.821 38.3999 384 42.2204 384 46.9332C384 51.6461 387.821 55.4666 392.533 55.4666Z" fill="#67B9CC"/>
<path d="M494.933 456.533H470.067L398.933 292.77C394.926 283.375 385.681 277.293 375.467 277.333H348.297C344.693 267.141 335.077 260.311 324.267 260.267H307.2V216.03C317.392 212.427 324.222 202.81 324.267 192V174.933C324.267 160.795 312.805 149.333 298.667 149.333H213.333C199.195 149.333 187.733 160.795 187.733 174.933V192C187.778 202.81 194.608 212.427 204.8 216.03V260.267H187.733C176.923 260.311 167.307 267.141 163.703 277.333H136.533C126.345 277.284 117.114 283.332 113.092 292.693L41.9328 456.533H17.0667C7.64101 456.533 0 464.174 0 473.6V490.667C0 500.092 7.64101 507.733 17.0667 507.733H494.933C504.359 507.733 512 500.092 512 490.667V473.6C512 464.174 504.359 456.533 494.933 456.533ZM383.258 299.52L451.465 456.533H432.947L372.113 316.587C370.755 313.475 367.683 311.465 364.288 311.467H349.867V294.4L375.467 294.4C378.859 294.378 381.932 296.397 383.258 299.52ZM307.2 431.787V345.6H324.267C335.077 345.555 344.693 338.725 348.297 328.533H358.69L414.336 456.533H337.715C332.156 443.826 320.782 434.602 307.2 431.787V431.787ZM256 430.933V285.867C256 281.154 252.18 277.333 247.467 277.333C242.754 277.333 238.933 281.154 238.933 285.867V430.933H221.867V217.6H238.933V251.733C238.933 256.446 242.754 260.267 247.467 260.267C252.18 260.267 256 256.446 256 251.733V217.6H290.133V430.933H256ZM174.285 456.533H97.664L153.31 328.533H163.703C167.307 338.725 176.923 345.555 187.733 345.6H204.8V431.787C191.218 434.602 179.844 443.826 174.285 456.533ZM324.267 277.333C328.98 277.333 332.8 281.154 332.8 285.867V320C332.8 324.713 328.98 328.533 324.267 328.533H307.2V277.333H324.267ZM204.8 174.933C204.8 170.22 208.621 166.4 213.333 166.4H298.667C303.38 166.4 307.2 170.22 307.2 174.933V192C307.2 196.713 303.38 200.533 298.667 200.533H213.333C208.621 200.533 204.8 196.713 204.8 192V174.933ZM187.733 277.333H204.8V328.533H187.733C183.021 328.533 179.2 324.713 179.2 320V285.867C179.2 281.154 183.021 277.333 187.733 277.333ZM128.768 299.443C130.11 296.356 133.167 294.371 136.533 294.4L162.133 294.4V311.467H147.712C144.317 311.465 141.245 313.475 139.887 316.587L79.0528 456.533H60.5355L128.768 299.443ZM17.0667 490.667V473.6H170.667V490.667H17.0667ZM187.733 490.667V473.6C187.733 459.461 199.195 448 213.333 448H298.667C312.805 448 324.267 459.461 324.267 473.6V490.667H187.733ZM494.933 490.667H341.333V473.6H494.933V490.667Z" fill="black"/>
<path d="M277.956 131.558H278.451C285.015 131.602 291.019 127.866 293.88 121.958C298.464 112.294 304.54 103.41 311.885 95.633C317.213 90.8117 323 86.5245 329.165 82.833C344.969 72.593 364.638 59.793 356.617 35.729C352.562 23.0115 341.993 13.4491 328.935 10.6837C312.307 7.10757 294.99 12.0479 282.752 23.8592C262.4 44.2112 249.259 89.2757 262.938 121.404C265.5 127.457 271.385 131.435 277.956 131.558ZM294.818 35.8997C301.16 29.8752 309.572 26.5152 318.319 26.513C320.571 26.5057 322.816 26.7606 325.009 27.2725C332.274 28.7524 338.172 34.043 340.429 41.105C343.911 51.5584 336.836 57.4805 319.864 68.5056C312.682 72.8265 305.965 77.8765 299.819 83.5754C291.07 92.7012 283.914 103.229 278.648 114.722L270.788 118.05L278.639 114.705C268.109 89.9584 278.69 52.0533 294.818 35.8997V35.8997Z" fill="black"/>
<path d="M203.878 116.335C211.458 120.136 218.393 125.106 224.427 131.063C228.824 135.26 235.261 136.516 240.913 134.28C246.485 132.138 250.265 126.906 250.547 120.943C252.066 92.0576 229.052 60.7317 207.445 50.6709C194.342 44.8608 179.206 45.955 167.074 53.5893C157.489 59.6837 151.846 70.3974 152.243 81.7493C152.858 103.526 172.86 108.134 187.469 111.496C193.083 112.571 198.579 114.191 203.878 116.335V116.335ZM169.327 81.2544C169.1 75.819 171.838 70.6877 176.478 67.8485C180.548 65.2913 185.265 63.9556 190.072 64C193.601 63.9642 197.095 64.698 200.312 66.1503C218.621 76.7111 230.935 95.2295 233.592 116.198C226.897 110.019 219.34 104.845 211.157 100.838C204.795 98.1651 198.172 96.1632 191.394 94.865C174.737 91.0336 169.532 88.6613 169.327 81.2544Z" fill="black"/>
<path d="M95.232 176.768C99.4039 174.92 103.749 173.491 108.203 172.501C115.147 171.525 122.2 171.612 129.118 172.757C134.719 173.656 140.31 171.097 143.292 166.272C146.191 161.487 145.928 155.428 142.626 150.912C126.428 131.349 101.539 121.155 76.271 123.733C64.3961 125.795 54.4757 133.94 50.1419 145.186C46.5731 154.745 48.5395 165.491 55.2619 173.167C59.7452 178.978 66.6957 182.35 74.0352 182.272C81.3837 181.784 88.5746 179.917 95.232 176.768V176.768ZM66.1675 151.04C68.4351 145.557 73.3343 141.603 79.1723 140.544C80.9122 140.255 82.6736 140.115 84.4374 140.126C98.6663 140.636 112.331 145.821 123.315 154.88C117.303 154.4 111.255 154.643 105.301 155.605C99.6483 156.786 94.1362 158.562 88.8576 160.905C76.3563 165.939 72.1494 166.724 68.3776 162.193C65.5615 159.208 64.7027 154.874 66.1675 151.04Z" fill="black"/>
<path d="M380.066 172.715C386.985 171.573 394.037 171.486 400.981 172.459C405.436 173.447 409.781 174.876 413.952 176.725C420.621 179.904 427.83 181.795 435.2 182.298C442.54 182.375 449.49 179.004 453.973 173.193C460.696 165.517 462.662 154.771 459.093 145.212C454.758 133.942 444.813 125.783 432.913 123.733C407.651 121.142 382.761 131.324 366.558 150.878C363.256 155.394 362.993 161.453 365.892 166.238C368.886 171.049 374.469 173.601 380.066 172.715V172.715ZM430.012 140.578C435.844 141.626 440.744 145.567 443.017 151.04C444.489 154.866 443.64 159.197 440.832 162.185C437.035 166.716 432.828 165.939 420.352 160.896C415.073 158.553 409.561 156.777 403.908 155.597C400.02 154.948 396.083 154.631 392.141 154.65C390.11 154.65 388.028 154.724 385.894 154.872C398.175 144.539 414.005 139.41 430.012 140.578V140.578Z" fill="black"/>
</g>
<defs>
<clipPath id="clip0">
<rect width="512" height="512" fill="white"/>
</clipPath>
</defs>
</svg>
