<svg width="512" height="512" viewBox="0 0 512 512" fill="none" xmlns="http://www.w3.org/2000/svg">
<g clip-path="url(#clip0)">
<path d="M425.55 482.256L425.55 29.284C425.55 16.3455 415.062 5.85681 402.123 5.85681L109.284 5.85681C96.3454 5.85681 85.8567 16.3455 85.8567 29.284L85.8567 482.256C85.8567 495.195 96.3454 505.684 109.284 505.684L402.123 505.684C415.062 505.684 425.55 495.195 425.55 482.256Z" fill="#394D5C"/>
<path d="M431.407 481.149L431.407 29.2839C431.398 21.5202 428.31 14.0771 422.82 8.58734C417.33 3.09755 409.887 0.00929975 402.123 0L109.284 0C101.52 0.00929975 94.0771 3.09755 88.5873 8.58734C83.0975 14.0771 80.0093 21.5202 80 29.2839L80 481.149C80.0093 488.913 83.0975 496.356 88.5873 501.846C94.0771 507.336 101.52 510.424 109.284 510.433L402.123 510.433C409.887 510.424 417.33 507.336 422.82 501.846C428.31 496.356 431.398 488.913 431.407 481.149ZM109.284 498.72C104.624 498.72 100.155 496.869 96.8598 493.573C93.5647 490.278 91.7135 485.809 91.7135 481.149L91.7135 29.2839C91.7135 24.624 93.5647 20.1549 96.8598 16.8598C100.155 13.5647 104.624 11.7136 109.284 11.7136L402.123 11.7136C406.783 11.7136 411.252 13.5647 414.547 16.8598C417.842 20.1549 419.694 24.624 419.694 29.2839L419.694 481.149C419.694 485.809 417.842 490.278 414.547 493.573C411.252 496.869 406.783 498.72 402.123 498.72L109.284 498.72Z" fill="black"/>
<path d="M402.266 187.06V69.9243C402.266 50.5166 386.533 34.7836 367.125 34.7836L144.567 34.7836C125.16 34.7836 109.427 50.5166 109.427 69.9243V187.06C109.427 206.468 125.16 222.201 144.567 222.201L367.125 222.201C386.533 222.201 402.266 206.468 402.266 187.06Z" fill="#7D8D9C"/>
<path d="M355.412 69.9243C355.412 76.3935 360.656 81.6378 367.125 81.6378C373.595 81.6378 378.839 76.3935 378.839 69.9243C378.839 63.455 373.595 58.2107 367.125 58.2107C360.656 58.2107 355.412 63.455 355.412 69.9243Z" fill="#F4F4E6"/>
<path d="M355.412 187.06C355.412 193.529 360.656 198.774 367.125 198.774C373.595 198.774 378.839 193.529 378.839 187.06C378.839 180.591 373.595 175.346 367.125 175.346C360.656 175.346 355.412 180.591 355.412 187.06Z" fill="#F4F4E6"/>
<path d="M132.854 69.9243C132.854 76.3935 138.098 81.6378 144.567 81.6378C151.037 81.6378 156.281 76.3935 156.281 69.9243C156.281 63.455 151.037 58.2107 144.567 58.2107C138.098 58.2107 132.854 63.455 132.854 69.9243Z" fill="#F4F4E6"/>
<path d="M132.854 187.06C132.854 193.529 138.098 198.774 144.567 198.774C151.037 198.774 156.281 193.529 156.281 187.06C156.281 180.591 151.037 175.346 144.567 175.346C138.098 175.346 132.854 180.591 132.854 187.06Z" fill="#F4F4E6"/>
<path d="M302.701 128.492C302.701 147.9 318.434 163.633 337.841 163.633C357.249 163.633 372.982 147.9 372.982 128.492C372.982 109.084 357.249 93.3514 337.841 93.3514C318.434 93.3514 302.701 109.084 302.701 128.492Z" fill="#DD3E46"/>
<path d="M138.711 128.492C138.711 147.9 154.444 163.633 173.851 163.633C193.259 163.633 208.992 147.9 208.992 128.492C208.992 109.084 193.259 93.3514 173.851 93.3514C154.444 93.3514 138.711 109.084 138.711 128.492Z" fill="#55B56A"/>
<path d="M220.706 128.492C220.706 147.9 236.439 163.633 255.846 163.633C275.254 163.633 290.987 147.9 290.987 128.492C290.987 109.084 275.254 93.3514 255.846 93.3514C236.439 93.3514 220.706 109.084 220.706 128.492Z" fill="#F9BB4B"/>
<path d="M185.565 52.3539V64.0675H173.851V52.3539H185.565Z" fill="#AABECE"/>
<path d="M208.992 52.3539V64.0675H197.279V52.3539H208.992Z" fill="#AABECE"/>
<path d="M337.841 192.917V204.63H326.128V192.917H337.841Z" fill="#AABECE"/>
<path d="M408.123 187.06L408.123 69.9243C408.111 59.0549 403.787 48.6342 396.101 40.9483C388.415 33.2625 377.995 28.9392 367.125 28.9268L144.567 28.9268C133.698 28.9392 123.277 33.2625 115.592 40.9483C107.906 48.6342 103.582 59.0549 103.57 69.9243L103.57 187.06C103.582 197.929 107.906 208.35 115.592 216.036C123.277 223.722 133.698 228.045 144.567 228.058L367.125 228.058C377.995 228.045 388.415 223.722 396.101 216.036C403.787 208.35 408.111 197.929 408.123 187.06ZM144.567 216.344C136.804 216.335 129.361 213.246 123.871 207.757C118.381 202.267 115.293 194.824 115.284 187.06L115.284 69.9243C115.293 62.1605 118.381 54.7175 123.871 49.2277C129.361 43.7379 136.804 40.6496 144.567 40.6403L367.125 40.6403C374.889 40.6496 382.332 43.7379 387.822 49.2277C393.312 54.7175 396.4 62.1605 396.409 69.9243V187.06C396.4 194.824 393.312 202.267 387.822 207.757C382.332 213.246 374.889 216.335 367.125 216.344L144.567 216.344Z" fill="black"/>
<path d="M349.555 69.9242C349.555 73.3993 350.585 76.7964 352.516 79.6858C354.447 82.5752 357.191 84.8273 360.401 86.1571C363.612 87.487 367.145 87.835 370.553 87.157C373.961 86.479 377.092 84.8056 379.549 82.3484C382.007 79.8911 383.68 76.7604 384.358 73.3521C385.036 69.9437 384.688 66.4109 383.358 63.2004C382.028 59.9898 379.776 57.2457 376.887 55.315C373.998 53.3844 370.6 52.3539 367.125 52.3539C362.465 52.3539 357.996 54.205 354.701 57.5001C351.406 60.7952 349.555 65.2643 349.555 69.9242ZM372.982 69.9242C372.982 71.0826 372.639 72.215 371.995 73.1781C371.352 74.1412 370.437 74.8919 369.367 75.3352C368.296 75.7785 367.119 75.8945 365.983 75.6685C364.847 75.4425 363.803 74.8847 362.984 74.0656C362.165 73.2465 361.607 72.203 361.381 71.0669C361.155 69.9307 361.271 68.7531 361.714 67.683C362.158 66.6128 362.908 65.698 363.872 65.0545C364.835 64.4109 365.967 64.0675 367.125 64.0675C368.679 64.0675 370.168 64.6845 371.267 65.7829C372.365 66.8812 372.982 68.3709 372.982 69.9242Z" fill="black"/>
<path d="M384.696 187.06C384.696 183.585 383.665 180.188 381.735 177.298C379.804 174.409 377.06 172.157 373.849 170.827C370.639 169.497 367.106 169.149 363.698 169.827C360.289 170.505 357.159 172.179 354.701 174.636C352.244 177.093 350.571 180.224 349.893 183.632C349.215 187.041 349.563 190.573 350.892 193.784C352.222 196.994 354.474 199.739 357.364 201.669C360.253 203.6 363.65 204.63 367.125 204.63C371.785 204.63 376.254 202.779 379.55 199.484C382.845 196.189 384.696 191.72 384.696 187.06ZM361.269 187.06C361.269 185.902 361.612 184.769 362.256 183.806C362.899 182.843 363.814 182.092 364.884 181.649C365.954 181.206 367.132 181.09 368.268 181.316C369.404 181.542 370.448 182.1 371.267 182.919C372.086 183.738 372.644 184.781 372.87 185.917C373.096 187.053 372.98 188.231 372.536 189.301C372.093 190.371 371.342 191.286 370.379 191.93C369.416 192.573 368.284 192.917 367.125 192.917C365.572 192.917 364.082 192.3 362.984 191.201C361.886 190.103 361.269 188.613 361.269 187.06Z" fill="black"/>
<path d="M162.138 69.9243C162.138 66.4492 161.107 63.0521 159.177 60.1627C157.246 57.2733 154.502 55.0212 151.291 53.6914C148.081 52.3615 144.548 52.0135 141.14 52.6915C137.731 53.3695 134.601 55.0429 132.143 57.5001C129.686 59.9574 128.013 63.0881 127.335 66.4964C126.657 69.9048 127.005 73.4376 128.335 76.6481C129.664 79.8587 131.916 82.6028 134.806 84.5335C137.695 86.4641 141.092 87.4946 144.567 87.4946C149.227 87.4946 153.696 85.6435 156.992 82.3484C160.287 79.0533 162.138 74.5842 162.138 69.9243ZM138.711 69.9243C138.711 68.7659 139.054 67.6335 139.698 66.6704C140.341 65.7073 141.256 64.9566 142.326 64.5133C143.396 64.07 144.574 63.954 145.71 64.18C146.846 64.406 147.89 64.9638 148.709 65.7829C149.528 66.602 150.086 67.6455 150.312 68.7816C150.538 69.9178 150.422 71.0954 149.978 72.1655C149.535 73.2357 148.784 74.1504 147.821 74.794C146.858 75.4376 145.726 75.781 144.567 75.781C143.014 75.781 141.524 75.164 140.426 74.0656C139.328 72.9673 138.711 71.4776 138.711 69.9243Z" fill="black"/>
<path d="M162.138 187.06C162.138 183.585 161.107 180.188 159.177 177.298C157.246 174.409 154.502 172.157 151.291 170.827C148.081 169.497 144.548 169.149 141.14 169.827C137.731 170.505 134.601 172.179 132.143 174.636C129.686 177.093 128.013 180.224 127.335 183.632C126.657 187.041 127.005 190.573 128.335 193.784C129.664 196.994 131.916 199.739 134.806 201.669C137.695 203.6 141.092 204.63 144.567 204.63C149.227 204.63 153.696 202.779 156.992 199.484C160.287 196.189 162.138 191.72 162.138 187.06ZM138.711 187.06C138.711 185.902 139.054 184.769 139.698 183.806C140.341 182.843 141.256 182.092 142.326 181.649C143.396 181.206 144.574 181.09 145.71 181.316C146.846 181.542 147.89 182.1 148.709 182.919C149.528 183.738 150.086 184.781 150.312 185.917C150.538 187.053 150.422 188.231 149.978 189.301C149.535 190.371 148.784 191.286 147.821 191.93C146.858 192.573 145.726 192.917 144.567 192.917C143.014 192.917 141.524 192.3 140.426 191.201C139.328 190.103 138.711 188.613 138.711 187.06Z" fill="black"/>
<path d="M337.841 169.49C345.95 169.49 353.876 167.085 360.618 162.58C367.36 158.075 372.615 151.673 375.718 144.181C378.821 136.69 379.633 128.447 378.051 120.494C376.469 112.541 372.565 105.236 366.831 99.5025C361.097 93.7689 353.792 89.8643 345.84 88.2824C337.887 86.7005 329.644 87.5124 322.152 90.6154C314.661 93.7184 308.258 98.9732 303.753 105.715C299.248 112.457 296.844 120.384 296.844 128.492C296.856 139.362 301.18 149.782 308.865 157.468C316.551 165.154 326.972 169.477 337.841 169.49V169.49ZM308.557 128.492C308.557 122.7 310.275 117.039 313.493 112.223C316.71 107.407 321.284 103.654 326.635 101.437C331.986 99.2209 337.874 98.641 343.554 99.7709C349.235 100.901 354.453 103.69 358.548 107.785C362.644 111.881 365.433 117.099 366.563 122.779C367.693 128.46 367.113 134.348 364.896 139.699C362.68 145.05 358.926 149.623 354.111 152.841C349.295 156.059 343.633 157.776 337.841 157.776C330.078 157.767 322.635 154.679 317.145 149.189C311.655 143.699 308.567 136.256 308.557 128.492V128.492Z" fill="black"/>
<path d="M214.849 128.492C214.849 120.384 212.444 112.457 207.94 105.715C203.435 98.9732 197.032 93.7184 189.54 90.6154C182.049 87.5124 173.806 86.7005 165.853 88.2824C157.9 89.8643 150.595 93.7689 144.862 99.5025C139.128 105.236 135.224 112.541 133.642 120.494C132.06 128.447 132.872 136.69 135.975 144.181C139.078 151.673 144.332 158.075 151.074 162.58C157.816 167.085 165.743 169.49 173.851 169.49C184.721 169.477 195.142 165.154 202.827 157.468C210.513 149.782 214.837 139.362 214.849 128.492V128.492ZM144.567 128.492C144.567 122.7 146.285 117.039 149.503 112.223C152.72 107.407 157.294 103.654 162.645 101.437C167.996 99.2209 173.884 98.641 179.564 99.7709C185.245 100.901 190.463 103.69 194.558 107.785C198.654 111.881 201.443 117.099 202.573 122.779C203.703 128.46 203.123 134.348 200.906 139.699C198.69 145.05 194.936 149.623 190.121 152.841C185.305 156.059 179.643 157.776 173.851 157.776C166.088 157.767 158.645 154.679 153.155 149.189C147.665 143.699 144.577 136.256 144.567 128.492V128.492Z" fill="black"/>
<path d="M255.846 169.49C263.955 169.49 271.881 167.085 278.623 162.58C285.365 158.075 290.62 151.673 293.723 144.181C296.826 136.69 297.638 128.447 296.056 120.494C294.474 112.541 290.57 105.236 284.836 99.5025C279.102 93.7689 271.797 89.8643 263.845 88.2824C255.892 86.7005 247.649 87.5124 240.157 90.6154C232.666 93.7184 226.263 98.9732 221.758 105.715C217.253 112.457 214.849 120.384 214.849 128.492C214.861 139.362 219.185 149.782 226.87 157.468C234.556 165.154 244.977 169.477 255.846 169.49ZM226.562 128.492C226.562 122.7 228.28 117.039 231.498 112.223C234.715 107.407 239.289 103.654 244.64 101.437C249.991 99.2209 255.879 98.641 261.559 99.7709C267.24 100.901 272.458 103.69 276.553 107.785C280.649 111.881 283.438 117.099 284.568 122.779C285.698 128.46 285.118 134.348 282.901 139.699C280.685 145.05 276.931 149.623 272.116 152.841C267.3 156.059 261.638 157.776 255.846 157.776C248.083 157.767 240.64 154.679 235.15 149.189C229.66 143.699 226.572 136.256 226.562 128.492V128.492Z" fill="black"/>
<path d="M185.565 52.3539V64.0675H173.851V52.3539H185.565Z" fill="black"/>
<path d="M208.992 52.3539V64.0675H197.279V52.3539H208.992Z" fill="black"/>
<path d="M337.841 192.917V204.63H326.128V192.917H337.841Z" fill="black"/>
<path d="M115.355 254.984H396.052V419.974H115.355V254.984Z" fill="#F4F4E6"/>
<path d="M378.91 278.982V469.257H115.355V278.982C115.355 265.732 122.662 254.984 131.677 254.984H362.588C371.604 254.985 378.91 265.733 378.91 278.982Z" fill="#91DAF5"/>
<path d="M396.052 274.277V449.973C396.052 460.625 388.254 469.257 378.633 469.257H221.42L236.716 427.243L299.441 254.984H378.632C388.254 254.985 396.052 263.625 396.052 274.277Z" fill="#5FC9ED"/>
<path d="M115.057 477.828H396.35C398.544 477.828 400.648 476.957 402.2 475.407C403.752 473.857 404.623 471.755 404.623 469.563V254.678C404.623 252.486 403.752 250.384 402.2 248.834C400.648 247.284 398.544 246.414 396.35 246.414H115.057C112.863 246.414 110.759 247.284 109.207 248.834C107.656 250.384 106.784 252.486 106.784 254.678V469.563C106.784 471.755 107.656 473.857 109.207 475.407C110.759 476.957 112.863 477.828 115.057 477.828ZM123.331 268.943C123.331 265.629 126.017 262.943 129.331 262.943H382.077C385.39 262.943 388.077 265.629 388.077 268.943V452.5C388.077 455.814 385.39 458.5 382.077 458.5H129.331C126.017 458.5 123.331 455.814 123.331 452.5V268.943ZM123.331 467.275C123.331 468.537 124.357 469.557 125.619 469.55L385.598 468.005C386.153 468.002 386.661 467.693 386.92 467.202V467.202C387.445 466.201 386.72 465 385.589 465H125.606C124.349 465 123.331 466.018 123.331 467.275V467.275Z" fill="black"/>
</g>
<defs>
<clipPath id="clip0">
<rect width="512" height="512" fill="white"/>
</clipPath>
</defs>
</svg>
