<svg width="512" height="512" viewBox="0 0 512 512" fill="none" xmlns="http://www.w3.org/2000/svg">
<path d="M216 216H296V264H216V216Z" fill="#63818B"/>
<path d="M296 216V240C283.326 245.281 269.731 248 256 248C242.269 248 228.674 245.281 216 240V216H296Z" fill="#516E78"/>
<path d="M360 128C360 148.569 353.901 168.677 342.473 185.779C331.045 202.882 314.803 216.212 295.799 224.083C276.796 231.955 255.885 234.015 235.711 230.002C215.537 225.989 197.006 216.084 182.461 201.539C167.916 186.994 158.011 168.463 153.998 148.289C149.986 128.115 152.045 107.204 159.917 88.2009C167.788 69.1974 181.118 52.9548 198.221 41.5271C215.323 30.0995 235.431 24 256 24C269.659 23.9937 283.186 26.6794 295.807 31.9037C308.427 37.1279 319.895 44.7883 329.553 54.4468C339.212 64.1054 346.872 75.5727 352.096 88.1934C357.321 100.814 360.006 114.341 360 128V128Z" fill="#1A6FB0"/>
<path d="M400 352H496V464H400V352Z" fill="#63818B"/>
<path d="M400 352V464V488H352V464V352V328H400V352Z" fill="#516E78"/>
<path d="M320 352H352V464H320V352Z" fill="#63818B"/>
<path d="M336.96 271.04C340.312 274.396 342.595 278.671 343.519 283.324C344.443 287.976 343.968 292.799 342.153 297.182C340.338 301.564 337.266 305.311 333.323 307.949C329.38 310.586 324.744 311.996 320 312H192C185.635 312 179.53 309.471 175.029 304.971C170.529 300.47 168 294.365 168 288C168 281.635 170.529 275.53 175.029 271.029C179.53 266.529 185.635 264 192 264H320C323.151 264 326.271 264.621 329.182 265.83C332.092 267.038 334.735 268.808 336.96 271.04Z" fill="#425B63"/>
<path d="M320 352V464H192V352V312H320V352Z" fill="#63818B"/>
<path d="M250.32 133.68C248.833 132.163 248 130.124 248 128C248 126.418 248.469 124.871 249.348 123.555C250.227 122.24 251.477 121.214 252.939 120.609C254.4 120.003 256.009 119.845 257.561 120.154C259.113 120.462 260.538 121.224 261.657 122.343C262.776 123.462 263.538 124.887 263.846 126.439C264.155 127.991 263.997 129.6 263.391 131.061C262.786 132.523 261.76 133.773 260.445 134.652C259.129 135.531 257.582 136 256 136C253.876 136 251.837 135.167 250.32 133.68V133.68Z" fill="#1A6FB0"/>
<path d="M160 352H192V464H160V352Z" fill="#63818B"/>
<path d="M160 464V488H112V464V352V328H160V352V464Z" fill="#516E78"/>
<path d="M117 328H154V344H117V328Z" fill="#425B63"/>
<path d="M117 328H154V344H117V328Z" fill="#425B63"/>
<path d="M360 328H397V344H360V328Z" fill="#425B63"/>
<path d="M360 328H397V344H360V328Z" fill="#425B63"/>
<path d="M248 429H280V445H248V429Z" fill="#425B63"/>
<path d="M248 429H280V445H248V429Z" fill="#425B63"/>
<path d="M440 380H472V396H440V380Z" fill="#425B63"/>
<path d="M440 380H472V396H440V380Z" fill="#425B63"/>
<path d="M16 352H112V464H16V352Z" fill="#63818B"/>
<path d="M256 200C295.765 200 328 167.765 328 128C328 88.2355 295.765 56 256 56C216.235 56 184 88.2355 184 128C184 167.765 216.235 200 256 200Z" fill="#5AAAE7"/>
<path d="M192 312H320V328H192V312Z" fill="#516E78"/>
<path d="M16 352H195V368H16V352Z" fill="#516E78"/>
<path d="M313 352H492V368H313V352Z" fill="#516E78"/>
<path d="M40 380H56V396H40V380Z" fill="#425B63"/>
<path d="M40 380H56V396H40V380Z" fill="#425B63"/>
<path d="M216 429H232V445H216V429Z" fill="#425B63"/>
<path d="M216 429H232V445H216V429Z" fill="#425B63"/>
<path d="M496 344.153H408V328.153C408 326.031 407.157 323.996 405.657 322.496C404.157 320.996 402.122 320.153 400 320.153H352C349.878 320.153 347.843 320.996 346.343 322.496C344.843 323.996 344 326.031 344 328.153V344.153H328V319.017C335.533 317.078 342.099 312.457 346.467 306.02C350.834 299.583 352.702 291.774 351.72 284.057C350.738 276.341 346.974 269.248 341.134 264.111C335.293 258.973 327.779 256.143 320 256.153H304V229.193C326.976 218.295 345.559 199.902 356.693 177.04C367.827 154.178 370.85 128.207 365.265 103.399C359.679 78.5909 345.818 56.4219 325.96 40.5378C306.102 24.6536 281.429 16 256 16C230.571 16 205.898 24.6536 186.04 40.5378C166.182 56.4219 152.321 78.5909 146.735 103.399C141.15 128.207 144.173 154.178 155.307 177.04C166.441 199.902 185.024 218.295 208 229.193V256.153H192C184.221 256.143 176.707 258.973 170.866 264.111C165.026 269.248 161.262 276.341 160.28 284.057C159.298 291.774 161.166 299.583 165.533 306.02C169.901 312.457 176.467 317.078 184 319.017V344.153H168V328.153C168 326.031 167.157 323.996 165.657 322.496C164.157 320.996 162.122 320.153 160 320.153H112C109.878 320.153 107.843 320.996 106.343 322.496C104.843 323.996 104 326.031 104 328.153V344.153H16C13.8783 344.153 11.8434 344.996 10.3431 346.496C8.84285 347.996 8 350.031 8 352.153V464.153C8 466.275 8.84285 468.309 10.3431 469.81C11.8434 471.31 13.8783 472.153 16 472.153H104V488.153C104 490.275 104.843 492.309 106.343 493.81C107.843 495.31 109.878 496.153 112 496.153H160C162.122 496.153 164.157 495.31 165.657 493.81C167.157 492.309 168 490.275 168 488.153V472.153H344V488.153C344 490.275 344.843 492.309 346.343 493.81C347.843 495.31 349.878 496.153 352 496.153H400C402.122 496.153 404.157 495.31 405.657 493.81C407.157 492.309 408 490.275 408 488.153V472.153H496C498.122 472.153 500.157 471.31 501.657 469.81C503.157 468.309 504 466.275 504 464.153V352.153C504 350.031 503.157 347.996 501.657 346.496C500.157 344.996 498.122 344.153 496 344.153ZM160 128.153C160 109.166 165.63 90.6053 176.179 74.8181C186.728 59.031 201.721 46.7265 219.262 39.4604C236.804 32.1944 256.106 30.2933 274.729 33.9975C293.351 37.7017 310.456 46.8448 323.882 60.2706C337.308 73.6965 346.451 90.802 350.155 109.424C353.86 128.046 351.958 147.349 344.692 164.891C337.426 182.432 325.122 197.425 309.335 207.974C293.548 218.523 274.987 224.153 256 224.153C230.548 224.125 206.146 214.002 188.148 196.005C170.151 178.007 160.028 153.605 160 128.153ZM224 235.433C244.869 241.726 267.131 241.726 288 235.433V256.153H224V235.433ZM176 288.153C176 283.909 177.686 279.84 180.686 276.839C183.687 273.839 187.757 272.153 192 272.153H320C324.243 272.153 328.313 273.839 331.314 276.839C334.314 279.84 336 283.909 336 288.153C336 292.396 334.314 296.466 331.314 299.467C328.313 302.467 324.243 304.153 320 304.153H192C187.757 304.153 183.687 302.467 180.686 299.467C177.686 296.466 176 292.396 176 288.153ZM24 456.153V360.153H104V456.153H24ZM152 480.153H120V336.153H152V480.153ZM168 360.153H184V456.153H168V360.153ZM200 352.153V320.153H256H312V456.153H200V352.153ZM328 456.153V360.153H344V456.153H328ZM392 480.153H360V336.153H392V480.153ZM488 456.153H408V360.153H488V456.153Z" fill="black"/>
<path d="M205.456 167.2C198.428 158.159 194.003 147.371 192.656 136H208V120H192.552C193.979 108.623 198.454 97.8429 205.504 88.8L216.4 99.696L227.712 88.384L216.8 77.504C225.843 70.4541 236.623 65.979 248 64.552V80H264V64.552C275.377 65.979 286.157 70.4541 295.2 77.504L284.288 88.4L295.6 99.712L306.496 88.8C313.546 97.8429 318.021 108.623 319.448 120H304V136H319.344C317.997 147.371 313.572 158.159 306.544 167.2L295.6 156.288L284.288 167.6L301.224 184.536C302.723 186.028 304.753 186.866 306.868 186.866C308.984 186.866 311.013 186.028 312.512 184.536C319.987 177.146 325.914 168.34 329.947 158.632C333.98 148.925 336.038 138.512 336 128C336 106.783 327.572 86.4344 312.569 71.4315C297.566 56.4285 277.217 48 256 48C234.783 48 214.434 56.4285 199.432 71.4315C184.429 86.4344 176 106.783 176 128C175.96 138.514 178.017 148.931 182.05 158.641C186.083 168.351 192.011 177.16 199.488 184.552C200.987 186.044 203.017 186.882 205.132 186.882C207.248 186.882 209.277 186.044 210.776 184.552L227.712 167.616L216.4 156.288L205.456 167.2Z" fill="black"/>
<path d="M256 144C259.165 144 262.258 143.062 264.889 141.304C267.52 139.545 269.571 137.047 270.782 134.123C271.993 131.199 272.31 127.982 271.693 124.879C271.075 121.775 269.551 118.924 267.314 116.686C265.076 114.449 262.225 112.925 259.121 112.307C256.018 111.69 252.801 112.007 249.877 113.218C246.953 114.429 244.455 116.48 242.696 119.111C240.938 121.742 240 124.836 240 128C240.019 129.383 240.221 130.758 240.6 132.088L226.344 146.344L237.656 157.656L251.912 143.4C253.242 143.779 254.617 143.981 256 144Z" fill="black"/>
<path d="M40 376H56V392H40V376Z" fill="black"/>
<path d="M216 424H232V440H216V424Z" fill="black"/>
<path d="M248 424H280V440H248V424Z" fill="black"/>
<path d="M440 376H472V392H440V376Z" fill="black"/>
<g clip-path="url(#clip0)">
<path d="M358.309 126.003C358.309 182.796 312.188 229.004 255.5 229.004C198.806 229.004 152.691 182.796 152.691 126.003C152.691 69.2095 198.806 23 255.5 23C312.188 23 358.309 69.2095 358.309 126.003V126.003Z" fill="#49C1E4"/>
<path d="M358.309 126.003C358.309 182.796 312.188 229.004 255.5 229.004V23C312.188 23 358.309 69.2095 358.309 126.003V126.003Z" fill="#2FA8CC"/>
<path d="M325.598 126.003C325.598 130.585 321.884 134.294 317.307 134.294C312.73 134.294 309.016 130.585 309.016 126.003C309.016 96.4251 285.004 72.3596 255.5 72.3596C225.989 72.3596 201.98 96.4251 201.98 126.003C201.98 130.585 198.264 134.294 193.689 134.294C189.111 134.294 185.398 130.585 185.398 126.003C185.398 87.277 216.841 55.7776 255.5 55.7776C294.152 55.7776 325.598 87.277 325.598 126.003Z" fill="white"/>
<path d="M263.791 97.8566V138.284C263.791 142.861 260.077 146.575 255.5 146.575C250.918 146.575 247.209 142.861 247.209 138.284V97.8566C247.209 93.2793 250.918 89.5656 255.5 89.5656C260.077 89.5656 263.791 93.2793 263.791 97.8566Z" fill="#FF6555"/>
<path d="M263.791 97.8566V138.284C263.791 142.861 260.077 146.575 255.5 146.575V89.5656C260.077 89.5656 263.791 93.2793 263.791 97.8566Z" fill="#F4493B"/>
<path d="M282.74 157.276C282.74 172.316 270.519 184.558 255.5 184.558C240.477 184.558 228.256 172.316 228.256 157.276C228.256 142.231 240.477 129.993 255.5 129.993C270.519 129.993 282.74 142.231 282.74 157.276Z" fill="#007DCC"/>
<path d="M255.5 184.558V129.993C270.519 129.993 282.739 142.231 282.739 157.276C282.739 172.316 270.519 184.558 255.5 184.558Z" fill="#005389"/>
<path d="M325.598 126.003C325.598 130.585 321.884 134.294 317.307 134.294C312.73 134.294 309.016 130.585 309.016 126.003C309.016 96.4251 285.004 72.3596 255.5 72.3596V55.7776C294.153 55.7776 325.598 87.277 325.598 126.003Z" fill="#EBEAF0"/>
</g>
<path d="M361 125.5C361 184.958 313.455 233 255 233C196.545 233 149 184.958 149 125.5C149 66.0421 196.545 18 255 18C313.455 18 361 66.0421 361 125.5Z" stroke="black" stroke-width="14"/>
<defs>
<clipPath id="clip0">
<rect width="283" height="283" fill="white" transform="translate(114 23)"/>
</clipPath>
</defs>
</svg>
