<svg width="512" height="512" viewBox="0 0 512 512" fill="none" xmlns="http://www.w3.org/2000/svg">
<g clip-path="url(#clip0)">
<g clip-path="url(#clip1)">
<mask id="mask0" mask-type="alpha" maskUnits="userSpaceOnUse" x="130" y="365" width="253" height="85">
<rect width="253" height="85" transform="matrix(-1 -8.74228e-08 -8.74228e-08 1 383 365)" fill="#C4C4C4"/>
</mask>
<g mask="url(#mask0)">
<path d="M273.787 465.934L243.771 465.934L243.771 442.54L273.787 442.54L273.787 465.934Z" fill="#532E2D"/>
<path d="M243.771 465.934L264.959 465.934L273.787 465.934L273.787 454.679L273.787 442.54L264.959 442.54L264.959 450.265C264.959 452.702 262.983 454.679 260.545 454.679L243.771 454.679L243.771 465.934Z" fill="#722521"/>
<path d="M320.576 403.034L336.025 403.034C340.901 403.034 344.854 399.082 344.854 394.206L344.854 332.409C344.854 327.533 340.901 323.581 336.025 323.581L320.576 323.581L316.162 363.087L320.576 403.034Z" fill="#722521"/>
<path d="M196.982 323.581L181.533 323.581C176.657 323.581 172.705 327.533 172.705 332.409L172.705 394.206C172.705 399.082 176.657 403.034 181.533 403.034L196.982 403.034L201.396 364.16L196.982 323.581Z" fill="#532E2D"/>
<path d="M223.467 425.104L223.467 436.14C223.467 441.015 227.419 444.968 232.295 444.968L285.264 444.968C290.139 444.968 294.092 441.015 294.092 436.14L294.092 425.104L258.779 420.69L223.467 425.104Z" fill="#532E2D"/>
<path d="M316.162 363.087L320.576 323.581L329.404 323.581L329.404 403.034L320.576 403.034L316.162 363.087Z" fill="#5A5555"/>
<path d="M188.154 403.034L188.154 323.581L196.982 323.581L201.396 364.159L196.982 403.034L188.154 403.034Z" fill="#5A5555"/>
<path d="M320.576 403.034L316.162 363.087L320.576 323.581L329.404 323.581L329.404 403.034L320.576 403.034Z" fill="#532E2D"/>
<path d="M283.057 433.932C284.275 433.932 285.264 434.921 285.264 436.14C285.264 441.017 281.313 444.968 276.436 444.968L285.264 444.968C290.139 444.968 294.092 441.015 294.092 436.14L294.092 433.932L294.092 425.104L289.457 423.118L285.264 425.104L223.467 425.104L223.467 433.932L283.057 433.932Z" fill="#491815"/>
<path d="M188.154 403.034L188.154 323.581L196.982 323.581L201.396 364.159L196.982 403.034L188.154 403.034Z" fill="#722521"/>
<path d="M298.506 425.104L219.053 425.104C206.864 425.104 196.982 415.223 196.982 403.034L196.982 323.581C196.982 311.392 206.864 301.511 219.053 301.511L298.506 301.511C310.695 301.511 320.576 311.392 320.576 323.581L320.576 403.034C320.576 415.223 310.695 425.104 298.506 425.104Z" fill="#532E2D"/>
<path d="M289.678 301.511L298.506 301.511C310.693 301.511 320.576 311.394 320.576 323.581L320.576 403.034C320.576 415.221 310.693 425.104 298.506 425.104L289.678 425.104C301.865 425.104 311.748 415.221 311.748 403.034L311.748 323.581C311.748 311.394 301.865 301.511 289.678 301.511Z" fill="#491815"/>
<mask id="path-14-outside-1" maskUnits="userSpaceOnUse" x="144" y="295.77" width="230" height="196" fill="black">
<rect fill="white" x="144" y="295.77" width="230" height="196"/>
<path d="M153.725 391.337L169.395 391.337L169.395 394.206C169.395 400.899 174.84 406.345 181.533 406.345L193.895 406.345C195.523 418.78 206.18 428.415 219.053 428.415L220.156 428.415L220.156 436.14C220.156 442.833 225.602 448.278 232.295 448.278L240.461 448.278L240.461 460.196L218.871 460.196C215.591 456.415 210.756 454.016 205.369 454.016C195.512 454.016 187.492 462.036 187.492 471.893C187.492 481.751 195.512 489.77 205.369 489.77C210.756 489.77 215.59 487.372 218.871 483.591L298.688 483.591C301.968 487.372 306.803 489.77 312.189 489.77C314.018 489.77 315.5 488.289 315.5 486.46C315.5 484.631 314.018 483.149 312.189 483.149C305.983 483.149 300.934 478.1 300.934 471.893C300.934 465.687 305.983 460.638 312.189 460.638C318.396 460.638 323.445 465.687 323.445 471.893C323.445 473.397 323.154 474.856 322.581 476.228C321.876 477.915 322.672 479.855 324.359 480.56C326.047 481.266 327.985 480.469 328.69 478.782C329.603 476.596 330.066 474.278 330.066 471.893C330.066 462.036 322.047 454.016 312.189 454.016C306.803 454.016 301.968 456.415 298.688 460.196L277.098 460.196L277.098 448.278L285.264 448.278C291.957 448.278 297.402 442.833 297.402 436.14L297.402 428.415L298.506 428.415C311.379 428.415 322.035 418.78 323.664 406.345L336.025 406.345C342.718 406.345 348.164 400.899 348.164 394.206L348.164 391.337L364.275 391.337C368.535 391.337 372 387.871 372 383.612L372 342.561C372 338.302 368.535 334.837 364.275 334.837L348.164 334.837L348.164 332.409C348.164 325.716 342.718 320.27 336.025 320.27L323.664 320.27C322.036 307.835 311.379 298.2 298.506 298.2L219.053 298.2C206.18 298.2 195.523 307.835 193.895 320.27L181.533 320.27C174.84 320.27 169.395 325.716 169.395 332.409L169.395 334.837L153.725 334.837C149.465 334.837 146 338.302 146 342.561L146 383.612C146 387.871 149.465 391.337 153.725 391.337ZM205.369 483.149C199.163 483.149 194.113 478.1 194.113 471.893C194.113 465.687 199.163 460.638 205.369 460.638C211.576 460.638 216.625 465.687 216.625 471.893C216.625 478.1 211.576 483.149 205.369 483.149ZM295.051 476.97L222.508 476.97C223.485 473.777 223.485 470.009 222.508 466.817L295.051 466.817C294.073 470.01 294.073 473.777 295.051 476.97ZM270.477 460.196L247.082 460.196L247.082 448.278L270.477 448.278L270.477 460.196ZM341.543 332.409L341.543 363.307C341.543 365.136 343.025 366.618 344.854 366.618C346.682 366.618 348.164 365.136 348.164 363.307L348.164 341.458L364.275 341.458C364.884 341.458 365.379 341.953 365.379 342.561L365.379 383.612C365.379 384.221 364.884 384.716 364.275 384.716L348.164 384.716L348.164 378.977C348.164 377.149 346.682 375.667 344.854 375.667C343.025 375.667 341.543 377.149 341.543 378.977L341.543 394.206C341.543 397.249 339.068 399.724 336.025 399.723L323.887 399.723L323.887 326.891L336.025 326.891C339.068 326.891 341.543 329.366 341.543 332.409ZM219.053 304.821L298.506 304.821C308.85 304.821 317.266 313.237 317.266 323.581L317.266 403.034C317.266 413.378 308.85 421.794 298.506 421.794L279.746 421.794C277.917 421.794 276.436 423.276 276.436 425.104C276.436 426.933 277.917 428.415 279.746 428.415L290.781 428.415L290.781 436.14C290.781 439.182 288.306 441.657 285.264 441.657L232.295 441.657C229.252 441.657 226.777 439.182 226.777 436.14L226.777 428.415L264.297 428.415C266.126 428.415 267.607 426.933 267.607 425.104C267.607 423.276 266.126 421.794 264.297 421.794L219.053 421.794C208.708 421.794 200.293 413.378 200.293 403.034L200.293 323.581C200.293 313.237 208.708 304.821 219.053 304.821ZM176.016 332.409C176.016 329.366 178.491 326.891 181.533 326.891L193.672 326.891L193.672 399.723L181.533 399.723C178.491 399.723 176.016 397.249 176.016 394.206L176.016 332.409ZM152.621 342.561C152.621 341.953 153.116 341.458 153.725 341.458L169.395 341.458L169.395 384.716L153.725 384.716C153.116 384.716 152.621 384.221 152.621 383.612L152.621 342.561Z"/>
</mask>
<path d="M153.725 391.337L169.395 391.337L169.395 394.206C169.395 400.899 174.84 406.345 181.533 406.345L193.895 406.345C195.523 418.78 206.18 428.415 219.053 428.415L220.156 428.415L220.156 436.14C220.156 442.833 225.602 448.278 232.295 448.278L240.461 448.278L240.461 460.196L218.871 460.196C215.591 456.415 210.756 454.016 205.369 454.016C195.512 454.016 187.492 462.036 187.492 471.893C187.492 481.751 195.512 489.77 205.369 489.77C210.756 489.77 215.59 487.372 218.871 483.591L298.688 483.591C301.968 487.372 306.803 489.77 312.189 489.77C314.018 489.77 315.5 488.289 315.5 486.46C315.5 484.631 314.018 483.149 312.189 483.149C305.983 483.149 300.934 478.1 300.934 471.893C300.934 465.687 305.983 460.638 312.189 460.638C318.396 460.638 323.445 465.687 323.445 471.893C323.445 473.397 323.154 474.856 322.581 476.228C321.876 477.915 322.672 479.855 324.359 480.56C326.047 481.266 327.985 480.469 328.69 478.782C329.603 476.596 330.066 474.278 330.066 471.893C330.066 462.036 322.047 454.016 312.189 454.016C306.803 454.016 301.968 456.415 298.688 460.196L277.098 460.196L277.098 448.278L285.264 448.278C291.957 448.278 297.402 442.833 297.402 436.14L297.402 428.415L298.506 428.415C311.379 428.415 322.035 418.78 323.664 406.345L336.025 406.345C342.718 406.345 348.164 400.899 348.164 394.206L348.164 391.337L364.275 391.337C368.535 391.337 372 387.871 372 383.612L372 342.561C372 338.302 368.535 334.837 364.275 334.837L348.164 334.837L348.164 332.409C348.164 325.716 342.718 320.27 336.025 320.27L323.664 320.27C322.036 307.835 311.379 298.2 298.506 298.2L219.053 298.2C206.18 298.2 195.523 307.835 193.895 320.27L181.533 320.27C174.84 320.27 169.395 325.716 169.395 332.409L169.395 334.837L153.725 334.837C149.465 334.837 146 338.302 146 342.561L146 383.612C146 387.871 149.465 391.337 153.725 391.337ZM205.369 483.149C199.163 483.149 194.113 478.1 194.113 471.893C194.113 465.687 199.163 460.638 205.369 460.638C211.576 460.638 216.625 465.687 216.625 471.893C216.625 478.1 211.576 483.149 205.369 483.149ZM295.051 476.97L222.508 476.97C223.485 473.777 223.485 470.009 222.508 466.817L295.051 466.817C294.073 470.01 294.073 473.777 295.051 476.97ZM270.477 460.196L247.082 460.196L247.082 448.278L270.477 448.278L270.477 460.196ZM341.543 332.409L341.543 363.307C341.543 365.136 343.025 366.618 344.854 366.618C346.682 366.618 348.164 365.136 348.164 363.307L348.164 341.458L364.275 341.458C364.884 341.458 365.379 341.953 365.379 342.561L365.379 383.612C365.379 384.221 364.884 384.716 364.275 384.716L348.164 384.716L348.164 378.977C348.164 377.149 346.682 375.667 344.854 375.667C343.025 375.667 341.543 377.149 341.543 378.977L341.543 394.206C341.543 397.249 339.068 399.724 336.025 399.723L323.887 399.723L323.887 326.891L336.025 326.891C339.068 326.891 341.543 329.366 341.543 332.409ZM219.053 304.821L298.506 304.821C308.85 304.821 317.266 313.237 317.266 323.581L317.266 403.034C317.266 413.378 308.85 421.794 298.506 421.794L279.746 421.794C277.917 421.794 276.436 423.276 276.436 425.104C276.436 426.933 277.917 428.415 279.746 428.415L290.781 428.415L290.781 436.14C290.781 439.182 288.306 441.657 285.264 441.657L232.295 441.657C229.252 441.657 226.777 439.182 226.777 436.14L226.777 428.415L264.297 428.415C266.126 428.415 267.607 426.933 267.607 425.104C267.607 423.276 266.126 421.794 264.297 421.794L219.053 421.794C208.708 421.794 200.293 413.378 200.293 403.034L200.293 323.581C200.293 313.237 208.708 304.821 219.053 304.821ZM176.016 332.409C176.016 329.366 178.491 326.891 181.533 326.891L193.672 326.891L193.672 399.723L181.533 399.723C178.491 399.723 176.016 397.249 176.016 394.206L176.016 332.409ZM152.621 342.561C152.621 341.953 153.116 341.458 153.725 341.458L169.395 341.458L169.395 384.716L153.725 384.716C153.116 384.716 152.621 384.221 152.621 383.612L152.621 342.561Z" fill="black"/>
<path d="M153.725 391.337L169.395 391.337L169.395 394.206C169.395 400.899 174.84 406.345 181.533 406.345L193.895 406.345C195.523 418.78 206.18 428.415 219.053 428.415L220.156 428.415L220.156 436.14C220.156 442.833 225.602 448.278 232.295 448.278L240.461 448.278L240.461 460.196L218.871 460.196C215.591 456.415 210.756 454.016 205.369 454.016C195.512 454.016 187.492 462.036 187.492 471.893C187.492 481.751 195.512 489.77 205.369 489.77C210.756 489.77 215.59 487.372 218.871 483.591L298.688 483.591C301.968 487.372 306.803 489.77 312.189 489.77C314.018 489.77 315.5 488.289 315.5 486.46C315.5 484.631 314.018 483.149 312.189 483.149C305.983 483.149 300.934 478.1 300.934 471.893C300.934 465.687 305.983 460.638 312.189 460.638C318.396 460.638 323.445 465.687 323.445 471.893C323.445 473.397 323.154 474.856 322.581 476.228C321.876 477.915 322.672 479.855 324.359 480.56C326.047 481.266 327.985 480.469 328.69 478.782C329.603 476.596 330.066 474.278 330.066 471.893C330.066 462.036 322.047 454.016 312.189 454.016C306.803 454.016 301.968 456.415 298.688 460.196L277.098 460.196L277.098 448.278L285.264 448.278C291.957 448.278 297.402 442.833 297.402 436.14L297.402 428.415L298.506 428.415C311.379 428.415 322.035 418.78 323.664 406.345L336.025 406.345C342.718 406.345 348.164 400.899 348.164 394.206L348.164 391.337L364.275 391.337C368.535 391.337 372 387.871 372 383.612L372 342.561C372 338.302 368.535 334.837 364.275 334.837L348.164 334.837L348.164 332.409C348.164 325.716 342.718 320.27 336.025 320.27L323.664 320.27C322.036 307.835 311.379 298.2 298.506 298.2L219.053 298.2C206.18 298.2 195.523 307.835 193.895 320.27L181.533 320.27C174.84 320.27 169.395 325.716 169.395 332.409L169.395 334.837L153.725 334.837C149.465 334.837 146 338.302 146 342.561L146 383.612C146 387.871 149.465 391.337 153.725 391.337ZM205.369 483.149C199.163 483.149 194.113 478.1 194.113 471.893C194.113 465.687 199.163 460.638 205.369 460.638C211.576 460.638 216.625 465.687 216.625 471.893C216.625 478.1 211.576 483.149 205.369 483.149ZM295.051 476.97L222.508 476.97C223.485 473.777 223.485 470.009 222.508 466.817L295.051 466.817C294.073 470.01 294.073 473.777 295.051 476.97ZM270.477 460.196L247.082 460.196L247.082 448.278L270.477 448.278L270.477 460.196ZM341.543 332.409L341.543 363.307C341.543 365.136 343.025 366.618 344.854 366.618C346.682 366.618 348.164 365.136 348.164 363.307L348.164 341.458L364.275 341.458C364.884 341.458 365.379 341.953 365.379 342.561L365.379 383.612C365.379 384.221 364.884 384.716 364.275 384.716L348.164 384.716L348.164 378.977C348.164 377.149 346.682 375.667 344.854 375.667C343.025 375.667 341.543 377.149 341.543 378.977L341.543 394.206C341.543 397.249 339.068 399.724 336.025 399.723L323.887 399.723L323.887 326.891L336.025 326.891C339.068 326.891 341.543 329.366 341.543 332.409ZM219.053 304.821L298.506 304.821C308.85 304.821 317.266 313.237 317.266 323.581L317.266 403.034C317.266 413.378 308.85 421.794 298.506 421.794L279.746 421.794C277.917 421.794 276.436 423.276 276.436 425.104C276.436 426.933 277.917 428.415 279.746 428.415L290.781 428.415L290.781 436.14C290.781 439.182 288.306 441.657 285.264 441.657L232.295 441.657C229.252 441.657 226.777 439.182 226.777 436.14L226.777 428.415L264.297 428.415C266.126 428.415 267.607 426.933 267.607 425.104C267.607 423.276 266.126 421.794 264.297 421.794L219.053 421.794C208.708 421.794 200.293 413.378 200.293 403.034L200.293 323.581C200.293 313.237 208.708 304.821 219.053 304.821ZM176.016 332.409C176.016 329.366 178.491 326.891 181.533 326.891L193.672 326.891L193.672 399.723L181.533 399.723C178.491 399.723 176.016 397.249 176.016 394.206L176.016 332.409ZM152.621 342.561C152.621 341.953 153.116 341.458 153.725 341.458L169.395 341.458L169.395 384.716L153.725 384.716C153.116 384.716 152.621 384.221 152.621 383.612L152.621 342.561Z" stroke="black" stroke-width="4" mask="url(#path-14-outside-1)"/>
</g>
</g>
<path d="M121.939 303.312V388.712H91.415H91.3132V303.312H91.415H121.939Z" fill="#862924"/>
<path d="M392.062 303.312H422.586V388.712H392.062V303.312Z" fill="#862924"/>
<path d="M90.9758 301.712H424.419V315.082H90.9758V301.712Z" fill="#491815"/>
<path d="M389.27 388.712V400.912H124.729V388.712V303.312V291.112H226.577H287.625H389.27V303.312V388.712Z" fill="#BC3A33"/>
<path d="M419.825 309.4H389.291C383.664 309.4 379.116 306.673 379.116 303.3C379.116 299.927 383.664 297.2 389.291 297.2H419.825C425.452 297.2 430 299.927 430 303.3C430 306.673 425.452 309.4 419.825 309.4Z" fill="black"/>
<path d="M419.825 394.8H389.291C383.664 394.8 379.116 392.073 379.116 388.7C379.116 385.327 383.664 382.6 389.291 382.6H419.825C425.452 382.6 430 385.327 430 388.7C430 392.073 425.452 394.8 419.825 394.8Z" fill="black"/>
<path d="M124.709 309.4H94.1747C88.5481 309.4 84 306.673 84 303.3C84 299.927 88.5481 297.2 94.1747 297.2H124.709C130.335 297.2 134.884 299.927 134.884 303.3C134.884 306.673 130.335 309.4 124.709 309.4Z" fill="black"/>
<path d="M124.709 394.8H94.1747C88.5481 394.8 84 392.073 84 388.7C84 385.327 88.5481 382.6 94.1747 382.6H124.709C130.335 382.6 134.884 385.327 134.884 388.7C134.884 392.073 130.335 394.8 124.709 394.8Z" fill="black"/>
<path d="M130.04 290.014H379.774V303.384H130.04V290.014Z" fill="#862924"/>
<path d="M389.281 407H124.719C119.092 407 114.544 404.273 114.544 400.9V291.1C114.544 287.727 119.092 285 124.719 285H389.281C394.908 285 399.456 287.727 399.456 291.1V400.9C399.456 404.273 394.908 407 389.281 407ZM134.894 394.8H379.106V297.2H134.894V394.8Z" fill="black"/>
<path d="M107 251V287.75C100.663 295.837 93.8654 300 87 300C80.1346 300 73.3372 295.837 67 287.75V251H107Z" fill="#BC3A33"/>
<path d="M107 251V287.75C100.663 295.837 93.8654 300 87 300C80.1346 300 73.3372 295.837 67 287.75V251H107Z" fill="#BC3A33"/>
<path d="M108 245V257C101.346 259.641 94.2086 261 87 261C79.7914 261 72.6541 259.641 66 257V245H108Z" fill="#722521"/>
<path d="M87 84.2891C39.7491 84.2891 1.146 122.736 1.146 170.143C1.146 205.787 22.9824 236.425 53.9792 249.389V263.042C53.9792 271.651 59.5008 278.992 67.1876 281.718V303.107C67.1876 306.754 70.1445 309.711 73.7917 309.711H100.208C103.856 309.711 106.812 306.754 106.812 303.107V281.718C114.499 278.992 120.021 271.651 120.021 263.042V249.389C151.018 236.425 172.854 205.787 172.854 170.143C172.854 122.928 134.509 84.2891 87 84.2891ZM93.6042 296.503H80.3959V282.854H93.6042V296.503ZM106.812 263.042C106.812 266.683 103.85 269.646 100.208 269.646H73.7917C70.1502 269.646 67.1876 266.683 67.1876 263.042V253.686C73.55 255.195 80.1828 255.997 87 255.997C93.8173 255.997 100.45 255.194 106.812 253.686V263.042ZM87 242.789C49.1692 242.789 18.0055 213.72 14.6577 176.747H20.9585C24.6057 176.747 27.5626 173.79 27.5626 170.143C27.5626 166.496 24.6057 163.539 20.9585 163.539H14.6577C16.0234 148.459 22.0134 134.696 31.1993 123.682L35.632 128.115C38.2107 130.694 42.3929 130.694 44.9716 128.115C47.5508 125.536 47.5508 121.354 44.9716 118.775L40.5389 114.342C51.5524 105.156 65.3164 99.1665 80.3959 97.8007V104.102C80.3959 107.749 83.3528 110.706 87 110.706C90.6473 110.706 93.6042 107.749 93.6042 104.102V97.8007C108.684 99.1665 122.448 105.157 133.461 114.342L129.028 118.775C126.449 121.354 126.449 125.536 129.028 128.115C131.607 130.694 135.789 130.694 138.368 128.115L142.801 123.682C151.987 134.696 157.977 148.459 159.342 163.539H153.042C149.394 163.539 146.437 166.496 146.437 170.143C146.437 173.79 149.394 176.747 153.042 176.747H159.342C155.995 213.72 124.831 242.789 87 242.789Z" fill="black"/>
<path d="M94.3828 160.864V122.68C94.3828 118.602 91.0773 115.297 87 115.297C82.9227 115.297 79.6172 118.602 79.6172 122.68V160.864C71.0241 163.911 64.8516 172.117 64.8516 181.742C64.8516 193.955 74.7874 203.891 87 203.891C99.2126 203.891 109.148 193.955 109.148 181.742C109.148 172.117 102.976 163.911 94.3828 160.864ZM87 189.125C82.9291 189.125 79.6172 185.813 79.6172 181.742C79.6172 177.671 82.9291 174.359 87 174.359C91.0709 174.359 94.3828 177.671 94.3828 181.742C94.3828 185.813 91.0709 189.125 87 189.125Z" fill="black"/>
<path d="M101.766 218.656H72.2344C68.1571 218.656 64.8516 221.962 64.8516 226.039C64.8516 230.116 68.1571 233.422 72.2344 233.422H101.766C105.843 233.422 109.148 230.116 109.148 226.039C109.148 221.962 105.843 218.656 101.766 218.656Z" fill="black"/>
<g clip-path="url(#clip2)">
<path d="M160.862 169.342C160.862 210.145 127.726 243.342 86.9999 243.342C46.2686 243.342 13.1382 210.145 13.1382 169.342C13.1382 128.54 46.2686 95.3409 86.9999 95.3409C127.726 95.3409 160.862 128.54 160.862 169.342V169.342Z" fill="#49C1E4"/>
<path d="M160.862 169.342C160.862 210.145 127.727 243.342 87 243.342V95.3409C127.727 95.3409 160.862 128.54 160.862 169.342V169.342Z" fill="#2FA8CC"/>
<path d="M137.361 169.342C137.361 172.634 134.693 175.299 131.404 175.299C128.116 175.299 125.448 172.634 125.448 169.342C125.448 148.092 108.197 130.803 86.9999 130.803C65.7982 130.803 48.5489 148.092 48.5489 169.342C48.5489 172.634 45.8793 175.299 42.5923 175.299C39.3038 175.299 36.6357 172.634 36.6357 169.342C36.6357 141.52 59.2258 118.89 86.9999 118.89C114.769 118.89 137.361 141.52 137.361 169.342Z" fill="white"/>
<path d="M75.3192 147.315L88.4295 173.233C89.9139 176.167 88.7374 179.752 85.803 181.237C82.8657 182.722 79.2834 181.544 77.799 178.61L64.6887 152.693C63.2043 149.758 64.378 146.175 67.3152 144.689C70.2497 143.204 73.8348 144.381 75.3192 147.315Z" fill="#FF6555"/>
<path d="M106.57 191.81C106.57 202.615 97.7901 211.411 87 211.411C76.2068 211.411 67.427 202.615 67.427 191.81C67.427 181.001 76.2068 172.209 87 172.209C97.7901 172.209 106.57 181.001 106.57 191.81Z" fill="#007DCC"/>
<path d="M87 211.411V172.209C97.7901 172.209 106.57 181.001 106.57 191.81C106.57 202.615 97.7901 211.411 87 211.411Z" fill="#005389"/>
<path d="M137.361 169.342C137.361 172.634 134.693 175.299 131.405 175.299C128.116 175.299 125.448 172.634 125.448 169.342C125.448 148.092 108.197 130.803 87 130.803V118.89C114.769 118.89 137.361 141.52 137.361 169.342Z" fill="#EBEAF0"/>
</g>
<path d="M446 251V287.75C439.663 295.837 432.865 300 426 300C419.135 300 412.337 295.837 406 287.75V251H446Z" fill="#BC3A33"/>
<path d="M446 251V287.75C439.663 295.837 432.865 300 426 300C419.135 300 412.337 295.837 406 287.75V251H446Z" fill="#BC3A33"/>
<path d="M447 245V257C440.346 259.641 433.209 261 426 261C418.791 261 411.654 259.641 405 257V245H447Z" fill="#722521"/>
<path d="M426 84.2891C378.749 84.2891 340.146 122.736 340.146 170.143C340.146 205.787 361.982 236.425 392.979 249.389V263.042C392.979 271.651 398.501 278.992 406.188 281.718V303.107C406.188 306.754 409.144 309.711 412.792 309.711H439.208C442.856 309.711 445.812 306.754 445.812 303.107V281.718C453.499 278.992 459.021 271.651 459.021 263.042V249.389C490.018 236.425 511.854 205.787 511.854 170.143C511.854 122.928 473.509 84.2891 426 84.2891ZM432.604 296.503H419.396V282.854H432.604V296.503ZM445.812 263.042C445.812 266.683 442.85 269.646 439.208 269.646H412.792C409.15 269.646 406.188 266.683 406.188 263.042V253.686C412.55 255.195 419.183 255.997 426 255.997C432.817 255.997 439.45 255.194 445.812 253.686V263.042ZM426 242.789C388.169 242.789 357.006 213.72 353.658 176.747H359.958C363.606 176.747 366.563 173.79 366.563 170.143C366.563 166.496 363.606 163.539 359.958 163.539H353.658C355.023 148.459 361.013 134.696 370.199 123.682L374.632 128.115C377.211 130.694 381.393 130.694 383.972 128.115C386.551 125.536 386.551 121.354 383.972 118.775L379.539 114.342C390.552 105.156 404.316 99.1665 419.396 97.8007V104.102C419.396 107.749 422.353 110.706 426 110.706C429.647 110.706 432.604 107.749 432.604 104.102V97.8007C447.684 99.1665 461.448 105.157 472.461 114.342L468.028 118.775C465.449 121.354 465.449 125.536 468.028 128.115C470.607 130.694 474.789 130.694 477.368 128.115L481.801 123.682C490.987 134.696 496.977 148.459 498.342 163.539H492.042C488.394 163.539 485.437 166.496 485.437 170.143C485.437 173.79 488.394 176.747 492.042 176.747H498.342C494.995 213.72 463.831 242.789 426 242.789Z" fill="black"/>
<path d="M433.383 160.864V122.68C433.383 118.602 430.077 115.297 426 115.297C421.923 115.297 418.617 118.602 418.617 122.68V160.864C410.024 163.911 403.852 172.117 403.852 181.742C403.852 193.955 413.787 203.891 426 203.891C438.213 203.891 448.148 193.955 448.148 181.742C448.148 172.117 441.976 163.911 433.383 160.864ZM426 189.125C421.929 189.125 418.617 185.813 418.617 181.742C418.617 177.671 421.929 174.359 426 174.359C430.071 174.359 433.383 177.671 433.383 181.742C433.383 185.813 430.071 189.125 426 189.125Z" fill="black"/>
<path d="M440.766 218.656H411.234C407.157 218.656 403.852 221.962 403.852 226.039C403.852 230.116 407.157 233.422 411.234 233.422H440.766C444.843 233.422 448.148 230.116 448.148 226.039C448.148 221.962 444.843 218.656 440.766 218.656Z" fill="black"/>
<g clip-path="url(#clip3)">
<path d="M499.862 169.342C499.862 210.145 466.726 243.342 426 243.342C385.269 243.342 352.138 210.145 352.138 169.342C352.138 128.54 385.269 95.3409 426 95.3409C466.726 95.3409 499.862 128.54 499.862 169.342V169.342Z" fill="#49C1E4"/>
<path d="M499.862 169.342C499.862 210.145 466.727 243.342 426 243.342V95.3409C466.727 95.3409 499.862 128.54 499.862 169.342V169.342Z" fill="#2FA8CC"/>
<path d="M476.361 169.342C476.361 172.634 473.693 175.299 470.404 175.299C467.116 175.299 464.448 172.634 464.448 169.342C464.448 148.092 447.197 130.803 426 130.803C404.798 130.803 387.549 148.092 387.549 169.342C387.549 172.634 384.879 175.299 381.592 175.299C378.304 175.299 375.636 172.634 375.636 169.342C375.636 141.52 398.226 118.89 426 118.89C453.769 118.89 476.361 141.52 476.361 169.342Z" fill="white"/>
<path d="M444.365 154.673L431.319 180.623C429.842 183.561 426.26 184.746 423.322 183.269C420.381 181.791 419.198 178.21 420.675 175.272L433.721 149.322C435.198 146.384 438.777 145.197 441.718 146.675C444.656 148.152 445.842 151.735 444.365 154.673Z" fill="#FF6555"/>
<path d="M445.57 191.81C445.57 202.615 436.79 211.411 426 211.411C415.207 211.411 406.427 202.615 406.427 191.81C406.427 181.001 415.207 172.209 426 172.209C436.79 172.209 445.57 181.001 445.57 191.81Z" fill="#007DCC"/>
<path d="M426 211.411V172.209C436.79 172.209 445.57 181.001 445.57 191.81C445.57 202.615 436.79 211.411 426 211.411Z" fill="#005389"/>
<path d="M476.361 169.342C476.361 172.634 473.693 175.299 470.405 175.299C467.116 175.299 464.448 172.634 464.448 169.342C464.448 148.092 447.197 130.803 426 130.803V118.89C453.769 118.89 476.361 141.52 476.361 169.342Z" fill="#EBEAF0"/>
</g>
<path d="M87.0588 407.128V425.139H59.7788V389.116V299.058V263.035H87.0588V281.047V407.128Z" fill="#BC3A33"/>
<path d="M5.28693 389.116V425.139H-15.1731V263.035H5.28693V299.058V389.116Z" fill="#BC3A33"/>
<path d="M59.7787 389.116V425.139C59.7787 435.046 53.6407 443.151 46.1387 443.151H18.9269C11.4249 443.151 5.28687 435.046 5.28687 425.139V389.116H59.7787Z" fill="#862924"/>
<path d="M5 387H62V403H5V387Z" fill="#491815"/>
<path d="M5.28687 299.058H59.7787V389.116H5.28687V299.058Z" fill="#BC3A33"/>
<path d="M7 299H64V315H7V299Z" fill="#862924"/>
<path d="M59.7787 263.035V299.058H5.28687V263.035C5.28687 253.12 11.4249 245.024 18.9269 245.024H46.1387C53.6407 245.024 59.7787 253.12 59.7787 263.035Z" fill="#862924"/>
<path d="M4 245H61V261H4V245Z" fill="#491815"/>
<path d="M46.173 452.139H18.9339C7.65361 452.139 -1.52612 440.017 -1.52612 425.121V263.017C-1.52612 248.122 7.65361 236 18.9339 236H46.173C57.4533 236 66.633 248.122 66.633 263.017V425.121C66.633 440.017 57.4533 452.139 46.173 452.139ZM18.9339 254.012C15.1693 254.012 12.1139 258.046 12.1139 263.017V425.121C12.1139 430.092 15.1693 434.127 18.9339 434.127H46.173C49.9377 434.127 52.993 430.092 52.993 425.121V263.017C52.993 258.046 49.9377 254.012 46.173 254.012H18.9339Z" fill="black"/>
<path d="M59.813 308.046H5.29389C1.52242 308.046 -1.52612 304.021 -1.52612 299.04C-1.52612 294.06 1.52242 290.035 5.29389 290.035H59.813C63.5845 290.035 66.633 294.06 66.633 299.04C66.633 304.021 63.5845 308.046 59.813 308.046Z" fill="black"/>
<path d="M59.813 398.104H5.29389C1.52242 398.104 -1.52612 394.078 -1.52612 389.098C-1.52612 384.118 1.52242 380.092 5.29389 380.092H59.813C63.5845 380.092 66.633 384.118 66.633 389.098C66.633 394.078 63.5845 398.104 59.813 398.104Z" fill="black"/>
<path d="M5.29367 272.023H-15.18C-18.9515 272.023 -22 267.998 -22 263.017C-22 258.037 -18.9515 254.012 -15.18 254.012H5.29367C9.06514 254.012 12.1137 258.037 12.1137 263.017C12.1137 267.998 9.06514 272.023 5.29367 272.023Z" fill="black"/>
<path d="M5.29344 434.127H-15.1734C-18.9449 434.127 -21.9934 430.101 -21.9934 425.121C-21.9934 420.141 -18.9449 416.115 -15.1734 416.115H5.29344C9.06491 416.115 12.1135 420.141 12.1135 425.121C12.1135 430.101 9.06491 434.127 5.29344 434.127Z" fill="black"/>
<path d="M87.0998 434.127H59.7993C56.0278 434.127 52.9792 430.101 52.9792 425.121C52.9792 420.141 56.0278 416.115 59.7993 416.115H87.0998C90.8712 416.115 93.9198 420.141 93.9198 425.121C93.9198 430.101 90.8712 434.127 87.0998 434.127V434.127Z" fill="black"/>
<path d="M87.0929 272.023H59.7993C56.0278 272.023 52.9792 267.998 52.9792 263.017C52.9792 258.037 56.0278 254.012 59.7993 254.012H87.0929C90.8644 254.012 93.9129 258.037 93.9129 263.017C93.9129 267.998 90.8644 272.023 87.0929 272.023V272.023Z" fill="black"/>
<path d="M87.093 434.127C83.3215 434.127 80.2729 430.101 80.2729 425.121V263.017C80.2729 258.037 83.3215 254.012 87.093 254.012C90.8644 254.012 93.913 258.037 93.913 263.017V425.121C93.913 430.101 90.8644 434.127 87.093 434.127V434.127Z" fill="black"/>
<path d="M424.861 281.011L424.861 262.999L452.14 262.999L452.14 299.022L452.14 389.08L452.14 425.103L424.861 425.103L424.861 407.092L424.861 281.011Z" fill="#BC3A33"/>
<path d="M506.631 299.022L506.631 262.999L527.09 262.999L527.09 425.103L506.631 425.103L506.631 389.08L506.631 299.022Z" fill="#BC3A33"/>
<path d="M452.14 299.022L452.14 262.999C452.14 253.092 458.278 244.987 465.78 244.987L492.991 244.987C500.493 244.987 506.631 253.092 506.631 262.999L506.631 299.022L452.14 299.022Z" fill="#862924"/>
<path d="M506.631 389.08L452.14 389.08L452.14 299.022L506.631 299.022L506.631 389.08Z" fill="#BC3A33"/>
<path d="M452 299H509V315H452V299Z" fill="#862924"/>
<path d="M452.14 425.103L452.14 389.08L506.631 389.08L506.631 425.103C506.631 435.018 500.493 443.115 492.991 443.115L465.78 443.115C458.278 443.115 452.14 435.018 452.14 425.103Z" fill="#862924"/>
<path d="M448 388H505V404H448V388Z" fill="#491815"/>
<path d="M451 245H508V261H451V245Z" fill="#491815"/>
<path d="M465.746 236L492.984 236C504.264 236 513.443 248.122 513.443 263.017L513.443 425.121C513.443 440.017 504.264 452.139 492.984 452.139L465.746 452.139C454.466 452.139 445.286 440.017 445.286 425.121L445.286 263.017C445.286 248.122 454.466 236 465.746 236ZM492.984 434.127C496.748 434.127 499.804 430.092 499.804 425.121L499.804 263.017C499.804 258.046 496.748 254.012 492.984 254.012L465.746 254.012C461.981 254.012 458.926 258.046 458.926 263.017L458.926 425.121C458.926 430.092 461.981 434.127 465.746 434.127L492.984 434.127Z" fill="black"/>
<path d="M452.106 380.092L506.624 380.092C510.395 380.092 513.443 384.118 513.443 389.098C513.443 394.078 510.395 398.104 506.624 398.104L452.106 398.104C448.335 398.104 445.286 394.078 445.286 389.098C445.286 384.118 448.335 380.092 452.106 380.092Z" fill="black"/>
<path d="M452.106 290.034L506.624 290.034C510.395 290.034 513.443 294.06 513.443 299.04C513.443 304.02 510.395 308.046 506.624 308.046L452.106 308.046C448.335 308.046 445.286 304.02 445.286 299.04C445.286 294.06 448.335 290.034 452.106 290.034Z" fill="black"/>
<path d="M506.624 416.115L527.097 416.115C530.868 416.115 533.917 420.141 533.917 425.121C533.917 430.101 530.868 434.127 527.097 434.127L506.624 434.127C502.852 434.127 499.804 430.101 499.804 425.121C499.804 420.141 502.852 416.115 506.624 416.115Z" fill="black"/>
<path d="M506.624 254.011L527.09 254.011C530.861 254.011 533.91 258.037 533.91 263.017C533.91 267.997 530.861 272.023 527.09 272.023L506.624 272.023C502.852 272.023 499.804 267.997 499.804 263.017C499.804 258.037 502.852 254.011 506.624 254.011Z" fill="black"/>
<path d="M424.82 254.011L452.12 254.011C455.891 254.011 458.939 258.037 458.939 263.017C458.939 267.997 455.891 272.023 452.12 272.023L424.82 272.023C421.049 272.023 418 267.997 418 263.017C418 258.037 421.049 254.011 424.82 254.011V254.011Z" fill="black"/>
<path d="M424.827 416.115L452.12 416.115C455.891 416.115 458.939 420.141 458.939 425.121C458.939 430.101 455.891 434.127 452.12 434.127L424.827 434.127C421.055 434.127 418.007 430.101 418.007 425.121C418.007 420.141 421.055 416.115 424.827 416.115V416.115Z" fill="black"/>
<path d="M424.827 254.012C428.598 254.012 431.647 258.037 431.647 263.017L431.647 425.121C431.647 430.101 428.598 434.127 424.827 434.127C421.056 434.127 418.007 430.101 418.007 425.121L418.007 263.017C418.007 258.037 421.056 254.012 424.827 254.012V254.012Z" fill="black"/>
<g clip-path="url(#clip4)">
<mask id="mask1" mask-type="alpha" maskUnits="userSpaceOnUse" x="135" y="229" width="253" height="85">
<rect width="253" height="85" transform="matrix(1 0 0 -1 135 314)" fill="#C4C4C4"/>
</mask>
<g mask="url(#mask1)">
<path d="M244.213 213.066H274.229V236.46H244.213V213.066Z" fill="#532F2D"/>
<path d="M274.229 213.066H253.041H244.213V224.321V236.46H253.041V228.735C253.041 226.298 255.017 224.321 257.455 224.321H274.229V213.066Z" fill="#722521"/>
<path d="M197.424 275.966H181.975C177.099 275.966 173.146 279.918 173.146 284.794V346.591C173.146 351.467 177.099 355.419 181.975 355.419H197.424L201.838 315.913L197.424 275.966Z" fill="#722521"/>
<path d="M321.018 355.419H336.467C341.343 355.419 345.295 351.467 345.295 346.591V284.794C345.295 279.918 341.343 275.966 336.467 275.966H321.018L316.604 314.84L321.018 355.419Z" fill="#532F2D"/>
<path d="M294.533 253.896V242.86C294.533 237.985 290.581 234.032 285.705 234.032H232.736C227.861 234.032 223.908 237.985 223.908 242.86V253.896L259.221 258.31L294.533 253.896Z" fill="#532F2D"/>
<path d="M201.838 315.913L197.424 355.419H188.596V275.966H197.424L201.838 315.913Z" fill="#5A5555"/>
<path d="M329.846 275.966V355.419H321.018L316.604 314.841L321.018 275.966H329.846Z" fill="#5A5555"/>
<path d="M197.424 275.966L201.838 315.913L197.424 355.419H188.596V275.966H197.424Z" fill="#532F2D"/>
<path d="M234.943 245.068C233.725 245.068 232.736 244.079 232.736 242.86C232.736 237.983 236.687 234.032 241.564 234.032H232.736C227.861 234.032 223.908 237.985 223.908 242.86V245.068V253.896L228.543 255.882L232.736 253.896H294.533V245.068H234.943Z" fill="#491815"/>
<path d="M329.846 275.966V355.419H321.018L316.604 314.841L321.018 275.966H329.846Z" fill="#722521"/>
<path d="M219.494 253.896H298.947C311.136 253.896 321.018 263.777 321.018 275.966V355.419C321.018 367.608 311.136 377.489 298.947 377.489H219.494C207.305 377.489 197.424 367.608 197.424 355.419V275.966C197.424 263.777 207.305 253.896 219.494 253.896Z" fill="#532F2D"/>
<path d="M228.322 377.489H219.494C207.307 377.489 197.424 367.606 197.424 355.419V275.966C197.424 263.779 207.307 253.896 219.494 253.896H228.322C216.135 253.896 206.252 263.779 206.252 275.966V355.419C206.252 367.606 216.135 377.489 228.322 377.489Z" fill="#491815"/>
<mask id="path-94-outside-2" maskUnits="userSpaceOnUse" x="144" y="187.23" width="230" height="196" fill="black">
<rect fill="white" x="144" y="187.23" width="230" height="196"/>
<path d="M364.275 287.663H348.605V284.794C348.605 278.101 343.16 272.655 336.467 272.655H324.105C322.477 260.22 311.82 250.585 298.947 250.585H297.844V242.86C297.844 236.167 292.398 230.722 285.705 230.722H277.539V218.804H299.129C302.409 222.585 307.244 224.984 312.631 224.984C322.488 224.984 330.508 216.964 330.508 207.107C330.508 197.249 322.488 189.23 312.631 189.23C307.244 189.23 302.41 191.628 299.129 195.409H219.312C216.032 191.628 211.197 189.23 205.811 189.23C203.982 189.23 202.5 190.711 202.5 192.54C202.5 194.369 203.982 195.851 205.811 195.851C212.017 195.851 217.066 200.9 217.066 207.107C217.066 213.313 212.017 218.362 205.811 218.362C199.604 218.362 194.555 213.313 194.555 207.107C194.555 205.603 194.846 204.144 195.419 202.772C196.124 201.085 195.328 199.145 193.641 198.44C191.953 197.734 190.015 198.531 189.31 200.218C188.397 202.404 187.934 204.722 187.934 207.107C187.934 216.964 195.953 224.984 205.811 224.984C211.197 224.984 216.032 222.585 219.312 218.804H240.902V230.722H232.736C226.043 230.722 220.598 236.167 220.598 242.86V250.585H219.494C206.621 250.585 195.965 260.22 194.336 272.655H181.975C175.282 272.655 169.836 278.101 169.836 284.794V287.663H153.725C149.465 287.663 146 291.129 146 295.388V336.439C146 340.698 149.465 344.163 153.725 344.163H169.836V346.591C169.836 353.284 175.282 358.73 181.975 358.73H194.336C195.964 371.165 206.621 380.8 219.494 380.8H298.947C311.82 380.8 322.477 371.165 324.105 358.73H336.467C343.16 358.73 348.605 353.284 348.605 346.591V344.163H364.275C368.535 344.163 372 340.698 372 336.439V295.388C372 291.129 368.535 287.663 364.275 287.663ZM312.631 195.851C318.837 195.851 323.887 200.9 323.887 207.107C323.887 213.313 318.837 218.362 312.631 218.362C306.424 218.362 301.375 213.313 301.375 207.107C301.375 200.9 306.424 195.851 312.631 195.851ZM222.949 202.03H295.492C294.515 205.223 294.515 208.99 295.492 212.183H222.949C223.927 208.99 223.927 205.223 222.949 202.03ZM247.523 218.804H270.918V230.722H247.523V218.804ZM176.457 346.591V315.693C176.457 313.864 174.975 312.382 173.146 312.382C171.318 312.382 169.836 313.864 169.836 315.693V337.542H153.725C153.116 337.542 152.621 337.047 152.621 336.439V295.388C152.621 294.779 153.116 294.284 153.725 294.284H169.836V300.023C169.836 301.851 171.318 303.333 173.146 303.333C174.975 303.333 176.457 301.851 176.457 300.023V284.794C176.457 281.751 178.932 279.276 181.975 279.276H194.113V352.109H181.975C178.932 352.109 176.457 349.634 176.457 346.591ZM298.947 374.179H219.494C209.15 374.179 200.734 365.763 200.734 355.419V275.966C200.734 265.622 209.15 257.206 219.494 257.206H238.254C240.083 257.206 241.564 255.724 241.564 253.896C241.564 252.067 240.083 250.585 238.254 250.585H227.219V242.86C227.219 239.818 229.694 237.343 232.736 237.343H285.705C288.748 237.343 291.223 239.818 291.223 242.86V250.585H253.703C251.874 250.585 250.393 252.067 250.393 253.896C250.393 255.724 251.874 257.206 253.703 257.206H298.947C309.292 257.206 317.707 265.622 317.707 275.966V355.419C317.707 365.763 309.292 374.179 298.947 374.179ZM341.984 346.591C341.984 349.634 339.509 352.109 336.467 352.109H324.328V279.276H336.467C339.509 279.276 341.984 281.751 341.984 284.794V346.591ZM365.379 336.439C365.379 337.047 364.884 337.542 364.275 337.542H348.605V294.284H364.275C364.884 294.284 365.379 294.779 365.379 295.388V336.439Z"/>
</mask>
<path d="M364.275 287.663H348.605V284.794C348.605 278.101 343.16 272.655 336.467 272.655H324.105C322.477 260.22 311.82 250.585 298.947 250.585H297.844V242.86C297.844 236.167 292.398 230.722 285.705 230.722H277.539V218.804H299.129C302.409 222.585 307.244 224.984 312.631 224.984C322.488 224.984 330.508 216.964 330.508 207.107C330.508 197.249 322.488 189.23 312.631 189.23C307.244 189.23 302.41 191.628 299.129 195.409H219.312C216.032 191.628 211.197 189.23 205.811 189.23C203.982 189.23 202.5 190.711 202.5 192.54C202.5 194.369 203.982 195.851 205.811 195.851C212.017 195.851 217.066 200.9 217.066 207.107C217.066 213.313 212.017 218.362 205.811 218.362C199.604 218.362 194.555 213.313 194.555 207.107C194.555 205.603 194.846 204.144 195.419 202.772C196.124 201.085 195.328 199.145 193.641 198.44C191.953 197.734 190.015 198.531 189.31 200.218C188.397 202.404 187.934 204.722 187.934 207.107C187.934 216.964 195.953 224.984 205.811 224.984C211.197 224.984 216.032 222.585 219.312 218.804H240.902V230.722H232.736C226.043 230.722 220.598 236.167 220.598 242.86V250.585H219.494C206.621 250.585 195.965 260.22 194.336 272.655H181.975C175.282 272.655 169.836 278.101 169.836 284.794V287.663H153.725C149.465 287.663 146 291.129 146 295.388V336.439C146 340.698 149.465 344.163 153.725 344.163H169.836V346.591C169.836 353.284 175.282 358.73 181.975 358.73H194.336C195.964 371.165 206.621 380.8 219.494 380.8H298.947C311.82 380.8 322.477 371.165 324.105 358.73H336.467C343.16 358.73 348.605 353.284 348.605 346.591V344.163H364.275C368.535 344.163 372 340.698 372 336.439V295.388C372 291.129 368.535 287.663 364.275 287.663ZM312.631 195.851C318.837 195.851 323.887 200.9 323.887 207.107C323.887 213.313 318.837 218.362 312.631 218.362C306.424 218.362 301.375 213.313 301.375 207.107C301.375 200.9 306.424 195.851 312.631 195.851ZM222.949 202.03H295.492C294.515 205.223 294.515 208.99 295.492 212.183H222.949C223.927 208.99 223.927 205.223 222.949 202.03ZM247.523 218.804H270.918V230.722H247.523V218.804ZM176.457 346.591V315.693C176.457 313.864 174.975 312.382 173.146 312.382C171.318 312.382 169.836 313.864 169.836 315.693V337.542H153.725C153.116 337.542 152.621 337.047 152.621 336.439V295.388C152.621 294.779 153.116 294.284 153.725 294.284H169.836V300.023C169.836 301.851 171.318 303.333 173.146 303.333C174.975 303.333 176.457 301.851 176.457 300.023V284.794C176.457 281.751 178.932 279.276 181.975 279.276H194.113V352.109H181.975C178.932 352.109 176.457 349.634 176.457 346.591ZM298.947 374.179H219.494C209.15 374.179 200.734 365.763 200.734 355.419V275.966C200.734 265.622 209.15 257.206 219.494 257.206H238.254C240.083 257.206 241.564 255.724 241.564 253.896C241.564 252.067 240.083 250.585 238.254 250.585H227.219V242.86C227.219 239.818 229.694 237.343 232.736 237.343H285.705C288.748 237.343 291.223 239.818 291.223 242.86V250.585H253.703C251.874 250.585 250.393 252.067 250.393 253.896C250.393 255.724 251.874 257.206 253.703 257.206H298.947C309.292 257.206 317.707 265.622 317.707 275.966V355.419C317.707 365.763 309.292 374.179 298.947 374.179ZM341.984 346.591C341.984 349.634 339.509 352.109 336.467 352.109H324.328V279.276H336.467C339.509 279.276 341.984 281.751 341.984 284.794V346.591ZM365.379 336.439C365.379 337.047 364.884 337.542 364.275 337.542H348.605V294.284H364.275C364.884 294.284 365.379 294.779 365.379 295.388V336.439Z" fill="black"/>
<path d="M364.275 287.663H348.605V284.794C348.605 278.101 343.16 272.655 336.467 272.655H324.105C322.477 260.22 311.82 250.585 298.947 250.585H297.844V242.86C297.844 236.167 292.398 230.722 285.705 230.722H277.539V218.804H299.129C302.409 222.585 307.244 224.984 312.631 224.984C322.488 224.984 330.508 216.964 330.508 207.107C330.508 197.249 322.488 189.23 312.631 189.23C307.244 189.23 302.41 191.628 299.129 195.409H219.312C216.032 191.628 211.197 189.23 205.811 189.23C203.982 189.23 202.5 190.711 202.5 192.54C202.5 194.369 203.982 195.851 205.811 195.851C212.017 195.851 217.066 200.9 217.066 207.107C217.066 213.313 212.017 218.362 205.811 218.362C199.604 218.362 194.555 213.313 194.555 207.107C194.555 205.603 194.846 204.144 195.419 202.772C196.124 201.085 195.328 199.145 193.641 198.44C191.953 197.734 190.015 198.531 189.31 200.218C188.397 202.404 187.934 204.722 187.934 207.107C187.934 216.964 195.953 224.984 205.811 224.984C211.197 224.984 216.032 222.585 219.312 218.804H240.902V230.722H232.736C226.043 230.722 220.598 236.167 220.598 242.86V250.585H219.494C206.621 250.585 195.965 260.22 194.336 272.655H181.975C175.282 272.655 169.836 278.101 169.836 284.794V287.663H153.725C149.465 287.663 146 291.129 146 295.388V336.439C146 340.698 149.465 344.163 153.725 344.163H169.836V346.591C169.836 353.284 175.282 358.73 181.975 358.73H194.336C195.964 371.165 206.621 380.8 219.494 380.8H298.947C311.82 380.8 322.477 371.165 324.105 358.73H336.467C343.16 358.73 348.605 353.284 348.605 346.591V344.163H364.275C368.535 344.163 372 340.698 372 336.439V295.388C372 291.129 368.535 287.663 364.275 287.663ZM312.631 195.851C318.837 195.851 323.887 200.9 323.887 207.107C323.887 213.313 318.837 218.362 312.631 218.362C306.424 218.362 301.375 213.313 301.375 207.107C301.375 200.9 306.424 195.851 312.631 195.851ZM222.949 202.03H295.492C294.515 205.223 294.515 208.99 295.492 212.183H222.949C223.927 208.99 223.927 205.223 222.949 202.03ZM247.523 218.804H270.918V230.722H247.523V218.804ZM176.457 346.591V315.693C176.457 313.864 174.975 312.382 173.146 312.382C171.318 312.382 169.836 313.864 169.836 315.693V337.542H153.725C153.116 337.542 152.621 337.047 152.621 336.439V295.388C152.621 294.779 153.116 294.284 153.725 294.284H169.836V300.023C169.836 301.851 171.318 303.333 173.146 303.333C174.975 303.333 176.457 301.851 176.457 300.023V284.794C176.457 281.751 178.932 279.276 181.975 279.276H194.113V352.109H181.975C178.932 352.109 176.457 349.634 176.457 346.591ZM298.947 374.179H219.494C209.15 374.179 200.734 365.763 200.734 355.419V275.966C200.734 265.622 209.15 257.206 219.494 257.206H238.254C240.083 257.206 241.564 255.724 241.564 253.896C241.564 252.067 240.083 250.585 238.254 250.585H227.219V242.86C227.219 239.818 229.694 237.343 232.736 237.343H285.705C288.748 237.343 291.223 239.818 291.223 242.86V250.585H253.703C251.874 250.585 250.393 252.067 250.393 253.896C250.393 255.724 251.874 257.206 253.703 257.206H298.947C309.292 257.206 317.707 265.622 317.707 275.966V355.419C317.707 365.763 309.292 374.179 298.947 374.179ZM341.984 346.591C341.984 349.634 339.509 352.109 336.467 352.109H324.328V279.276H336.467C339.509 279.276 341.984 281.751 341.984 284.794V346.591ZM365.379 336.439C365.379 337.047 364.884 337.542 364.275 337.542H348.605V294.284H364.275C364.884 294.284 365.379 294.779 365.379 295.388V336.439Z" stroke="black" stroke-width="4" mask="url(#path-94-outside-2)"/>
</g>
<g clip-path="url(#clip5)">
<path d="M243.5 218.5H274.5V230.125H243.5V218.5Z" fill="#722521"/>
<path d="M277.426 216.778H274.228H248.123H243.228C240.52 216.778 238.333 213.086 238.333 208.512C238.333 203.938 240.52 200.246 243.228 200.246H254.649H267.702H275.762L303.857 163.436C303.89 163.375 303.923 163.32 303.988 163.27C304.119 163.105 304.282 162.94 304.412 162.829C304.543 162.664 304.673 162.554 304.804 162.444C304.967 162.333 305.097 162.223 305.261 162.168C305.427 162.058 305.59 161.948 305.75 161.893C305.881 161.837 306.011 161.837 306.142 161.777C306.337 161.722 306.533 161.722 306.696 161.722C306.762 161.667 306.794 161.667 306.86 161.667H357.439C360.147 161.667 362.333 165.359 362.333 169.932C362.333 174.506 360.147 178.198 357.439 178.198H308.524L280.428 215.069C280.392 215.069 280.359 215.125 280.33 215.125C279.971 215.621 279.547 216.006 279.09 216.282C279.022 216.337 278.927 216.337 278.829 216.392C278.405 216.612 277.915 216.778 277.459 216.778C277.426 216.778 277.426 216.778 277.426 216.778Z" fill="#ED1C24"/>
<path d="M266.75 187.143V198.264H251.25V186.639H266.75V187.143Z" fill="#722521"/>
<path d="M274.5 230.125H278.297L289.884 245.625V261.125H227.845V245.625L239.547 230.125H243.5H274.5Z" fill="#E6E9ED"/>
<path d="M227.872 249.504C227.058 249.504 226.241 249.252 225.539 248.721C223.834 247.435 223.493 245.005 224.784 243.296L236.475 227.804C237.761 226.095 240.191 225.75 241.9 227.048C243.605 228.335 243.946 230.764 242.655 232.473L230.964 247.966C230.205 248.973 229.05 249.504 227.872 249.504V249.504Z" fill="black"/>
<path d="M289.891 249.504C288.71 249.504 287.547 248.965 286.784 247.95L275.213 232.458C273.93 230.745 274.283 228.315 275.996 227.037C277.712 225.75 280.138 226.107 281.417 227.819L292.988 243.312C294.27 245.024 293.918 247.454 292.205 248.733C291.511 249.256 290.697 249.504 289.891 249.504V249.504Z" fill="black"/>
<path d="M278.313 234.012H239.563C237.42 234.012 235.688 232.279 235.688 230.137C235.688 227.994 237.42 226.262 239.563 226.262H278.313C280.456 226.262 282.188 227.994 282.188 230.137C282.188 232.279 280.456 234.012 278.313 234.012Z" fill="black"/>
<path d="M277.391 221.939H243.069C238.557 221.939 234.889 216.148 234.889 209.025C234.889 201.901 238.557 196.11 243.069 196.11H274.58L301.863 162.651C301.961 162.533 302.109 162.372 302.233 162.259C302.442 162.026 302.619 161.861 302.799 161.696C303.025 161.489 303.26 161.282 303.496 161.117C303.702 160.967 303.944 160.823 304.193 160.694C304.536 160.508 304.775 160.384 305.017 160.296C305.286 160.203 305.498 160.156 305.708 160.11C305.993 160.043 306.241 160.001 306.487 159.981C306.621 159.96 306.771 159.944 306.879 159.944H357.597C362.11 159.944 365.778 165.735 365.778 172.859C365.778 179.983 362.11 185.773 357.597 185.773H309.68L282.397 219.232C282.292 219.356 282.171 219.491 282.047 219.604C281.576 220.147 280.905 220.715 280.185 221.139C280.116 221.18 279.884 221.294 279.812 221.33C278.909 221.753 278.153 221.934 277.417 221.944C277.407 221.939 277.397 221.939 277.391 221.939ZM243.069 206.442C242.169 206.442 241.433 207.604 241.433 209.025C241.433 210.445 242.169 211.608 243.069 211.608H277.374C277.492 211.603 277.656 211.556 277.855 211.463C278.075 211.349 278.212 211.231 278.327 211.096C278.402 211.008 278.487 210.921 278.572 210.838L306.552 176.522C307.125 175.819 307.835 175.437 308.558 175.437H357.597C358.497 175.437 359.234 174.274 359.234 172.854C359.234 171.433 358.497 170.271 357.597 170.271H307.056C307.017 170.276 306.984 170.281 306.955 170.286L306.617 170.338L306.294 170.472L305.993 170.7C305.927 170.777 305.842 170.87 305.754 170.963L277.708 205.357C277.136 206.06 276.425 206.442 275.702 206.442H243.069Z" fill="black"/>
<path d="M243.5 234.012C241.357 234.012 239.625 232.28 239.625 230.137V218.504C239.625 216.361 241.357 214.629 243.5 214.629C245.643 214.629 247.375 216.361 247.375 218.504V230.137C247.375 232.28 245.643 234.012 243.5 234.012Z" fill="black"/>
<path d="M274.5 234.012C272.357 234.012 270.625 232.28 270.625 230.137V218.504C270.625 216.361 272.357 214.629 274.5 214.629C276.643 214.629 278.375 216.361 278.375 218.504V230.137C278.375 232.28 276.643 234.012 274.5 234.012Z" fill="black"/>
<path d="M251.254 203.865C249.111 203.865 247.379 202.133 247.379 199.99V188.365C247.379 186.222 249.111 184.49 251.254 184.49C253.397 184.49 255.129 186.222 255.129 188.365V199.99C255.129 202.133 253.397 203.865 251.254 203.865Z" fill="black"/>
<path d="M266.75 192.24H251.254C249.111 192.24 247.379 190.508 247.379 188.365C247.379 186.222 249.111 184.49 251.254 184.49H266.75C268.893 184.49 270.625 186.222 270.625 188.365C270.625 190.508 268.893 192.24 266.75 192.24Z" fill="black"/>
<path d="M266.75 203.865C264.607 203.865 262.875 202.133 262.875 199.99V188.845C262.875 186.703 264.607 184.97 266.75 184.97C268.893 184.97 270.625 186.703 270.625 188.845V199.99C270.625 202.133 268.893 203.865 266.75 203.865Z" fill="black"/>
</g>
</g>
<path d="M299 357H356V368H299V357Z" fill="#862924"/>
<path d="M299 357H356V368H299V357Z" fill="#862924"/>
<path d="M259 357H275V368H259V357Z" fill="#862924"/>
<path d="M259 357H275V368H259V357Z" fill="#862924"/>
<path d="M259 353H275V364H259V353Z" fill="black"/>
<path d="M299 353H356V364H299V353Z" fill="black"/>
</g>
<defs>
<clipPath id="clip0">
<rect width="512" height="512" fill="white"/>
</clipPath>
<clipPath id="clip1">
<rect width="226" height="226" fill="white" transform="translate(372 617) rotate(-180)"/>
</clipPath>
<clipPath id="clip2">
<rect width="203.318" height="203.318" fill="white" transform="translate(-14.6592 95.3409)"/>
</clipPath>
<clipPath id="clip3">
<rect width="203.318" height="203.318" fill="white" transform="translate(324.341 95.3409)"/>
</clipPath>
<clipPath id="clip4">
<rect width="226" height="226" fill="white" transform="translate(146 62)"/>
</clipPath>
<clipPath id="clip5">
<rect width="248" height="248" fill="white" transform="translate(135 -14)"/>
</clipPath>
</defs>
</svg>
