<svg width="512" height="512" viewBox="0 0 512 512" fill="none" xmlns="http://www.w3.org/2000/svg">
<g clip-path="url(#clip0)">
<g clip-path="url(#clip1)">
<g clip-path="url(#clip2)">
<path d="M9.63186 223.332V410.511C9.63186 413.103 11.543 415.208 13.8971 415.208H49.3406C51.6948 415.208 53.6059 413.103 53.6059 410.511V242.683H152.516V194.259H36.0335C21.4555 194.259 9.63186 207.279 9.63186 223.332V223.332Z" fill="#A49CA7"/>
<path d="M60.2709 195.117H141.329V244.824H60.2709V195.117Z" fill="#766D78"/>
<path d="M36.3596 186.803H98.6024V144.581C98.6024 133.511 106.541 124.505 116.299 124.505C124.707 124.505 145.467 124.505 153.977 124.505V107.291C153.977 95.3282 162.556 85.5959 173.102 85.5959H188.066L175.544 39.732C161.29 40.3997 149.57 27.4302 149.57 11.4775C149.57 -4.11821 160.755 -16.8069 174.503 -16.8069C199.395 -16.8069 208.909 20.3493 187.72 35.4433L201.414 85.5949H227.042C236.037 85.5949 243.908 92.8447 245.758 102.833C245.848 103.322 245.894 103.821 245.894 104.321V124.504H278.337V106.364C278.337 97.996 284.339 91.1871 291.716 91.1871H292.888L292.892 81.9516C284.839 81.7558 278.337 74.2782 278.337 65.0958V50.0288C278.337 40.8464 284.839 33.3689 292.892 33.173V-2.34195C292.892 -23.2742 307.903 -40.3047 326.356 -40.3047H370.307C373.828 -40.3047 376.681 -37.0667 376.681 -33.0732C376.681 -29.0797 373.827 -25.8417 370.307 -25.8417H326.355C314.933 -25.8417 305.641 -15.2998 305.641 -2.34291V33.1556H337.923V18.0134C337.923 14.0189 340.777 10.7819 344.298 10.7819H426.116V-25.8407H395.806C392.284 -25.8407 389.431 -29.0787 389.431 -33.0722C389.431 -37.0657 392.284 -40.3037 395.806 -40.3037H432.49C436.011 -40.3037 438.865 -37.0657 438.865 -33.0722V18.0134C438.865 22.0078 436.01 25.2449 432.49 25.2449H350.672V33.1749C358.725 33.3708 365.226 40.8493 365.226 50.0307V65.0977C365.226 74.2792 358.725 81.7577 350.672 81.9536L350.669 91.1891H351.842C359.218 91.1891 365.22 97.998 365.22 106.366V124.506H384.403C394.161 124.506 402.099 133.512 402.099 144.582V146.983L430.508 154.305C433.41 155.053 435.47 157.98 435.47 161.357V264.83C435.47 268.206 433.411 271.133 430.509 271.881L402.099 279.212V281.612C402.099 292.681 394.161 301.687 384.403 301.687H378.939V328.509H391.805C395.326 328.509 398.179 331.747 398.179 335.74C398.179 339.735 395.325 342.972 391.805 342.972H107.867C106.695 342.972 105.742 344.053 105.742 345.382V370.005C119.211 367.274 133.314 370.104 145.467 378.506C159.716 388.358 177.42 388.359 191.669 378.506C210.012 365.824 232.8 365.823 251.143 378.506C265.392 388.358 283.096 388.359 297.345 378.506C315.688 365.824 338.476 365.823 356.819 378.506C371.068 388.359 388.772 388.359 403.021 378.506L426.383 362.353V342.972H417.304C413.783 342.972 410.929 339.734 410.929 335.74C410.929 331.747 413.783 328.509 417.304 328.509H432.759C436.28 328.509 439.133 331.747 439.133 335.74V429.86C439.133 433.853 436.279 437.091 432.759 437.091H10.0537C6.53262 437.091 3.67923 433.853 3.67923 429.86C3.67923 344.465 3.67923 316 3.67923 223.878C3.67838 203.435 18.3392 186.803 36.3596 186.803ZM174.502 -2.34194C167.784 -2.34194 162.318 3.85815 162.318 11.4785C162.318 19.0988 167.784 25.2999 174.502 25.2999C181.219 25.2999 186.684 19.0998 186.684 11.4785C186.684 3.85719 181.219 -2.34194 174.502 -2.34194ZM402.098 264.379L422.72 259.058V167.131L402.098 161.816V264.379ZM233.144 105.205C232.339 102.19 229.856 100.06 227.041 100.06H173.103C169.588 100.06 166.728 103.304 166.728 107.291V124.505H233.144V105.205ZM352.477 65.0977V50.0307C352.477 48.7012 351.524 47.6206 350.352 47.6206H293.212C292.04 47.6206 291.087 48.7022 291.087 50.0307V65.0977C291.087 66.4273 292.041 67.5079 293.212 67.5079H350.352C351.524 67.5089 352.477 66.4273 352.477 65.0977ZM305.641 81.9719L305.637 91.1891H337.92L337.923 81.9719H305.641ZM352.471 106.366C352.471 105.973 352.189 105.653 351.842 105.653H291.716C291.369 105.653 291.087 105.973 291.087 106.366V124.506H352.472V106.366H352.471ZM352.474 138.969H148.228V287.223H352.474V138.969ZM384.403 287.223C387.13 287.223 389.349 284.706 389.349 281.612V144.582C389.349 141.487 387.13 138.97 384.403 138.97H365.223V287.224C369.655 287.223 380.097 287.223 384.403 287.223ZM129.788 328.509H366.189V301.687H129.789V328.509H129.788ZM123.413 287.219C123.438 287.219 123.462 287.223 123.487 287.223H135.478V138.969H116.299C113.571 138.969 111.352 141.486 111.352 144.581V281.612C111.352 284.706 113.571 287.223 116.299 287.223H123.339C123.364 287.223 123.388 287.219 123.413 287.219ZM16.4282 422.628C24.405 422.628 417.104 422.628 426.384 422.628V379.291L409.658 390.857C391.315 403.54 368.527 403.54 350.184 390.857C335.935 381.005 318.231 381.004 303.982 390.857C285.638 403.54 262.851 403.54 244.508 390.857C230.259 381.005 212.555 381.004 198.305 390.857C179.962 403.54 157.175 403.54 138.832 390.857C124.291 380.802 106.563 381.222 92.6294 390.857C74.2867 403.539 51.4976 403.539 33.1558 390.857L16.429 379.291C16.4282 389.476 16.4282 400.885 16.4282 422.628ZM16.4282 362.353C41.7637 379.87 42.2433 380.526 47.4943 382.742V340.041C47.4943 336.047 50.3486 332.809 53.8688 332.809C57.389 332.809 60.2433 336.047 60.2433 340.041V385.8C76.8042 386.931 90.504 374.007 98.6024 370.005V345.382C98.6024 336.078 99.6655 328.509 107.867 328.509H117.038V301.687C105.69 301.687 98.6024 291.991 98.6024 281.612V250.973H60.2433V311.113C60.2433 315.106 57.389 318.344 53.8688 318.344C50.3486 318.344 47.4943 315.106 47.4943 311.113V243.741C47.4943 239.748 50.3486 236.51 53.8688 236.51H98.6024V201.267H36.3596C25.3686 201.267 16.4273 211.411 16.4273 223.878V362.353H16.4282Z" fill="black"/>
</g>
<g clip-path="url(#clip3)">
<path d="M502.061 222.261V409.44C502.061 412.032 500.176 414.137 497.853 414.137H462.888C460.565 414.137 458.68 412.032 458.68 409.44V241.612H361.104V193.188H476.015C490.397 193.188 502.061 206.208 502.061 222.261V222.261Z" fill="#A49CA7"/>
<path d="M361.196 192.965H442.254V242.672H361.196V192.965Z" fill="#766D78"/>
<path d="M144.024 277.121H389.812V334.669H144.024V277.121Z" fill="#766D78"/>
<path d="M144.024 277.123H173.372V334.669H144.024V277.123Z" fill="#655E67"/>
<path d="M139.366 277.121L91.516 264.614C89.6072 264.115 88.2531 262.163 88.2531 259.912V164.139C88.2531 161.888 89.6072 159.937 91.516 159.437L139.366 146.93V277.121Z" fill="#A49CA7"/>
<path d="M157.555 130.667H371.623V293.384H157.555V130.667Z" fill="#55B56A"/>
<path d="M157.555 293.384H132.345C126.176 293.384 121.176 287.634 121.176 280.541V143.51C121.176 136.417 126.176 130.667 132.345 130.667H157.554L157.555 293.384Z" fill="#3E824D"/>
<path d="M371.623 293.384H396.832C403.001 293.384 408.001 287.634 408.001 280.541V143.51C408.001 136.417 403.001 130.667 396.832 130.667H371.623V293.384Z" fill="#3E824D"/>
<path d="M251.215 255.477H192.708C190.392 255.477 188.515 253.318 188.515 250.655V173.395C188.515 170.732 190.392 168.573 192.708 168.573H251.215C253.53 168.573 255.407 170.732 255.407 173.395V250.655C255.407 253.318 253.53 255.477 251.215 255.477Z" fill="#766D78"/>
<path d="M409.339 428.789H88.8336C86.5179 428.789 84.641 426.63 84.641 423.967V339.491C84.641 336.828 86.5179 334.669 88.8336 334.669H409.339C411.655 334.669 413.532 336.828 413.532 339.491V423.967C413.532 426.63 411.655 428.789 409.339 428.789Z" fill="#55B56A"/>
<path d="M222.055 255.476H192.708C190.394 255.476 188.515 253.316 188.515 250.654V173.399C188.515 170.729 190.394 168.578 192.708 168.578H222.055C219.741 168.578 217.863 170.729 217.863 173.399V250.654C217.863 253.316 219.741 255.476 222.055 255.476V255.476Z" fill="#655E67"/>
<path d="M118.181 428.789H88.8336C86.5196 428.789 84.641 426.628 84.641 423.967V339.491C84.641 336.829 86.5196 334.669 88.8336 334.669H118.181C115.867 334.669 113.988 336.829 113.988 339.491V423.967C113.988 426.628 115.867 428.789 118.181 428.789Z" fill="#3E824D"/>
<path d="M475.695 185.732H414.292V143.51C414.292 132.44 406.46 123.434 396.834 123.434C388.54 123.434 368.06 123.434 359.664 123.434V106.22C359.664 94.2572 351.2 84.5248 340.797 84.5248H326.035L338.388 38.661C352.45 39.3286 364.011 26.3592 364.011 10.4065C364.011 -5.18926 352.977 -17.8779 339.415 -17.8779C314.859 -17.8779 305.472 19.2782 326.376 34.3722L312.867 84.5238H287.584C278.711 84.5238 270.946 91.7737 269.121 101.762C269.032 102.251 268.987 102.75 268.987 103.25V123.433H236.981V105.293C236.981 96.925 231.06 90.1161 223.783 90.1161H222.626L222.623 80.8806C230.568 80.6847 236.981 73.2072 236.981 64.0248V48.9578C236.981 39.7754 230.568 32.2978 222.623 32.102V-3.41299C222.623 -24.3453 207.814 -41.3757 189.61 -41.3757H146.252C142.778 -41.3757 139.964 -38.1377 139.964 -34.1442C139.964 -30.1507 142.779 -26.9127 146.252 -26.9127H189.611C200.879 -26.9127 210.046 -16.3708 210.046 -3.41396V32.0846H178.199V16.9423C178.199 12.9479 175.383 9.71081 171.91 9.71081H91.1959V-26.9118H121.097C124.571 -26.9118 127.386 -30.1498 127.386 -34.1433C127.386 -38.1368 124.571 -41.3748 121.097 -41.3748H84.9074C81.4338 -41.3748 78.6189 -38.1368 78.6189 -34.1433V16.9423C78.6189 20.9368 81.4347 24.1738 84.9074 24.1738H165.622V32.1039C157.678 32.2997 151.264 39.7782 151.264 48.9597V64.0267C151.264 73.2082 157.678 80.6866 165.622 80.8825L165.625 90.118H164.468C157.191 90.118 151.27 96.9269 151.27 105.295V123.435H132.346C122.72 123.435 114.888 132.441 114.888 143.511V145.912L86.8632 153.234C83.9996 153.982 81.9674 156.909 81.9674 160.286V263.759C81.9674 267.135 83.9987 270.062 86.8615 270.81L114.888 278.141V280.541C114.888 291.61 122.72 300.616 132.346 300.616H137.736V327.438H125.044C121.57 327.438 118.755 330.676 118.755 334.669C118.755 338.664 121.571 341.901 125.044 341.901H405.152C406.308 341.901 407.248 342.982 407.248 344.311V368.934C393.961 366.203 380.049 369.033 368.06 377.435C354.003 387.287 336.537 387.288 322.48 377.435C304.385 364.753 281.904 364.752 263.809 377.435C249.752 387.287 232.287 387.288 218.23 377.435C200.134 364.753 177.653 364.752 159.558 377.435C145.501 387.288 128.036 387.288 113.979 377.435L90.9316 361.282V341.901H99.8891C103.363 341.901 106.178 338.663 106.178 334.669C106.178 330.676 103.362 327.438 99.8891 327.438H84.6423C81.1687 327.438 78.3538 330.676 78.3538 334.669V428.789C78.3538 432.782 81.1695 436.02 84.6423 436.02H501.646C505.12 436.02 507.935 432.782 507.935 428.789C507.935 343.394 507.935 314.929 507.935 222.807C507.936 202.364 493.472 185.732 475.695 185.732ZM339.416 -3.41298C346.043 -3.41298 351.435 2.78711 351.435 10.4074C351.435 18.0278 346.044 24.2288 339.416 24.2288C332.79 24.2288 327.398 18.0287 327.398 10.4074C327.398 2.78614 332.79 -3.41298 339.416 -3.41298ZM114.889 263.308L94.5453 257.987V166.06L114.889 160.745V263.308ZM281.564 104.134C282.359 101.119 284.809 98.9888 287.585 98.9888H340.796C344.264 98.9888 347.085 102.233 347.085 106.22V123.434H281.564V104.134ZM163.841 64.0267V48.9597C163.841 47.6301 164.782 46.5495 165.937 46.5495H222.307C223.463 46.5495 224.403 47.6311 224.403 48.9597V64.0267C224.403 65.3563 223.463 66.4369 222.307 66.4369H165.937C164.782 66.4378 163.841 65.3563 163.841 64.0267ZM210.046 80.9009L210.049 90.118H178.202L178.199 80.9009H210.046ZM163.847 105.295C163.847 104.902 164.126 104.582 164.467 104.582H223.783C224.125 104.582 224.403 104.902 224.403 105.295V123.435H163.846V105.295H163.847ZM163.845 137.898H365.335V286.152H163.845V137.898ZM132.346 286.152C129.655 286.152 127.466 283.635 127.466 280.541V143.511C127.466 140.416 129.655 137.899 132.346 137.899H151.267V286.153C146.895 286.152 136.594 286.152 132.346 286.152ZM383.527 327.438H150.314V300.616H383.526V327.438H383.527ZM389.816 286.148C389.791 286.148 389.767 286.152 389.743 286.152H377.913V137.898H396.834C399.525 137.898 401.714 140.415 401.714 143.51V280.541C401.714 283.635 399.525 286.152 396.834 286.152H389.889C389.864 286.152 389.84 286.148 389.816 286.148ZM495.358 421.557C487.488 421.557 100.086 421.557 90.9308 421.557V378.22L107.432 389.786C125.527 402.469 148.008 402.469 166.103 389.786C180.16 379.934 197.626 379.933 211.683 389.786C229.779 402.469 252.259 402.469 270.354 389.786C284.411 379.934 301.876 379.933 315.933 389.786C334.03 402.469 356.51 402.469 374.605 389.786C388.95 379.731 406.438 380.151 420.184 389.786C438.28 402.468 460.761 402.468 478.856 389.786L495.357 378.22C495.358 388.405 495.358 399.814 495.358 421.557ZM495.358 361.282C470.364 378.799 469.891 379.455 464.711 381.671V338.969C464.711 334.976 461.895 331.738 458.422 331.738C454.949 331.738 452.134 334.976 452.134 338.969V384.729C435.796 385.86 427.815 377.311 419.826 373.309V344.312C419.826 335.008 413.243 327.438 405.152 327.438H396.105V300.616C407.299 300.616 414.292 290.92 414.292 280.541V249.902H452.134V310.042C452.134 314.035 454.949 317.273 458.422 317.273C461.895 317.273 464.711 314.035 464.711 310.042V242.67C464.711 238.677 461.895 235.439 458.422 235.439H414.292V200.196H475.695C486.538 200.196 495.359 210.339 495.359 222.807V361.282H495.358Z" fill="black"/>
<path d="M255.407 161.342H188.515C185.041 161.342 182.227 164.58 182.227 168.573V255.477C182.227 259.471 185.042 262.708 188.515 262.708H255.407C258.881 262.708 261.696 259.47 261.696 255.477V168.573C261.697 164.58 258.881 161.342 255.407 161.342V161.342ZM249.119 248.245H194.804V175.806H249.119V248.245Z" fill="black"/>
<path d="M340.662 174.673H286.54C283.067 174.673 280.252 177.911 280.252 181.905C280.252 185.899 283.067 189.136 286.54 189.136H340.662C344.134 189.136 346.95 185.898 346.95 181.905C346.951 177.911 344.135 174.673 340.662 174.673Z" fill="black"/>
<path d="M340.662 204.793H286.54C283.067 204.793 280.252 208.032 280.252 212.025C280.252 216.019 283.067 219.257 286.54 219.257H340.662C344.134 219.257 346.95 216.019 346.95 212.025C346.95 208.032 344.135 204.793 340.662 204.793Z" fill="black"/>
<path d="M340.662 234.914H286.54C283.067 234.914 280.252 238.152 280.252 242.146C280.252 246.139 283.067 249.377 286.54 249.377H340.662C344.134 249.377 346.95 246.139 346.95 242.146C346.95 238.152 344.135 234.914 340.662 234.914Z" fill="black"/>
<path d="M214.19 219.258H220.523L218.087 226.428C216.822 230.148 218.42 234.342 221.655 235.796C222.407 236.134 223.181 236.294 223.942 236.294C226.457 236.294 228.83 234.548 229.801 231.692L235.59 214.658C236.347 212.432 236.099 209.921 234.927 207.948C233.755 205.975 231.811 204.795 229.733 204.795H223.4L225.837 197.624C227.101 193.904 225.504 189.71 222.268 188.256C219.034 186.8 215.386 188.638 214.122 192.36L208.333 209.394C207.576 211.62 207.824 214.131 208.997 216.104C210.168 218.077 212.112 219.258 214.19 219.258V219.258Z" fill="#F0A70A"/>
</g>
</g>
</g>
<defs>
<clipPath id="clip0">
<rect width="512" height="512" fill="white"/>
</clipPath>
<clipPath id="clip1">
<rect width="756" height="376" fill="white" transform="translate(-59 124)"/>
</clipPath>
<clipPath id="clip2">
<rect width="435.455" height="494" fill="white" transform="matrix(-1 0 0 1 93.455 -131)"/>
</clipPath>
<clipPath id="clip3">
<rect width="429.582" height="494" fill="white" transform="translate(79.1915 -131)"/>
</clipPath>
</defs>
</svg>
