<svg width="512" height="512" viewBox="0 0 512 512" fill="none" xmlns="http://www.w3.org/2000/svg">
<path d="M216 416H296C309.28 416 320 405.2 320 392V448C320 461.28 309.28 472 296 472H216C202.72 472 192 461.28 192 448V392C192 405.2 202.72 416 216 416Z" fill="#2FA8CC"/>
<path d="M320 336V392C320 405.2 309.28 416 296 416H216C202.72 416 192 405.2 192 392V336C192 349.2 202.72 360 216 360H296C309.28 360 320 349.2 320 336Z" fill="#49C1E4"/>
<path d="M256 312H296C309.28 312 320 322.72 320 336C320 349.2 309.28 360 296 360H216C202.72 360 192 349.2 192 336C192 322.72 202.72 312 216 312H256Z" fill="#C7C7C7"/>
<path d="M336 120V64C336 77.28 346.72 88 360 88H440C453.28 88 464 77.28 464 64V120C464 133.28 453.28 144 440 144H360C346.72 144 336 133.28 336 120Z" fill="#55B56A"/>
<path d="M400 200H360C346.72 200 336 189.28 336 176V120C336 133.28 346.72 144 360 144H440C453.28 144 464 133.28 464 120V176C464 189.28 453.28 200 440 200H400Z" fill="#3E824D"/>
<path d="M440 40C453.28 40 464 50.72 464 64C464 77.28 453.28 88 440 88H360C346.72 88 336 77.28 336 64C336 50.72 346.72 40 360 40H440Z" fill="#C7C7C7"/>
<path d="M400 240C408.88 240 416 247.12 416 256C416 264.88 408.88 272 400 272C391.128 272 384 264.88 384 256C384 247.12 391.128 240 400 240Z" fill="#656D78"/>
<path d="M256 240C264.808 240 272 247.12 272 256C272 264.88 264.808 272 256 272C247.128 272 240 264.88 240 256C240 247.12 247.128 240 256 240Z" fill="#656D78"/>
<path d="M112 240C120.808 240 128 247.12 128 256C128 264.88 120.808 272 112 272C103.128 272 96 264.88 96 256C96 247.12 103.128 240 112 240Z" fill="#656D78"/>
<path d="M112 200H72C58.72 200 48 189.28 48 176V120C48 133.28 58.72 144 72 144H152C165.28 144 176 133.28 176 120V176C176 189.28 165.28 200 152 200H112Z" fill="#3E824D"/>
<path d="M176 64V120C176 133.28 165.28 144 152 144H72C58.72 144 48 133.28 48 120V64C48 77.28 58.72 88 72 88H152C165.28 88 176 77.28 176 64Z" fill="#55B56A"/>
<path d="M152 40C165.28 40 176 50.72 176 64C176 77.28 165.28 88 152 88H72C58.72 88 48 77.28 48 64C48 50.72 58.72 40 72 40H152Z" fill="#C7C7C7"/>
<path d="M72 96C54.352 96 40 81.648 40 64C40 46.352 54.352 32 72 32C76.424 32 80 35.576 80 40C80 44.424 76.424 48 72 48C63.176 48 56 55.176 56 64C56 72.824 63.176 80 72 80C76.424 80 80 83.576 80 88C80 92.424 76.424 96 72 96Z" fill="black"/>
<path d="M152 96C147.576 96 144 92.424 144 88C144 83.576 147.576 80 152 80C160.824 80 168 72.824 168 64C168 55.176 160.824 48 152 48C147.576 48 144 44.424 144 40C144 35.576 147.576 32 152 32C169.648 32 184 46.352 184 64C184 81.648 169.648 96 152 96Z" fill="black"/>
<path d="M152 96H72C67.576 96 64 92.424 64 88C64 83.576 67.576 80 72 80H152C156.424 80 160 83.576 160 88C160 92.424 156.424 96 152 96Z" fill="black"/>
<path d="M72 152.008C54.352 152.008 40 137.656 40 120.008C40 115.584 43.576 112.008 48 112.008C52.424 112.008 56 115.584 56 120.008C56 128.832 63.176 136.008 72 136.008C76.424 136.008 80 139.584 80 144.008C80 148.432 76.424 152.008 72 152.008Z" fill="black"/>
<path d="M152 152.008C147.576 152.008 144 148.432 144 144.008C144 139.584 147.576 136.008 152 136.008C160.824 136.008 168 128.832 168 120.008C168 115.584 171.576 112.008 176 112.008C180.424 112.008 184 115.584 184 120.008C184 137.656 169.648 152.008 152 152.008Z" fill="black"/>
<path d="M152 152.008H72C67.576 152.008 64 148.432 64 144.008C64 139.584 67.576 136.008 72 136.008H152C156.424 136.008 160 139.584 160 144.008C160 148.432 156.424 152.008 152 152.008Z" fill="black"/>
<path d="M72 208.016C54.352 208.016 40 193.664 40 176.016C40 171.592 43.576 168.016 48 168.016C52.424 168.016 56 171.592 56 176.016C56 184.84 63.176 192.016 72 192.016C76.424 192.016 80 195.592 80 200.016C80 204.44 76.424 208.016 72 208.016Z" fill="black"/>
<path d="M152 208.016C147.576 208.016 144 204.44 144 200.016C144 195.592 147.576 192.016 152 192.016C160.824 192.016 168 184.84 168 176.016C168 171.592 171.576 168.016 176 168.016C180.424 168.016 184 171.592 184 176.016C184 193.664 169.648 208.016 152 208.016Z" fill="black"/>
<path d="M152 208.016H72C67.576 208.016 64 204.44 64 200.016C64 195.592 67.576 192.016 72 192.016H152C156.424 192.016 160 195.592 160 200.016C160 204.44 156.424 208.016 152 208.016Z" fill="black"/>
<path d="M152 48H72C67.576 48 64 44.424 64 40C64 35.576 67.576 32 72 32H152C156.424 32 160 35.576 160 40C160 44.424 156.424 48 152 48Z" fill="black"/>
<path d="M48 184.016C43.576 184.016 40 180.44 40 176.016V64C40 59.576 43.576 56 48 56C52.424 56 56 59.576 56 64V176.016C56 180.44 52.424 184.016 48 184.016Z" fill="black"/>
<path d="M176 184.016C171.576 184.016 168 180.44 168 176.016V64C168 59.576 171.576 56 176 56C180.424 56 184 59.576 184 64V176.016C184 180.44 180.424 184.016 176 184.016Z" fill="black"/>
<path d="M360.016 96C342.368 96 328.016 81.648 328.016 64C328.016 46.352 342.368 32 360.016 32C364.44 32 368.016 35.576 368.016 40C368.016 44.424 364.44 48 360.016 48C351.192 48 344.016 55.176 344.016 64C344.016 72.824 351.192 80 360.016 80C364.44 80 368.016 83.576 368.016 88C368.016 92.424 364.44 96 360.016 96Z" fill="black"/>
<path d="M440.016 96C435.592 96 432.016 92.424 432.016 88C432.016 83.576 435.592 80 440.016 80C448.84 80 456.016 72.824 456.016 64C456.016 55.176 448.84 48 440.016 48C435.592 48 432.016 44.424 432.016 40C432.016 35.576 435.592 32 440.016 32C457.664 32 472.016 46.352 472.016 64C472.016 81.648 457.664 96 440.016 96Z" fill="black"/>
<path d="M440.016 96H360.016C355.592 96 352.016 92.424 352.016 88C352.016 83.576 355.592 80 360.016 80H440.016C444.44 80 448.016 83.576 448.016 88C448.016 92.424 444.44 96 440.016 96Z" fill="black"/>
<path d="M360.016 152.008C342.368 152.008 328.016 137.656 328.016 120.008C328.016 115.584 331.592 112.008 336.016 112.008C340.44 112.008 344.016 115.584 344.016 120.008C344.016 128.832 351.192 136.008 360.016 136.008C364.44 136.008 368.016 139.584 368.016 144.008C368.016 148.432 364.44 152.008 360.016 152.008Z" fill="black"/>
<path d="M440.016 152.008C435.592 152.008 432.016 148.432 432.016 144.008C432.016 139.584 435.592 136.008 440.016 136.008C448.84 136.008 456.016 128.832 456.016 120.008C456.016 115.584 459.592 112.008 464.016 112.008C468.44 112.008 472.016 115.584 472.016 120.008C472.016 137.656 457.664 152.008 440.016 152.008Z" fill="black"/>
<path d="M440.016 152.008H360.016C355.592 152.008 352.016 148.432 352.016 144.008C352.016 139.584 355.592 136.008 360.016 136.008H440.016C444.44 136.008 448.016 139.584 448.016 144.008C448.016 148.432 444.44 152.008 440.016 152.008Z" fill="black"/>
<path d="M360.016 208.016C342.368 208.016 328.016 193.664 328.016 176.016C328.016 171.592 331.592 168.016 336.016 168.016C340.44 168.016 344.016 171.592 344.016 176.016C344.016 184.84 351.192 192.016 360.016 192.016C364.44 192.016 368.016 195.592 368.016 200.016C368.016 204.44 364.44 208.016 360.016 208.016Z" fill="black"/>
<path d="M440.016 208.016C435.592 208.016 432.016 204.44 432.016 200.016C432.016 195.592 435.592 192.016 440.016 192.016C448.84 192.016 456.016 184.84 456.016 176.016C456.016 171.592 459.592 168.016 464.016 168.016C468.44 168.016 472.016 171.592 472.016 176.016C472.016 193.664 457.664 208.016 440.016 208.016Z" fill="black"/>
<path d="M440.016 208.016H360.016C355.592 208.016 352.016 204.44 352.016 200.016C352.016 195.592 355.592 192.016 360.016 192.016H440.016C444.44 192.016 448.016 195.592 448.016 200.016C448.016 204.44 444.44 208.016 440.016 208.016Z" fill="black"/>
<path d="M440.016 48H360.016C355.592 48 352.016 44.424 352.016 40C352.016 35.576 355.592 32 360.016 32H440.016C444.44 32 448.016 35.576 448.016 40C448.016 44.424 444.44 48 440.016 48Z" fill="black"/>
<path d="M336.016 184.016C331.592 184.016 328.016 180.44 328.016 176.016V64C328.016 59.576 331.592 56 336.016 56C340.44 56 344.016 59.576 344.016 64V176.016C344.016 180.44 340.44 184.016 336.016 184.016Z" fill="black"/>
<path d="M464.016 184.016C459.592 184.016 456.016 180.44 456.016 176.016V64C456.016 59.576 459.592 56 464.016 56C468.44 56 472.016 59.576 472.016 64V176.016C472.016 180.44 468.44 184.016 464.016 184.016Z" fill="black"/>
<path d="M216.024 367.984C198.376 367.984 184.024 353.632 184.024 335.984C184.024 318.336 198.376 303.984 216.024 303.984C220.448 303.984 224.024 307.56 224.024 311.984C224.024 316.408 220.448 319.984 216.024 319.984C207.2 319.984 200.024 327.16 200.024 335.984C200.024 344.808 207.2 351.984 216.024 351.984C220.448 351.984 224.024 355.56 224.024 359.984C224.024 364.408 220.448 367.984 216.024 367.984Z" fill="black"/>
<path d="M296.024 367.984C291.6 367.984 288.024 364.408 288.024 359.984C288.024 355.56 291.6 351.984 296.024 351.984C304.848 351.984 312.024 344.808 312.024 335.984C312.024 327.16 304.848 319.984 296.024 319.984C291.6 319.984 288.024 316.408 288.024 311.984C288.024 307.56 291.6 303.984 296.024 303.984C313.672 303.984 328.024 318.336 328.024 335.984C328.024 353.632 313.672 367.984 296.024 367.984Z" fill="black"/>
<path d="M296.024 367.984H216.024C211.6 367.984 208.024 364.408 208.024 359.984C208.024 355.56 211.6 351.984 216.024 351.984H296.024C300.448 351.984 304.024 355.56 304.024 359.984C304.024 364.408 300.448 367.984 296.024 367.984Z" fill="black"/>
<path d="M216.024 423.992C198.376 423.992 184.024 409.64 184.024 391.992C184.024 387.568 187.6 383.992 192.024 383.992C196.448 383.992 200.024 387.568 200.024 391.992C200.024 400.816 207.2 407.992 216.024 407.992C220.448 407.992 224.024 411.568 224.024 415.992C224.024 420.416 220.448 423.992 216.024 423.992Z" fill="black"/>
<path d="M296.024 423.992C291.6 423.992 288.024 420.416 288.024 415.992C288.024 411.568 291.6 407.992 296.024 407.992C304.848 407.992 312.024 400.816 312.024 391.992C312.024 387.568 315.6 383.992 320.024 383.992C324.448 383.992 328.024 387.568 328.024 391.992C328.024 409.64 313.672 423.992 296.024 423.992Z" fill="black"/>
<path d="M296.024 423.992H216.024C211.6 423.992 208.024 420.416 208.024 415.992C208.024 411.568 211.6 407.992 216.024 407.992H296.024C300.448 407.992 304.024 411.568 304.024 415.992C304.024 420.416 300.448 423.992 296.024 423.992Z" fill="black"/>
<path d="M216.024 480C198.376 480 184.024 465.648 184.024 448C184.024 443.576 187.6 440 192.024 440C196.448 440 200.024 443.576 200.024 448C200.024 456.824 207.2 464 216.024 464C220.448 464 224.024 467.576 224.024 472C224.024 476.424 220.448 480 216.024 480Z" fill="black"/>
<path d="M296.024 480C291.6 480 288.024 476.424 288.024 472C288.024 467.576 291.6 464 296.024 464C304.848 464 312.024 456.824 312.024 448C312.024 443.576 315.6 440 320.024 440C324.448 440 328.024 443.576 328.024 448C328.024 465.648 313.672 480 296.024 480Z" fill="black"/>
<path d="M296.024 480H216.024C211.6 480 208.024 476.424 208.024 472C208.024 467.576 211.6 464 216.024 464H296.024C300.448 464 304.024 467.576 304.024 472C304.024 476.424 300.448 480 296.024 480Z" fill="black"/>
<path d="M296.024 319.984H216.024C211.6 319.984 208.024 316.408 208.024 311.984C208.024 307.56 211.6 303.984 216.024 303.984H296.024C300.448 303.984 304.024 307.56 304.024 311.984C304.024 316.408 300.448 319.984 296.024 319.984Z" fill="black"/>
<path d="M192.024 456C187.6 456 184.024 452.424 184.024 448V335.984C184.024 331.56 187.6 327.984 192.024 327.984C196.448 327.984 200.024 331.56 200.024 335.984V448C200.024 452.424 196.448 456 192.024 456Z" fill="black"/>
<path d="M320.024 456C315.6 456 312.024 452.424 312.024 448V335.984C312.024 331.56 315.6 327.984 320.024 327.984C324.448 327.984 328.024 331.56 328.024 335.984V448C328.024 452.424 324.448 456 320.024 456Z" fill="black"/>
<path d="M112 280.04C98.76 280.04 87.984 269.264 87.984 256.024C87.984 242.784 98.76 232.008 112 232.008C125.232 232.008 136.008 242.784 136.008 256.024C136.008 269.264 125.232 280.04 112 280.04V280.04ZM112 248.008C107.576 248.008 103.984 251.6 103.984 256.024C103.984 260.448 107.576 264.04 112 264.04C116.416 264.04 120.008 260.448 120.008 256.024C120.008 251.6 116.416 248.008 112 248.008V248.008Z" fill="black"/>
<path d="M256.008 280.04C242.768 280.04 231.992 269.264 231.992 256.024C231.992 242.784 242.768 232.008 256.008 232.008C269.24 232.008 280.016 242.784 280.016 256.024C280.016 269.264 269.24 280.04 256.008 280.04ZM256.008 248.008C251.584 248.008 247.992 251.6 247.992 256.024C247.992 260.448 251.584 264.04 256.008 264.04C260.424 264.04 264.016 260.448 264.016 256.024C264.016 251.6 260.424 248.008 256.008 248.008V248.008Z" fill="black"/>
<path d="M400.016 280.04C386.776 280.04 376 269.264 376 256.024C376 242.784 386.776 232.008 400.016 232.008C413.248 232.008 424.024 242.784 424.024 256.024C424.024 269.264 413.248 280.04 400.016 280.04ZM400.016 248.008C395.592 248.008 392 251.6 392 256.024C392 260.448 395.592 264.04 400.016 264.04C404.432 264.04 408.024 260.448 408.024 256.024C408.024 251.6 404.432 248.008 400.016 248.008V248.008Z" fill="black"/>
<path d="M95.984 263.992H8C3.576 263.992 0 260.416 0 255.992C0 251.568 3.576 247.992 8 247.992H95.984C100.408 247.992 103.984 251.568 103.984 255.992C103.984 260.416 100.408 263.992 95.984 263.992Z" fill="black"/>
<path d="M239.992 264.024H128.008C123.584 264.024 120.008 260.448 120.008 256.024C120.008 251.6 123.584 248.024 128.008 248.024H239.992C244.416 248.024 247.992 251.6 247.992 256.024C247.992 260.448 244.416 264.024 239.992 264.024V264.024Z" fill="black"/>
<path d="M384 264.024H272.016C267.592 264.024 264.016 260.448 264.016 256.024C264.016 251.6 267.592 248.024 272.016 248.024H384C388.424 248.024 392 251.6 392 256.024C392 260.448 388.424 264.024 384 264.024Z" fill="black"/>
<path d="M504 264.024H416.024C411.6 264.024 408.024 260.448 408.024 256.024C408.024 251.6 411.6 248.024 416.024 248.024H504C508.424 248.024 512 251.6 512 256.024C512 260.448 508.424 264.024 504 264.024Z" fill="black"/>
<path d="M256.008 317.19C251.584 317.19 248.008 313.614 248.008 309.19V272.04C248.008 267.616 251.584 264.04 256.008 264.04C260.432 264.04 264.008 267.616 264.008 272.04V309.19C264.008 313.614 260.432 317.19 256.008 317.19Z" fill="black"/>
<path d="M400.016 248.008C395.592 248.008 392.016 244.432 392.016 240.008V199.96C392.016 195.536 395.592 191.96 400.016 191.96C404.44 191.96 408.016 195.536 408.016 199.96V240.008C408.016 244.432 404.44 248.008 400.016 248.008Z" fill="black"/>
<path d="M112 248.008C107.576 248.008 104 244.432 104 240.008V199.96C104 195.536 107.576 191.96 112 191.96C116.424 191.96 120 195.536 120 199.96V240.008C120 244.432 116.424 248.008 112 248.008Z" fill="black"/>
</svg>
