<svg width="410" height="410" viewBox="0 0 410 410" fill="none" xmlns="http://www.w3.org/2000/svg">
<path d="M172.969 333.125H237.031C247.666 333.125 256.25 324.477 256.25 313.906V358.75C256.25 369.384 247.666 377.969 237.031 377.969H172.969C162.334 377.969 153.75 369.384 153.75 358.75V313.906C153.75 324.477 162.334 333.125 172.969 333.125Z" fill="#F4493B"/>
<path d="M256.25 269.062V313.906C256.25 324.477 247.666 333.125 237.031 333.125H172.969C162.334 333.125 153.75 324.477 153.75 313.906V269.062C153.75 279.633 162.334 288.281 172.969 288.281H237.031C247.666 288.281 256.25 279.633 256.25 269.062Z" fill="#FF6555"/>
<path d="M205 249.844H237.031C247.666 249.844 256.25 258.428 256.25 269.062C256.25 279.633 247.666 288.281 237.031 288.281H172.969C162.334 288.281 153.75 279.633 153.75 269.062C153.75 258.428 162.334 249.844 172.969 249.844H205Z" fill="#C7C7C7"/>
<path d="M269.062 96.0938V51.25C269.062 61.8844 277.647 70.4688 288.281 70.4688H352.344C362.978 70.4688 371.562 61.8844 371.562 51.25V96.0938C371.562 106.728 362.978 115.312 352.344 115.312H288.281C277.647 115.312 269.062 106.728 269.062 96.0938Z" fill="#49C1E4"/>
<path d="M320.312 160.156H288.281C277.647 160.156 269.062 151.572 269.062 140.938V96.0938C269.062 106.728 277.647 115.312 288.281 115.312H352.344C362.978 115.312 371.562 106.728 371.562 96.0938V140.938C371.562 151.572 362.978 160.156 352.344 160.156H320.312Z" fill="#2FA8CC"/>
<path d="M352.344 32.0312C362.978 32.0312 371.562 40.6156 371.562 51.25C371.562 61.8844 362.978 70.4688 352.344 70.4688H288.281C277.647 70.4688 269.062 61.8844 269.062 51.25C269.062 40.6156 277.647 32.0312 288.281 32.0312H352.344Z" fill="#C7C7C7"/>
<path d="M320.312 192.188C327.423 192.188 333.125 197.889 333.125 205C333.125 212.111 327.423 217.812 320.312 217.812C313.208 217.812 307.5 212.111 307.5 205C307.5 197.889 313.208 192.188 320.312 192.188Z" fill="#656D78"/>
<path d="M205 192.188C212.053 192.188 217.812 197.889 217.812 205C217.812 212.111 212.053 217.812 205 217.812C197.895 217.812 192.188 212.111 192.188 205C192.188 197.889 197.895 192.188 205 192.188Z" fill="#656D78"/>
<path d="M89.6875 192.188C96.7408 192.188 102.5 197.889 102.5 205C102.5 212.111 96.7408 217.812 89.6875 217.812C82.583 217.812 76.875 212.111 76.875 205C76.875 197.889 82.583 192.188 89.6875 192.188Z" fill="#656D78"/>
<path d="M89.6875 160.156H57.6562C47.0219 160.156 38.4375 151.572 38.4375 140.938V96.0938C38.4375 106.728 47.0219 115.312 57.6562 115.312H121.719C132.353 115.312 140.938 106.728 140.938 96.0938V140.938C140.938 151.572 132.353 160.156 121.719 160.156H89.6875Z" fill="#3E824D"/>
<path d="M140.938 51.25V96.0938C140.938 106.728 132.353 115.312 121.719 115.312H57.6562C47.0219 115.312 38.4375 106.728 38.4375 96.0938V51.25C38.4375 61.8844 47.0219 70.4688 57.6562 70.4688H121.719C132.353 70.4688 140.938 61.8844 140.938 51.25Z" fill="#55B56A"/>
<path d="M121.719 32.0312C132.353 32.0312 140.938 40.6156 140.938 51.25C140.938 61.8844 132.353 70.4688 121.719 70.4688H57.6562C47.0219 70.4688 38.4375 61.8844 38.4375 51.25C38.4375 40.6156 47.0219 32.0312 57.6562 32.0312H121.719Z" fill="#C7C7C7"/>
<path d="M57.6562 76.875C43.5241 76.875 32.0312 65.3822 32.0312 51.25C32.0312 37.1178 43.5241 25.625 57.6562 25.625C61.1989 25.625 64.0625 28.4886 64.0625 32.0312C64.0625 35.5739 61.1989 38.4375 57.6562 38.4375C50.5902 38.4375 44.8438 44.1839 44.8438 51.25C44.8438 58.3161 50.5902 64.0625 57.6562 64.0625C61.1989 64.0625 64.0625 66.9261 64.0625 70.4688C64.0625 74.0114 61.1989 76.875 57.6562 76.875Z" fill="black"/>
<path d="M121.719 76.875C118.176 76.875 115.312 74.0114 115.312 70.4688C115.312 66.9261 118.176 64.0625 121.719 64.0625C128.785 64.0625 134.531 58.3161 134.531 51.25C134.531 44.1839 128.785 38.4375 121.719 38.4375C118.176 38.4375 115.312 35.5739 115.312 32.0312C115.312 28.4886 118.176 25.625 121.719 25.625C135.851 25.625 147.344 37.1178 147.344 51.25C147.344 65.3822 135.851 76.875 121.719 76.875Z" fill="black"/>
<path d="M121.719 76.875H57.6562C54.1136 76.875 51.25 74.0114 51.25 70.4688C51.25 66.9261 54.1136 64.0625 57.6562 64.0625H121.719C125.261 64.0625 128.125 66.9261 128.125 70.4688C128.125 74.0114 125.261 76.875 121.719 76.875Z" fill="black"/>
<path d="M57.6562 121.725C43.5241 121.725 32.0312 110.232 32.0312 96.1001C32.0312 92.5574 34.8948 89.6938 38.4375 89.6938C41.9802 89.6938 44.8438 92.5574 44.8438 96.1001C44.8438 103.166 50.5902 108.913 57.6562 108.913C61.1989 108.913 64.0625 111.776 64.0625 115.319C64.0625 118.861 61.1989 121.725 57.6562 121.725Z" fill="black"/>
<path d="M121.719 121.725C118.176 121.725 115.312 118.861 115.312 115.319C115.312 111.776 118.176 108.913 121.719 108.913C128.785 108.913 134.531 103.166 134.531 96.1001C134.531 92.5574 137.395 89.6938 140.938 89.6938C144.48 89.6938 147.344 92.5574 147.344 96.1001C147.344 110.232 135.851 121.725 121.719 121.725Z" fill="black"/>
<path d="M121.719 121.725H57.6562C54.1136 121.725 51.25 118.862 51.25 115.319C51.25 111.776 54.1136 108.913 57.6562 108.913H121.719C125.261 108.913 128.125 111.776 128.125 115.319C128.125 118.862 125.261 121.725 121.719 121.725Z" fill="black"/>
<path d="M57.6562 166.575C43.5241 166.575 32.0312 155.082 32.0312 140.95C32.0312 137.408 34.8948 134.544 38.4375 134.544C41.9802 134.544 44.8438 137.408 44.8438 140.95C44.8438 148.016 50.5902 153.763 57.6562 153.763C61.1989 153.763 64.0625 156.626 64.0625 160.169C64.0625 163.712 61.1989 166.575 57.6562 166.575Z" fill="black"/>
<path d="M121.719 166.575C118.176 166.575 115.312 163.712 115.312 160.169C115.312 156.626 118.176 153.763 121.719 153.763C128.785 153.763 134.531 148.016 134.531 140.95C134.531 137.408 137.395 134.544 140.938 134.544C144.48 134.544 147.344 137.408 147.344 140.95C147.344 155.082 135.851 166.575 121.719 166.575Z" fill="black"/>
<path d="M121.719 166.575H57.6562C54.1136 166.575 51.25 163.712 51.25 160.169C51.25 156.626 54.1136 153.763 57.6562 153.763H121.719C125.261 153.763 128.125 156.626 128.125 160.169C128.125 163.712 125.261 166.575 121.719 166.575Z" fill="black"/>
<path d="M121.719 38.4375H57.6562C54.1136 38.4375 51.25 35.5739 51.25 32.0312C51.25 28.4886 54.1136 25.625 57.6562 25.625H121.719C125.261 25.625 128.125 28.4886 128.125 32.0312C128.125 35.5739 125.261 38.4375 121.719 38.4375Z" fill="black"/>
<path d="M38.4375 147.357C34.8948 147.357 32.0312 144.493 32.0312 140.95V51.25C32.0312 47.7073 34.8948 44.8438 38.4375 44.8438C41.9802 44.8438 44.8438 47.7073 44.8438 51.25V140.95C44.8438 144.493 41.9802 147.357 38.4375 147.357Z" fill="black"/>
<path d="M140.938 147.357C137.395 147.357 134.531 144.493 134.531 140.95V51.25C134.531 47.7073 137.395 44.8438 140.938 44.8438C144.48 44.8438 147.344 47.7073 147.344 51.25V140.95C147.344 144.493 144.48 147.357 140.938 147.357Z" fill="black"/>
<path d="M288.294 76.875C274.162 76.875 262.669 65.3822 262.669 51.25C262.669 37.1178 274.162 25.625 288.294 25.625C291.837 25.625 294.7 28.4886 294.7 32.0312C294.7 35.5739 291.837 38.4375 288.294 38.4375C281.228 38.4375 275.482 44.1839 275.482 51.25C275.482 58.3161 281.228 64.0625 288.294 64.0625C291.837 64.0625 294.7 66.9261 294.7 70.4688C294.7 74.0114 291.837 76.875 288.294 76.875Z" fill="black"/>
<path d="M352.357 76.875C348.814 76.875 345.95 74.0114 345.95 70.4688C345.95 66.9261 348.814 64.0625 352.357 64.0625C359.423 64.0625 365.169 58.3161 365.169 51.25C365.169 44.1839 359.423 38.4375 352.357 38.4375C348.814 38.4375 345.95 35.5739 345.95 32.0312C345.95 28.4886 348.814 25.625 352.357 25.625C366.489 25.625 377.982 37.1178 377.982 51.25C377.982 65.3822 366.489 76.875 352.357 76.875Z" fill="black"/>
<path d="M352.357 76.875H288.294C284.751 76.875 281.888 74.0114 281.888 70.4688C281.888 66.9261 284.751 64.0625 288.294 64.0625H352.357C355.899 64.0625 358.763 66.9261 358.763 70.4688C358.763 74.0114 355.899 76.875 352.357 76.875Z" fill="black"/>
<path d="M288.294 121.725C274.162 121.725 262.669 110.232 262.669 96.1001C262.669 92.5574 265.533 89.6938 269.075 89.6938C272.618 89.6938 275.482 92.5574 275.482 96.1001C275.482 103.166 281.228 108.913 288.294 108.913C291.837 108.913 294.7 111.776 294.7 115.319C294.7 118.861 291.837 121.725 288.294 121.725Z" fill="black"/>
<path d="M352.357 121.725C348.814 121.725 345.95 118.861 345.95 115.319C345.95 111.776 348.814 108.913 352.357 108.913C359.423 108.913 365.169 103.166 365.169 96.1001C365.169 92.5574 368.033 89.6938 371.575 89.6938C375.118 89.6938 377.982 92.5574 377.982 96.1001C377.982 110.232 366.489 121.725 352.357 121.725Z" fill="black"/>
<path d="M352.357 121.725H288.294C284.751 121.725 281.888 118.862 281.888 115.319C281.888 111.776 284.751 108.913 288.294 108.913H352.357C355.899 108.913 358.763 111.776 358.763 115.319C358.763 118.862 355.899 121.725 352.357 121.725Z" fill="black"/>
<path d="M288.294 166.575C274.162 166.575 262.669 155.082 262.669 140.95C262.669 137.408 265.533 134.544 269.075 134.544C272.618 134.544 275.482 137.408 275.482 140.95C275.482 148.016 281.228 153.763 288.294 153.763C291.837 153.763 294.7 156.626 294.7 160.169C294.7 163.712 291.837 166.575 288.294 166.575Z" fill="black"/>
<path d="M352.357 166.575C348.814 166.575 345.95 163.712 345.95 160.169C345.95 156.626 348.814 153.763 352.357 153.763C359.423 153.763 365.169 148.016 365.169 140.95C365.169 137.408 368.033 134.544 371.575 134.544C375.118 134.544 377.982 137.408 377.982 140.95C377.982 155.082 366.489 166.575 352.357 166.575Z" fill="black"/>
<path d="M352.357 166.575H288.294C284.751 166.575 281.888 163.712 281.888 160.169C281.888 156.626 284.751 153.763 288.294 153.763H352.357C355.899 153.763 358.763 156.626 358.763 160.169C358.763 163.712 355.899 166.575 352.357 166.575Z" fill="black"/>
<path d="M352.357 38.4375H288.294C284.751 38.4375 281.888 35.5739 281.888 32.0312C281.888 28.4886 284.751 25.625 288.294 25.625H352.357C355.899 25.625 358.763 28.4886 358.763 32.0312C358.763 35.5739 355.899 38.4375 352.357 38.4375Z" fill="black"/>
<path d="M269.075 147.357C265.533 147.357 262.669 144.493 262.669 140.95V51.25C262.669 47.7073 265.533 44.8438 269.075 44.8438C272.618 44.8438 275.482 47.7073 275.482 51.25V140.95C275.482 144.493 272.618 147.357 269.075 147.357Z" fill="black"/>
<path d="M371.575 147.357C368.033 147.357 365.169 144.493 365.169 140.95V51.25C365.169 47.7073 368.033 44.8438 371.575 44.8438C375.118 44.8438 377.982 47.7073 377.982 51.25V140.95C377.982 144.493 375.118 147.357 371.575 147.357Z" fill="black"/>
<path d="M172.988 294.675C158.856 294.675 147.363 283.182 147.363 269.05C147.363 254.918 158.856 243.425 172.988 243.425C176.531 243.425 179.394 246.288 179.394 249.831C179.394 253.374 176.531 256.237 172.988 256.237C165.922 256.237 160.175 261.984 160.175 269.05C160.175 276.116 165.922 281.862 172.988 281.862C176.531 281.862 179.394 284.726 179.394 288.269C179.394 291.811 176.531 294.675 172.988 294.675Z" fill="black"/>
<path d="M237.05 294.675C233.508 294.675 230.644 291.811 230.644 288.269C230.644 284.726 233.508 281.862 237.05 281.862C244.117 281.862 249.863 276.116 249.863 269.05C249.863 261.984 244.117 256.237 237.05 256.237C233.508 256.237 230.644 253.374 230.644 249.831C230.644 246.288 233.508 243.425 237.05 243.425C251.183 243.425 262.675 254.918 262.675 269.05C262.675 283.182 251.183 294.675 237.05 294.675Z" fill="black"/>
<path d="M237.05 294.675H172.988C169.445 294.675 166.582 291.811 166.582 288.269C166.582 284.726 169.445 281.862 172.988 281.862H237.05C240.593 281.862 243.457 284.726 243.457 288.269C243.457 291.811 240.593 294.675 237.05 294.675Z" fill="black"/>
<path d="M172.988 339.525C158.856 339.525 147.363 328.032 147.363 313.9C147.363 310.357 150.227 307.494 153.769 307.494C157.312 307.494 160.175 310.357 160.175 313.9C160.175 320.966 165.922 326.712 172.988 326.712C176.531 326.712 179.394 329.576 179.394 333.119C179.394 336.661 176.531 339.525 172.988 339.525Z" fill="black"/>
<path d="M237.05 339.525C233.508 339.525 230.644 336.661 230.644 333.119C230.644 329.576 233.508 326.712 237.05 326.712C244.117 326.712 249.863 320.966 249.863 313.9C249.863 310.357 252.727 307.494 256.269 307.494C259.812 307.494 262.675 310.357 262.675 313.9C262.675 328.032 251.183 339.525 237.05 339.525Z" fill="black"/>
<path d="M237.05 339.525H172.988C169.445 339.525 166.582 336.661 166.582 333.119C166.582 329.576 169.445 326.712 172.988 326.712H237.05C240.593 326.712 243.457 329.576 243.457 333.119C243.457 336.661 240.593 339.525 237.05 339.525Z" fill="black"/>
<path d="M172.988 384.375C158.856 384.375 147.363 372.882 147.363 358.75C147.363 355.207 150.227 352.344 153.769 352.344C157.312 352.344 160.175 355.207 160.175 358.75C160.175 365.816 165.922 371.562 172.988 371.562C176.531 371.562 179.394 374.426 179.394 377.969C179.394 381.511 176.531 384.375 172.988 384.375Z" fill="black"/>
<path d="M237.05 384.375C233.508 384.375 230.644 381.511 230.644 377.969C230.644 374.426 233.508 371.562 237.05 371.562C244.117 371.562 249.863 365.816 249.863 358.75C249.863 355.207 252.727 352.344 256.269 352.344C259.812 352.344 262.675 355.207 262.675 358.75C262.675 372.882 251.183 384.375 237.05 384.375Z" fill="black"/>
<path d="M237.05 384.375H172.988C169.445 384.375 166.582 381.511 166.582 377.969C166.582 374.426 169.445 371.562 172.988 371.562H237.05C240.593 371.562 243.457 374.426 243.457 377.969C243.457 381.511 240.593 384.375 237.05 384.375Z" fill="black"/>
<path d="M237.05 256.237H172.988C169.445 256.237 166.582 253.374 166.582 249.831C166.582 246.288 169.445 243.425 172.988 243.425H237.05C240.593 243.425 243.457 246.288 243.457 249.831C243.457 253.374 240.593 256.237 237.05 256.237Z" fill="black"/>
<path d="M153.769 365.156C150.227 365.156 147.363 362.293 147.363 358.75V269.05C147.363 265.507 150.227 262.644 153.769 262.644C157.312 262.644 160.175 265.507 160.175 269.05V358.75C160.175 362.293 157.312 365.156 153.769 365.156Z" fill="black"/>
<path d="M256.269 365.156C252.727 365.156 249.863 362.293 249.863 358.75V269.05C249.863 265.507 252.727 262.644 256.269 262.644C259.812 262.644 262.675 265.507 262.675 269.05V358.75C262.675 362.293 259.812 365.156 256.269 365.156Z" fill="black"/>
<path d="M89.6875 224.251C79.0851 224.251 70.4559 215.621 70.4559 205.019C70.4559 194.417 79.0851 185.788 89.6875 185.788C100.283 185.788 108.913 194.417 108.913 205.019C108.913 215.621 100.283 224.251 89.6875 224.251V224.251ZM89.6875 198.6C86.1448 198.6 83.2684 201.476 83.2684 205.019C83.2684 208.562 86.1448 211.438 89.6875 211.438C93.2237 211.438 96.1002 208.562 96.1002 205.019C96.1002 201.476 93.2237 198.6 89.6875 198.6V198.6Z" fill="black"/>
<path d="M205.006 224.251C194.404 224.251 185.775 215.621 185.775 205.019C185.775 194.417 194.404 185.788 205.006 185.788C215.602 185.788 224.232 194.417 224.232 205.019C224.232 215.621 215.602 224.251 205.006 224.251ZM205.006 198.6C201.464 198.6 198.587 201.476 198.587 205.019C198.587 208.562 201.464 211.438 205.006 211.438C208.543 211.438 211.419 208.562 211.419 205.019C211.419 201.476 208.543 198.6 205.006 198.6V198.6Z" fill="black"/>
<path d="M320.325 224.251C309.723 224.251 301.094 215.621 301.094 205.019C301.094 194.417 309.723 185.788 320.325 185.788C330.921 185.788 339.55 194.417 339.55 205.019C339.55 215.621 330.921 224.251 320.325 224.251ZM320.325 198.6C316.783 198.6 313.906 201.476 313.906 205.019C313.906 208.562 316.783 211.438 320.325 211.438C323.862 211.438 326.738 208.562 326.738 205.019C326.738 201.476 323.862 198.6 320.325 198.6V198.6Z" fill="black"/>
<path d="M76.8622 211.4H6.40625C2.86359 211.4 0 208.536 0 204.994C0 201.451 2.86359 198.587 6.40625 198.587H76.8622C80.4048 198.587 83.2684 201.451 83.2684 204.994C83.2684 208.536 80.4048 211.4 76.8622 211.4Z" fill="black"/>
<path d="M192.181 211.426H102.506C98.9637 211.426 96.1002 208.562 96.1002 205.019C96.1002 201.477 98.9637 198.613 102.506 198.613H192.181C195.724 198.613 198.587 201.477 198.587 205.019C198.587 208.562 195.724 211.426 192.181 211.426V211.426Z" fill="black"/>
<path d="M307.5 211.426H217.825C214.283 211.426 211.419 208.562 211.419 205.019C211.419 201.477 214.283 198.613 217.825 198.613H307.5C311.043 198.613 313.906 201.477 313.906 205.019C313.906 208.562 311.043 211.426 307.5 211.426Z" fill="black"/>
<path d="M403.594 211.426H333.144C329.602 211.426 326.738 208.562 326.738 205.019C326.738 201.477 329.602 198.613 333.144 198.613H403.594C407.136 198.613 410 201.477 410 205.019C410 208.562 407.136 211.426 403.594 211.426Z" fill="black"/>
<path d="M205.006 254C201.464 254 198.6 251.136 198.6 247.594V217.844C198.6 214.302 201.464 211.438 205.006 211.438C208.549 211.438 211.413 214.302 211.413 217.844V247.594C211.413 251.136 208.549 254 205.006 254Z" fill="black"/>
<path d="M320.325 198.6C316.783 198.6 313.919 195.737 313.919 192.194V160.124C313.919 156.582 316.783 153.718 320.325 153.718C323.868 153.718 326.732 156.582 326.732 160.124V192.194C326.732 195.737 323.868 198.6 320.325 198.6Z" fill="black"/>
<path d="M89.6875 198.6C86.1448 198.6 83.2812 195.737 83.2812 192.194V160.124C83.2812 156.582 86.1448 153.718 89.6875 153.718C93.2302 153.718 96.0938 156.582 96.0938 160.124V192.194C96.0938 195.737 93.2302 198.6 89.6875 198.6Z" fill="black"/>
</svg>
