<svg width="512" height="512" viewBox="0 0 512 512" fill="none" xmlns="http://www.w3.org/2000/svg">
<path d="M223.969 409.125H288.031C298.666 409.125 307.25 400.477 307.25 389.906V434.75C307.25 445.384 298.666 453.969 288.031 453.969H223.969C213.334 453.969 204.75 445.384 204.75 434.75V389.906C204.75 400.477 213.334 409.125 223.969 409.125Z" fill="#435E66"/>
<path d="M307.25 345.062V389.906C307.25 400.477 298.666 409.125 288.031 409.125H223.969C213.334 409.125 204.75 400.477 204.75 389.906V345.062C204.75 355.633 213.334 364.281 223.969 364.281H288.031C298.666 364.281 307.25 355.633 307.25 345.062Z" fill="#547580"/>
<path d="M256 325.844H288.031C298.666 325.844 307.25 334.428 307.25 345.062C307.25 355.633 298.666 364.281 288.031 364.281H223.969C213.334 364.281 204.75 355.633 204.75 345.062C204.75 334.428 213.334 325.844 223.969 325.844H256Z" fill="#C7C7C7"/>
<path d="M320.062 172.094V127.25C320.062 137.884 328.647 146.469 339.281 146.469H403.344C413.978 146.469 422.562 137.884 422.562 127.25V172.094C422.562 182.728 413.978 191.312 403.344 191.312H339.281C328.647 191.312 320.062 182.728 320.062 172.094Z" fill="#547580"/>
<path d="M371.312 236.156H339.281C328.647 236.156 320.062 227.572 320.062 216.938V172.094C320.062 182.728 328.647 191.312 339.281 191.312H403.344C413.978 191.312 422.562 182.728 422.562 172.094V216.938C422.562 227.572 413.978 236.156 403.344 236.156H371.312Z" fill="#435E66"/>
<path d="M403.344 108.031C413.978 108.031 422.562 116.616 422.562 127.25C422.562 137.884 413.978 146.469 403.344 146.469H339.281C328.647 146.469 320.062 137.884 320.062 127.25C320.062 116.616 328.647 108.031 339.281 108.031H403.344Z" fill="#C7C7C7"/>
<path d="M371.312 268.188C378.423 268.188 384.125 273.889 384.125 281C384.125 288.111 378.423 293.812 371.312 293.812C364.208 293.812 358.5 288.111 358.5 281C358.5 273.889 364.208 268.188 371.312 268.188Z" fill="#656D78"/>
<path d="M256 268.188C263.053 268.188 268.812 273.889 268.812 281C268.812 288.111 263.053 293.812 256 293.812C248.895 293.812 243.188 288.111 243.188 281C243.188 273.889 248.895 268.188 256 268.188Z" fill="#656D78"/>
<path d="M140.688 268.188C147.741 268.188 153.5 273.889 153.5 281C153.5 288.111 147.741 293.812 140.688 293.812C133.583 293.812 127.875 288.111 127.875 281C127.875 273.889 133.583 268.188 140.688 268.188Z" fill="#656D78"/>
<path d="M140.688 236.156H108.656C98.0219 236.156 89.4375 227.572 89.4375 216.938V172.094C89.4375 182.728 98.0219 191.312 108.656 191.312H172.719C183.353 191.312 191.938 182.728 191.938 172.094V216.938C191.938 227.572 183.353 236.156 172.719 236.156H140.688Z" fill="#435E66"/>
<path d="M191.938 127.25V172.094C191.938 182.728 183.353 191.312 172.719 191.312H108.656C98.0219 191.312 89.4375 182.728 89.4375 172.094V127.25C89.4375 137.884 98.0219 146.469 108.656 146.469H172.719C183.353 146.469 191.938 137.884 191.938 127.25Z" fill="#547580"/>
<path d="M172.719 108.031C183.353 108.031 191.938 116.616 191.938 127.25C191.938 137.884 183.353 146.469 172.719 146.469H108.656C98.0219 146.469 89.4375 137.884 89.4375 127.25C89.4375 116.616 98.0219 108.031 108.656 108.031H172.719Z" fill="#C7C7C7"/>
<path d="M108.656 152.875C94.5241 152.875 83.0312 141.382 83.0312 127.25C83.0312 113.118 94.5241 101.625 108.656 101.625C112.199 101.625 115.062 104.489 115.062 108.031C115.062 111.574 112.199 114.438 108.656 114.438C101.59 114.438 95.8438 120.184 95.8438 127.25C95.8438 134.316 101.59 140.062 108.656 140.062C112.199 140.062 115.062 142.926 115.062 146.469C115.062 150.011 112.199 152.875 108.656 152.875Z" fill="black"/>
<path d="M172.719 152.875C169.176 152.875 166.312 150.011 166.312 146.469C166.312 142.926 169.176 140.062 172.719 140.062C179.785 140.062 185.531 134.316 185.531 127.25C185.531 120.184 179.785 114.438 172.719 114.438C169.176 114.438 166.312 111.574 166.312 108.031C166.312 104.489 169.176 101.625 172.719 101.625C186.851 101.625 198.344 113.118 198.344 127.25C198.344 141.382 186.851 152.875 172.719 152.875Z" fill="black"/>
<path d="M172.719 152.875H108.656C105.114 152.875 102.25 150.011 102.25 146.469C102.25 142.926 105.114 140.062 108.656 140.062H172.719C176.261 140.062 179.125 142.926 179.125 146.469C179.125 150.011 176.261 152.875 172.719 152.875Z" fill="black"/>
<path d="M108.656 197.725C94.5241 197.725 83.0312 186.232 83.0312 172.1C83.0312 168.557 85.8948 165.694 89.4375 165.694C92.9802 165.694 95.8438 168.557 95.8438 172.1C95.8438 179.166 101.59 184.913 108.656 184.913C112.199 184.913 115.062 187.776 115.062 191.319C115.062 194.861 112.199 197.725 108.656 197.725Z" fill="black"/>
<path d="M172.719 197.725C169.176 197.725 166.312 194.861 166.312 191.319C166.312 187.776 169.176 184.913 172.719 184.913C179.785 184.913 185.531 179.166 185.531 172.1C185.531 168.557 188.395 165.694 191.938 165.694C195.48 165.694 198.344 168.557 198.344 172.1C198.344 186.232 186.851 197.725 172.719 197.725Z" fill="black"/>
<path d="M172.719 197.725H108.656C105.114 197.725 102.25 194.862 102.25 191.319C102.25 187.776 105.114 184.913 108.656 184.913H172.719C176.261 184.913 179.125 187.776 179.125 191.319C179.125 194.862 176.261 197.725 172.719 197.725Z" fill="black"/>
<path d="M108.656 242.575C94.5241 242.575 83.0312 231.082 83.0312 216.95C83.0312 213.408 85.8948 210.544 89.4375 210.544C92.9802 210.544 95.8438 213.408 95.8438 216.95C95.8438 224.016 101.59 229.763 108.656 229.763C112.199 229.763 115.062 232.626 115.062 236.169C115.062 239.712 112.199 242.575 108.656 242.575Z" fill="black"/>
<path d="M172.719 242.575C169.176 242.575 166.312 239.712 166.312 236.169C166.312 232.626 169.176 229.763 172.719 229.763C179.785 229.763 185.531 224.016 185.531 216.95C185.531 213.408 188.395 210.544 191.938 210.544C195.48 210.544 198.344 213.408 198.344 216.95C198.344 231.082 186.851 242.575 172.719 242.575Z" fill="black"/>
<path d="M172.719 242.575H108.656C105.114 242.575 102.25 239.712 102.25 236.169C102.25 232.626 105.114 229.763 108.656 229.763H172.719C176.261 229.763 179.125 232.626 179.125 236.169C179.125 239.712 176.261 242.575 172.719 242.575Z" fill="black"/>
<path d="M172.719 114.438H108.656C105.114 114.438 102.25 111.574 102.25 108.031C102.25 104.489 105.114 101.625 108.656 101.625H172.719C176.261 101.625 179.125 104.489 179.125 108.031C179.125 111.574 176.261 114.438 172.719 114.438Z" fill="black"/>
<path d="M89.4375 223.357C85.8948 223.357 83.0312 220.493 83.0312 216.95V127.25C83.0312 123.707 85.8948 120.844 89.4375 120.844C92.9802 120.844 95.8438 123.707 95.8438 127.25V216.95C95.8438 220.493 92.9802 223.357 89.4375 223.357Z" fill="black"/>
<path d="M191.938 223.357C188.395 223.357 185.531 220.493 185.531 216.95V127.25C185.531 123.707 188.395 120.844 191.938 120.844C195.48 120.844 198.344 123.707 198.344 127.25V216.95C198.344 220.493 195.48 223.357 191.938 223.357Z" fill="black"/>
<path d="M339.294 152.875C325.162 152.875 313.669 141.382 313.669 127.25C313.669 113.118 325.162 101.625 339.294 101.625C342.837 101.625 345.7 104.489 345.7 108.031C345.7 111.574 342.837 114.438 339.294 114.438C332.228 114.438 326.482 120.184 326.482 127.25C326.482 134.316 332.228 140.062 339.294 140.062C342.837 140.062 345.7 142.926 345.7 146.469C345.7 150.011 342.837 152.875 339.294 152.875Z" fill="black"/>
<path d="M403.357 152.875C399.814 152.875 396.95 150.011 396.95 146.469C396.95 142.926 399.814 140.062 403.357 140.062C410.423 140.062 416.169 134.316 416.169 127.25C416.169 120.184 410.423 114.438 403.357 114.438C399.814 114.438 396.95 111.574 396.95 108.031C396.95 104.489 399.814 101.625 403.357 101.625C417.489 101.625 428.982 113.118 428.982 127.25C428.982 141.382 417.489 152.875 403.357 152.875Z" fill="black"/>
<path d="M403.357 152.875H339.294C335.751 152.875 332.888 150.011 332.888 146.469C332.888 142.926 335.751 140.062 339.294 140.062H403.357C406.899 140.062 409.763 142.926 409.763 146.469C409.763 150.011 406.899 152.875 403.357 152.875Z" fill="black"/>
<path d="M339.294 197.725C325.162 197.725 313.669 186.232 313.669 172.1C313.669 168.557 316.533 165.694 320.075 165.694C323.618 165.694 326.482 168.557 326.482 172.1C326.482 179.166 332.228 184.913 339.294 184.913C342.837 184.913 345.7 187.776 345.7 191.319C345.7 194.861 342.837 197.725 339.294 197.725Z" fill="black"/>
<path d="M403.357 197.725C399.814 197.725 396.95 194.861 396.95 191.319C396.95 187.776 399.814 184.913 403.357 184.913C410.423 184.913 416.169 179.166 416.169 172.1C416.169 168.557 419.033 165.694 422.575 165.694C426.118 165.694 428.982 168.557 428.982 172.1C428.982 186.232 417.489 197.725 403.357 197.725Z" fill="black"/>
<path d="M403.357 197.725H339.294C335.751 197.725 332.888 194.862 332.888 191.319C332.888 187.776 335.751 184.913 339.294 184.913H403.357C406.899 184.913 409.763 187.776 409.763 191.319C409.763 194.862 406.899 197.725 403.357 197.725Z" fill="black"/>
<path d="M339.294 242.575C325.162 242.575 313.669 231.082 313.669 216.95C313.669 213.408 316.533 210.544 320.075 210.544C323.618 210.544 326.482 213.408 326.482 216.95C326.482 224.016 332.228 229.763 339.294 229.763C342.837 229.763 345.7 232.626 345.7 236.169C345.7 239.712 342.837 242.575 339.294 242.575Z" fill="black"/>
<path d="M403.357 242.575C399.814 242.575 396.95 239.712 396.95 236.169C396.95 232.626 399.814 229.763 403.357 229.763C410.423 229.763 416.169 224.016 416.169 216.95C416.169 213.408 419.033 210.544 422.575 210.544C426.118 210.544 428.982 213.408 428.982 216.95C428.982 231.082 417.489 242.575 403.357 242.575Z" fill="black"/>
<path d="M403.357 242.575H339.294C335.751 242.575 332.888 239.712 332.888 236.169C332.888 232.626 335.751 229.763 339.294 229.763H403.357C406.899 229.763 409.763 232.626 409.763 236.169C409.763 239.712 406.899 242.575 403.357 242.575Z" fill="black"/>
<path d="M403.357 114.438H339.294C335.751 114.438 332.888 111.574 332.888 108.031C332.888 104.489 335.751 101.625 339.294 101.625H403.357C406.899 101.625 409.763 104.489 409.763 108.031C409.763 111.574 406.899 114.438 403.357 114.438Z" fill="black"/>
<path d="M320.075 223.357C316.533 223.357 313.669 220.493 313.669 216.95V127.25C313.669 123.707 316.533 120.844 320.075 120.844C323.618 120.844 326.482 123.707 326.482 127.25V216.95C326.482 220.493 323.618 223.357 320.075 223.357Z" fill="black"/>
<path d="M422.575 223.357C419.033 223.357 416.169 220.493 416.169 216.95V127.25C416.169 123.707 419.033 120.844 422.575 120.844C426.118 120.844 428.982 123.707 428.982 127.25V216.95C428.982 220.493 426.118 223.357 422.575 223.357Z" fill="black"/>
<path d="M223.988 370.675C209.856 370.675 198.363 359.182 198.363 345.05C198.363 330.918 209.856 319.425 223.988 319.425C227.531 319.425 230.394 322.288 230.394 325.831C230.394 329.374 227.531 332.237 223.988 332.237C216.922 332.237 211.175 337.984 211.175 345.05C211.175 352.116 216.922 357.862 223.988 357.862C227.531 357.862 230.394 360.726 230.394 364.269C230.394 367.811 227.531 370.675 223.988 370.675Z" fill="black"/>
<path d="M288.05 370.675C284.508 370.675 281.644 367.811 281.644 364.269C281.644 360.726 284.508 357.862 288.05 357.862C295.117 357.862 300.863 352.116 300.863 345.05C300.863 337.984 295.117 332.237 288.05 332.237C284.508 332.237 281.644 329.374 281.644 325.831C281.644 322.288 284.508 319.425 288.05 319.425C302.183 319.425 313.675 330.918 313.675 345.05C313.675 359.182 302.183 370.675 288.05 370.675Z" fill="black"/>
<path d="M288.05 370.675H223.988C220.445 370.675 217.582 367.811 217.582 364.269C217.582 360.726 220.445 357.862 223.988 357.862H288.05C291.593 357.862 294.457 360.726 294.457 364.269C294.457 367.811 291.593 370.675 288.05 370.675Z" fill="black"/>
<path d="M223.988 415.525C209.856 415.525 198.363 404.032 198.363 389.9C198.363 386.357 201.227 383.494 204.769 383.494C208.312 383.494 211.175 386.357 211.175 389.9C211.175 396.966 216.922 402.712 223.988 402.712C227.531 402.712 230.394 405.576 230.394 409.119C230.394 412.661 227.531 415.525 223.988 415.525Z" fill="black"/>
<path d="M288.05 415.525C284.508 415.525 281.644 412.661 281.644 409.119C281.644 405.576 284.508 402.712 288.05 402.712C295.117 402.712 300.863 396.966 300.863 389.9C300.863 386.357 303.727 383.494 307.269 383.494C310.812 383.494 313.675 386.357 313.675 389.9C313.675 404.032 302.183 415.525 288.05 415.525Z" fill="black"/>
<path d="M288.05 415.525H223.988C220.445 415.525 217.582 412.661 217.582 409.119C217.582 405.576 220.445 402.712 223.988 402.712H288.05C291.593 402.712 294.457 405.576 294.457 409.119C294.457 412.661 291.593 415.525 288.05 415.525Z" fill="black"/>
<path d="M223.988 460.375C209.856 460.375 198.363 448.882 198.363 434.75C198.363 431.207 201.227 428.344 204.769 428.344C208.312 428.344 211.175 431.207 211.175 434.75C211.175 441.816 216.922 447.562 223.988 447.562C227.531 447.562 230.394 450.426 230.394 453.969C230.394 457.511 227.531 460.375 223.988 460.375Z" fill="black"/>
<path d="M288.05 460.375C284.508 460.375 281.644 457.511 281.644 453.969C281.644 450.426 284.508 447.562 288.05 447.562C295.117 447.562 300.863 441.816 300.863 434.75C300.863 431.207 303.727 428.344 307.269 428.344C310.812 428.344 313.675 431.207 313.675 434.75C313.675 448.882 302.183 460.375 288.05 460.375Z" fill="black"/>
<path d="M288.05 460.375H223.988C220.445 460.375 217.582 457.511 217.582 453.969C217.582 450.426 220.445 447.562 223.988 447.562H288.05C291.593 447.562 294.457 450.426 294.457 453.969C294.457 457.511 291.593 460.375 288.05 460.375Z" fill="black"/>
<path d="M288.05 332.237H223.988C220.445 332.237 217.582 329.374 217.582 325.831C217.582 322.288 220.445 319.425 223.988 319.425H288.05C291.593 319.425 294.457 322.288 294.457 325.831C294.457 329.374 291.593 332.237 288.05 332.237Z" fill="black"/>
<path d="M204.769 441.156C201.227 441.156 198.363 438.293 198.363 434.75V345.05C198.363 341.507 201.227 338.644 204.769 338.644C208.312 338.644 211.175 341.507 211.175 345.05V434.75C211.175 438.293 208.312 441.156 204.769 441.156Z" fill="black"/>
<path d="M307.269 441.156C303.727 441.156 300.863 438.293 300.863 434.75V345.05C300.863 341.507 303.727 338.644 307.269 338.644C310.812 338.644 313.675 341.507 313.675 345.05V434.75C313.675 438.293 310.812 441.156 307.269 441.156Z" fill="black"/>
<path d="M140.687 300.251C130.085 300.251 121.456 291.621 121.456 281.019C121.456 270.417 130.085 261.788 140.687 261.788C151.283 261.788 159.913 270.417 159.913 281.019C159.913 291.621 151.283 300.251 140.687 300.251V300.251ZM140.687 274.6C137.145 274.6 134.268 277.476 134.268 281.019C134.268 284.562 137.145 287.438 140.687 287.438C144.224 287.438 147.1 284.562 147.1 281.019C147.1 277.476 144.224 274.6 140.687 274.6V274.6Z" fill="black"/>
<path d="M256.006 300.251C245.404 300.251 236.775 291.621 236.775 281.019C236.775 270.417 245.404 261.788 256.006 261.788C266.602 261.788 275.232 270.417 275.232 281.019C275.232 291.621 266.602 300.251 256.006 300.251ZM256.006 274.6C252.464 274.6 249.587 277.476 249.587 281.019C249.587 284.562 252.464 287.438 256.006 287.438C259.543 287.438 262.419 284.562 262.419 281.019C262.419 277.476 259.543 274.6 256.006 274.6V274.6Z" fill="black"/>
<path d="M371.325 300.251C360.723 300.251 352.094 291.621 352.094 281.019C352.094 270.417 360.723 261.788 371.325 261.788C381.921 261.788 390.55 270.417 390.55 281.019C390.55 291.621 381.921 300.251 371.325 300.251ZM371.325 274.6C367.783 274.6 364.906 277.476 364.906 281.019C364.906 284.562 367.783 287.438 371.325 287.438C374.862 287.438 377.738 284.562 377.738 281.019C377.738 277.476 374.862 274.6 371.325 274.6V274.6Z" fill="black"/>
<path d="M127.862 287.4H57.4062C53.8636 287.4 51 284.536 51 280.994C51 277.451 53.8636 274.587 57.4062 274.587H127.862C131.405 274.587 134.268 277.451 134.268 280.994C134.268 284.536 131.405 287.4 127.862 287.4Z" fill="black"/>
<path d="M243.181 287.426H153.506C149.964 287.426 147.1 284.562 147.1 281.019C147.1 277.477 149.964 274.613 153.506 274.613H243.181C246.724 274.613 249.587 277.477 249.587 281.019C249.587 284.562 246.724 287.426 243.181 287.426V287.426Z" fill="black"/>
<path d="M358.5 287.426H268.825C265.283 287.426 262.419 284.562 262.419 281.019C262.419 277.477 265.283 274.613 268.825 274.613H358.5C362.043 274.613 364.906 277.477 364.906 281.019C364.906 284.562 362.043 287.426 358.5 287.426Z" fill="black"/>
<path d="M454.594 287.426H384.144C380.602 287.426 377.738 284.562 377.738 281.019C377.738 277.477 380.602 274.613 384.144 274.613H454.594C458.136 274.613 461 277.477 461 281.019C461 284.562 458.136 287.426 454.594 287.426Z" fill="black"/>
<path d="M256.006 330C252.464 330 249.6 327.136 249.6 323.594V293.844C249.6 290.302 252.464 287.438 256.006 287.438C259.549 287.438 262.413 290.302 262.413 293.844V323.594C262.413 327.136 259.549 330 256.006 330Z" fill="black"/>
<path d="M371.325 274.6C367.783 274.6 364.919 271.737 364.919 268.194V236.124C364.919 232.582 367.783 229.718 371.325 229.718C374.868 229.718 377.732 232.582 377.732 236.124V268.194C377.732 271.737 374.868 274.6 371.325 274.6Z" fill="black"/>
<path d="M140.688 274.6C137.145 274.6 134.281 271.737 134.281 268.194V236.124C134.281 232.582 137.145 229.718 140.688 229.718C144.23 229.718 147.094 232.582 147.094 236.124V268.194C147.094 271.737 144.23 274.6 140.688 274.6Z" fill="black"/>
<path d="M503.5 256C503.5 392.69 392.69 503.5 256 503.5C119.31 503.5 8.5 392.69 8.5 256C8.5 119.31 119.31 8.5 256 8.5C392.69 8.5 503.5 119.31 503.5 256Z" stroke="black" stroke-width="17"/>
</svg>
