<svg width="512" height="512" viewBox="0 0 512 512" fill="none" xmlns="http://www.w3.org/2000/svg">
<path d="M244.541 206.962V345.238C244.541 350.114 240.587 354.068 235.711 354.068H76.7745C71.8983 354.068 67.9447 350.114 67.9447 345.238V206.962L156.243 142.153L244.541 206.962Z" fill="#49C1E4"/>
<path d="M182.732 283.429H218.052V318.749H182.732V283.429Z" fill="#E6E7E8"/>
<path d="M103.264 283.429H156.243V354.068H103.264V283.429Z" fill="#A49CA7"/>
<path d="M182.732 221.621C182.732 236.25 170.872 248.11 156.243 248.11C141.614 248.11 129.754 236.25 129.754 221.621C129.754 206.992 141.614 195.131 156.243 195.131C170.872 195.131 182.732 206.992 182.732 221.621Z" fill="#E6E7E8"/>
<path d="M244.541 115.663V169.172L209.222 144.274V115.663H244.541Z" fill="#49C1E4"/>
<path d="M103.264 283.429H120.924V354.068H103.264V283.429Z" fill="#8E8391"/>
<path d="M182.732 283.429H200.392V318.749H182.732V283.429Z" fill="#D1D3D4"/>
<path d="M300.521 216.852C300.512 222.806 297.158 228.252 291.846 230.938C286.53 233.624 280.153 233.093 275.355 229.567L244.541 206.962L156.243 142.152L67.9447 206.962L37.1266 229.567C34.4277 231.515 31.1855 232.563 27.8571 232.572C22.5626 232.567 17.6088 229.959 14.6123 225.596C9.9172 218.469 11.7151 208.902 18.6737 203.961L156.243 106.833L209.222 144.274L244.541 169.172L293.812 203.961C297.998 206.923 300.495 211.726 300.521 216.852Z" fill="#066194"/>
<path d="M103.264 283.429H156.243V292.259H103.264V283.429Z" fill="#754C29"/>
<path d="M253.371 345.238V224.332L270.147 236.693C281.175 244.626 296.541 242.117 304.474 231.093C312.403 220.064 309.898 204.698 298.869 196.765L253.371 164.58V115.663C253.371 110.787 249.417 106.833 244.541 106.833H209.222C204.346 106.833 200.392 110.787 200.392 115.663V127.144L161.339 99.62C158.282 97.46 154.204 97.46 151.147 99.62L13.5776 196.748C6.24821 201.805 2.22134 210.432 3.05776 219.301C3.89848 228.17 9.46454 235.891 17.6175 239.487C25.7661 243.083 35.221 241.992 42.3392 236.633L59.115 224.272V345.238C59.115 354.99 67.0222 362.898 76.7746 362.898H235.711C245.464 362.898 253.371 354.99 253.371 345.238ZM218.052 124.493H235.711V152.112L218.052 139.656V124.493ZM31.8754 222.405C29.8749 224.026 27.1371 224.406 24.7701 223.393C22.4031 222.375 20.795 220.133 20.588 217.564C20.3854 214.998 21.6185 212.528 23.7957 211.148L156.243 117.642L288.69 211.139C290.785 212.554 291.945 214.998 291.717 217.516C291.493 220.034 289.915 222.228 287.599 223.246C285.284 224.263 282.602 223.94 280.593 222.405L161.443 134.991C158.338 132.715 154.113 132.715 151.005 134.991L31.8754 222.405ZM76.7746 211.377L156.243 153.103L235.711 211.377V345.238H165.073V283.429C165.073 278.553 161.119 274.599 156.243 274.599H103.264C98.3878 274.599 94.4342 278.553 94.4342 283.429V345.238H76.7746V211.377ZM112.094 345.238V292.259H147.413V345.238H112.094Z" fill="black"/>
<path d="M173.903 283.429V318.749C173.903 323.625 177.856 327.578 182.732 327.578H218.052C222.928 327.578 226.881 323.625 226.881 318.749V283.429C226.881 278.553 222.928 274.6 218.052 274.6H182.732C177.856 274.6 173.903 278.553 173.903 283.429V283.429ZM191.562 292.259H209.222V309.919H191.562V292.259Z" fill="black"/>
<path d="M156.243 256.94C175.748 256.94 191.562 241.126 191.562 221.621C191.562 202.116 175.748 186.302 156.243 186.302C136.738 186.302 120.924 202.116 120.924 221.621C120.924 241.126 136.738 256.94 156.243 256.94V256.94ZM156.243 203.961C165.995 203.961 173.903 211.868 173.903 221.621C173.903 231.373 165.995 239.28 156.243 239.28C146.49 239.28 138.583 231.373 138.583 221.621C138.583 211.868 146.49 203.961 156.243 203.961Z" fill="black"/>
<path d="M444.548 206.962V345.238C444.548 350.114 440.595 354.068 435.718 354.068H276.782C271.906 354.068 267.952 350.114 267.952 345.238V206.962L356.25 142.153L444.548 206.962Z" fill="#49C1E4"/>
<path d="M382.74 283.429H418.059V318.749H382.74V283.429Z" fill="#E6E7E8"/>
<path d="M303.271 283.429H356.25V354.068H303.271V283.429Z" fill="#A49CA7"/>
<path d="M382.74 221.621C382.74 236.25 370.879 248.11 356.25 248.11C341.622 248.11 329.761 236.25 329.761 221.621C329.761 206.992 341.622 195.131 356.25 195.131C370.879 195.131 382.74 206.992 382.74 221.621Z" fill="#E6E7E8"/>
<path d="M444.548 115.663V169.172L409.229 144.274V115.663H444.548Z" fill="#49C1E4"/>
<path d="M303.271 283.429H320.931V354.068H303.271V283.429Z" fill="#754C29"/>
<path d="M382.74 283.429H400.399V318.749H382.74V283.429Z" fill="#D1D3D4"/>
<path d="M500.528 216.852C500.519 222.806 497.165 228.252 491.854 230.938C486.538 233.624 480.161 233.093 475.362 229.567L444.548 206.962L356.25 142.152L267.952 206.962L237.134 229.567C234.435 231.515 231.193 232.563 227.864 232.572C222.57 232.567 217.616 229.959 214.62 225.596C209.925 218.469 211.722 208.902 218.681 203.961L356.25 106.833L409.229 144.274L444.548 169.172L493.82 203.961C498.006 206.923 500.502 211.726 500.528 216.852Z" fill="#066194"/>
<path d="M303.271 283.429H356.25V292.259H303.271V283.429Z" fill="#754C29"/>
<path d="M453.378 345.238V224.332L470.154 236.693C481.183 244.626 496.549 242.117 504.482 231.093C512.411 220.064 509.906 204.698 498.877 196.765L453.378 164.58V115.663C453.378 110.787 449.425 106.833 444.549 106.833H409.229C404.353 106.833 400.4 110.787 400.4 115.663V127.144L361.347 99.62C358.29 97.46 354.211 97.46 351.154 99.62L213.585 196.748C206.256 201.805 202.229 210.432 203.065 219.301C203.906 228.17 209.472 235.891 217.625 239.487C225.773 243.083 235.228 241.992 242.347 236.633L259.122 224.272V345.238C259.122 354.99 267.03 362.898 276.782 362.898H435.719C445.471 362.898 453.378 354.99 453.378 345.238V345.238ZM418.059 124.493H435.719V152.112L418.059 139.656V124.493ZM231.883 222.405C229.882 224.026 227.144 224.406 224.777 223.393C222.41 222.375 220.802 220.133 220.595 217.564C220.393 214.998 221.626 212.528 223.803 211.148L356.25 117.642L488.698 211.139C490.793 212.554 491.953 214.998 491.724 217.516C491.5 220.034 489.922 222.229 487.607 223.246C485.292 224.263 482.61 223.94 480.601 222.405L361.45 134.991C358.346 132.715 354.121 132.715 351.012 134.991L231.883 222.405ZM276.782 211.377L356.25 153.103L435.719 211.377V345.238H365.08V283.429C365.08 278.553 361.127 274.599 356.25 274.599H303.271C298.395 274.599 294.442 278.553 294.442 283.429V345.238H276.782V211.377ZM312.101 345.238V292.259H347.421V345.238H312.101Z" fill="black"/>
<path d="M373.91 283.429V318.749C373.91 323.625 377.864 327.578 382.74 327.578H418.059C422.935 327.578 426.889 323.625 426.889 318.749V283.429C426.889 278.553 422.935 274.6 418.059 274.6H382.74C377.864 274.6 373.91 278.553 373.91 283.429V283.429ZM391.57 292.259H409.229V309.919H391.57V292.259Z" fill="black"/>
<path d="M356.25 256.94C375.755 256.94 391.569 241.126 391.569 221.621C391.569 202.116 375.755 186.302 356.25 186.302C336.745 186.302 320.931 202.116 320.931 221.621C320.931 241.126 336.745 256.94 356.25 256.94V256.94ZM356.25 203.961C366.003 203.961 373.91 211.868 373.91 221.621C373.91 231.373 366.003 239.28 356.25 239.28C346.498 239.28 338.591 231.373 338.591 221.621C338.591 211.868 346.498 203.961 356.25 203.961Z" fill="black"/>
<path d="M343.992 278.788V417.064C343.992 421.94 340.039 425.894 335.162 425.894H176.226C171.349 425.894 167.396 421.94 167.396 417.064V278.788L255.694 213.978L343.992 278.788Z" fill="#49C1E4"/>
<path d="M282.184 355.255H317.503V390.575H282.184V355.255Z" fill="#E6E7E8"/>
<path d="M202.715 355.255H255.694V425.894H202.715V355.255Z" fill="#A49CA7"/>
<path d="M282.183 293.447C282.183 308.075 270.323 319.936 255.694 319.936C241.065 319.936 229.205 308.075 229.205 293.447C229.205 278.818 241.065 266.957 255.694 266.957C270.323 266.957 282.183 278.818 282.183 293.447Z" fill="#E6E7E8"/>
<path d="M343.992 187.489V240.998L308.673 216.099V187.489H343.992Z" fill="#49C1E4"/>
<path d="M202.715 355.255H220.375V425.894H202.715V355.255Z" fill="#8E8391"/>
<path d="M282.184 355.255H299.843V390.575H282.184V355.255Z" fill="#D1D3D4"/>
<path d="M399.972 288.678C399.963 294.632 396.609 300.077 391.297 302.763C385.981 305.45 379.605 304.919 374.806 301.392L343.992 278.788L255.694 213.978L167.396 278.788L136.578 301.392C133.879 303.341 130.637 304.389 127.308 304.398C122.014 304.393 117.06 301.785 114.064 297.422C109.368 290.295 111.166 280.728 118.125 275.787L255.694 178.659L308.673 216.099L343.992 240.998L393.263 275.787C397.45 278.749 399.946 283.552 399.972 288.678Z" fill="#066194"/>
<path d="M202.715 355.255H255.694V364.085H202.715V355.255Z" fill="#754C29"/>
<path d="M352.822 417.064V296.158L369.598 308.519C380.626 316.452 395.992 313.943 403.925 302.919C411.854 291.89 409.349 276.524 398.321 268.591L352.822 236.406V187.489C352.822 182.612 348.868 178.659 343.992 178.659H308.673C303.797 178.659 299.843 182.612 299.843 187.489V198.97L260.79 171.446C257.733 169.286 253.655 169.286 250.598 171.446L113.029 268.574C105.699 273.631 101.673 282.258 102.509 291.127C103.35 299.996 108.916 307.717 117.069 311.313C125.217 314.909 134.672 313.818 141.79 308.459L158.566 296.098V417.064C158.566 426.816 166.473 434.723 176.226 434.723H335.162C344.915 434.723 352.822 426.816 352.822 417.064ZM317.503 196.319H335.162V223.938L317.503 211.482V196.319ZM131.327 294.231C129.326 295.852 126.588 296.232 124.221 295.218C121.854 294.201 120.246 291.959 120.039 289.389C119.837 286.824 121.07 284.354 123.247 282.974L255.694 189.468L388.141 282.965C390.237 284.38 391.396 286.824 391.168 289.342C390.944 291.86 389.366 294.054 387.051 295.072C384.735 296.089 382.054 295.766 380.044 294.231L260.894 206.817C257.789 204.54 253.564 204.54 250.456 206.817L131.327 294.231ZM176.226 283.202L255.694 224.929L335.162 283.202V417.064H264.524V355.255C264.524 350.379 260.57 346.425 255.694 346.425H202.715C197.839 346.425 193.885 350.379 193.885 355.255V417.064H176.226V283.202ZM211.545 417.064V364.085H246.864V417.064H211.545Z" fill="black"/>
<path d="M273.354 355.255V390.574C273.354 395.451 277.307 399.404 282.184 399.404H317.503C322.379 399.404 326.333 395.451 326.333 390.574V355.255C326.333 350.379 322.379 346.426 317.503 346.426H282.184C277.307 346.426 273.354 350.379 273.354 355.255V355.255ZM291.013 364.085H308.673V381.745H291.013V364.085Z" fill="black"/>
<path d="M255.694 328.766C275.199 328.766 291.013 312.952 291.013 293.447C291.013 273.942 275.199 258.127 255.694 258.127C236.189 258.127 220.375 273.942 220.375 293.447C220.375 312.952 236.189 328.766 255.694 328.766V328.766ZM255.694 275.787C265.447 275.787 273.354 283.694 273.354 293.447C273.354 303.199 265.447 311.106 255.694 311.106C245.942 311.106 238.034 303.199 238.034 293.447C238.034 283.694 245.942 275.787 255.694 275.787Z" fill="black"/>
</svg>
