<svg width="512" height="512" viewBox="0 0 512 512" fill="none" xmlns="http://www.w3.org/2000/svg">
<path d="M272.182 286.5H239.824V504.024H272.182V286.5Z" fill="#547580"/>
<path opacity="0.2" d="M272.182 367.239H239.824V384.649H272.182V367.239Z" fill="black"/>
<path d="M132.928 483.909L164.783 489.601L205.771 260.217L173.916 254.525L132.928 483.909Z" fill="#547580"/>
<path opacity="0.2" d="M153.779 367.237L150.67 384.646H183.541L186.65 367.237H153.779Z" fill="black"/>
<path d="M187.761 474.891C187.761 471.924 185.335 469.499 182.369 469.499H115.355C112.388 469.499 109.961 471.925 109.961 474.891V498.62C109.961 501.587 112.388 504.013 115.355 504.013H182.369C185.336 504.013 187.761 501.586 187.761 498.62V474.891Z" fill="#A4A9AD"/>
<path d="M306.229 260.224L347.217 489.608L379.071 483.916L338.083 254.532L306.229 260.224Z" fill="#547580"/>
<path opacity="0.2" d="M358.225 367.237H325.353L328.464 384.646H361.335L358.225 367.237Z" fill="black"/>
<path opacity="0.2" d="M173.918 254.524L164.315 308.274H197.186L205.773 260.216L173.918 254.524Z" fill="black"/>
<path opacity="0.2" d="M338.086 254.524L306.232 260.216L314.819 308.274H347.69L338.086 254.524Z" fill="black"/>
<path opacity="0.2" d="M272.182 265.285H239.824V308.282H272.182V265.285Z" fill="black"/>
<path d="M324.244 474.891C324.244 471.924 326.671 469.499 329.636 469.499H396.65C399.617 469.499 402.043 471.925 402.043 474.891V498.62C402.043 501.587 399.616 504.013 396.65 504.013H329.636C326.671 504.013 324.244 501.586 324.244 498.62V474.891Z" fill="#A4A9AD"/>
<path d="M375.803 116.793C375.803 107.896 368.522 100.614 359.623 100.614H152.375C143.476 100.614 136.195 107.895 136.195 116.793V272.105C136.195 281.004 143.476 288.285 152.375 288.285H359.623C368.522 288.285 375.803 281.004 375.803 272.105V116.793Z" fill="#C8C6CD"/>
<path d="M375.81 173.626H136.198V241.767H375.81V173.626Z" fill="#D1D3D3"/>
<path d="M255.999 268.543C291.942 268.543 321.08 239.405 321.08 203.462C321.08 167.519 291.942 138.381 255.999 138.381C220.056 138.381 190.918 167.519 190.918 203.462C190.918 239.405 220.056 268.543 255.999 268.543Z" fill="white"/>
<path d="M404.236 93.999L266.807 2.999C263.716 1.199 259.936 0 256.5 0C253.065 0 249.284 1.199 246.193 2.999L108.765 93.999C102.925 97.899 100.519 104.5 102.925 110.799C104.987 116.799 111.514 121 119.072 121H393.929C401.486 121 408.014 116.8 410.075 110.799C412.48 104.5 410.075 97.899 404.236 93.999Z" fill="#49C1E4"/>
<path d="M410.072 110.799C408.004 116.799 401.455 121 393.873 121H256V0C259.446 0 263.24 1.199 266.341 2.999L404.214 93.999C410.072 97.899 412.485 104.5 410.072 110.799Z" fill="#2FA8CC"/>
<path d="M256.002 241.766C272.384 241.766 285.663 228.485 285.663 212.105C285.663 195.723 256.002 160.314 256.002 160.314C256.002 160.314 226.341 195.723 226.341 212.105C226.341 228.485 239.621 241.766 256.002 241.766Z" fill="#49C1E4"/>
<path opacity="0.1" d="M376 112H136V134H376V112Z" fill="black"/>
<path d="M423.417 105.154L269.399 3.762C265.714 1.336 260.955 0 255.999 0C251.043 0 246.284 1.336 242.598 3.762L88.581 105.154C81.027 110.127 81.296 115.528 82.127 118.306C82.96 121.082 85.706 125.742 94.749 125.742H128.209V272.104C128.209 285.43 139.05 296.27 152.375 296.27H158.345L147.093 359.25H142.897C138.486 359.25 134.911 362.825 134.911 367.236C134.911 371.647 138.486 375.222 142.897 375.222H144.24L128.823 461.511H115.355C107.977 461.511 101.975 467.513 101.975 474.889V498.618C101.975 505.996 107.977 511.997 115.355 511.997H182.369C189.746 511.997 195.747 505.995 195.747 498.618V474.89C195.747 467.513 189.745 461.512 182.369 461.512H177.453L193.106 375.223H231.839V504.014C231.839 508.425 235.414 512 239.825 512H272.183C276.593 512 280.169 508.426 280.169 504.014V375.223H318.902L334.555 461.512H329.639C322.262 461.512 316.261 467.514 316.261 474.89V498.619C316.261 505.997 322.263 511.998 329.639 511.998H396.653C404.031 511.998 410.032 505.996 410.032 498.619V474.89C410.032 467.513 404.03 461.512 396.653 461.512H383.185L367.768 375.223H369.113C373.523 375.223 377.099 371.648 377.099 367.237C377.099 362.826 373.523 359.251 369.113 359.251H364.915L353.663 296.271H359.628C372.954 296.271 383.794 285.43 383.794 272.105V125.742H417.254C426.296 125.742 429.042 121.082 429.875 118.306C430.703 115.529 430.971 110.127 423.417 105.154ZM160.465 375.223H176.871L161.217 461.512H145.046L160.465 375.223ZM179.775 477.484V496.028H117.946V477.484H179.775ZM179.768 359.251H163.318L174.571 296.271H191.193L179.768 359.251ZM231.837 359.251H196.002L207.426 296.271H231.838L231.837 359.251ZM264.195 496.028H247.809V375.223H264.195V496.028ZM264.195 359.251H247.809V296.27H264.195V359.251ZM280.168 359.251V296.27H304.58L316.004 359.25H280.168V359.251ZM332.236 359.251L320.812 296.271H337.434L348.687 359.251H332.236ZM394.059 477.484V496.028H332.231V477.484H394.059ZM366.957 461.512H350.787L335.133 375.223H351.539L366.957 461.512ZM367.817 272.105C367.817 276.623 364.141 280.299 359.623 280.299H152.375C147.857 280.299 144.181 276.623 144.181 272.105V249.753H199.514C212.925 266.089 233.265 276.531 256.002 276.531C278.739 276.531 299.079 266.088 312.49 249.753H367.817V272.105ZM189.55 233.78H144.182V181.611H186.28C184.111 188.514 182.938 195.856 182.938 203.465C182.937 214.277 185.317 224.538 189.55 233.78ZM198.909 203.465C198.909 171.985 224.521 146.374 256.001 146.374C287.483 146.374 313.093 171.986 313.093 203.465C313.093 234.946 287.481 260.558 256.001 260.558C224.521 260.558 198.909 234.946 198.909 203.465ZM367.817 233.78H322.454C326.688 224.538 329.066 214.278 329.066 203.465C329.066 195.856 327.893 188.514 325.724 181.611H367.816L367.817 233.78ZM367.817 165.639H318.492C305.668 144.531 282.454 130.402 256.002 130.402C229.55 130.402 206.338 144.532 193.513 165.639H144.182V125.742H367.817V165.639ZM110.617 109.77L251.381 17.104C252.456 16.396 254.184 15.972 255.999 15.972C257.814 15.972 259.542 16.396 260.617 17.104L401.38 109.77H110.617ZM256.002 249.752C276.761 249.752 293.649 232.864 293.649 212.105C293.649 193.75 267.388 161.47 262.123 155.186C260.606 153.375 258.364 152.328 256.001 152.328C253.638 152.328 251.397 153.374 249.879 155.186C244.615 161.47 218.353 193.75 218.353 212.105C218.355 232.863 235.242 249.752 256.002 249.752ZM256.002 173.045C270.9 192.31 277.677 207.152 277.677 212.105C277.677 224.057 267.953 233.78 256.002 233.78C244.05 233.78 234.327 224.056 234.327 212.105C234.327 207.152 241.104 192.309 256.002 173.045Z" fill="black"/>
</svg>
