<svg width="512" height="512" viewBox="0 0 512 512" fill="none" xmlns="http://www.w3.org/2000/svg">
<g clip-path="url(#clip0)">
<path d="M272.703 265.572H239.303V511.998H272.703V265.572Z" fill="#DADADA"/>
<path d="M128.97 491.246L161.851 497.121L204.158 260.351L171.277 254.476L128.97 491.246Z" fill="white"/>
<path d="M185.562 481.938C185.562 478.876 183.058 476.372 179.996 476.372H110.824C107.762 476.372 105.256 478.876 105.256 481.938V506.431C105.256 509.493 107.761 511.998 110.824 511.998H179.996C183.058 511.998 185.562 509.493 185.562 506.431V481.938Z" fill="white"/>
<path d="M307.851 260.359L350.159 497.129L383.039 491.254L340.731 254.484L307.851 260.359Z" fill="white"/>
<path d="M326.441 481.938C326.441 478.876 328.946 476.372 332.008 476.372H401.179C404.241 476.372 406.746 478.876 406.746 481.938V506.431C406.746 509.493 404.241 511.998 401.179 511.998H332.008C328.947 511.998 326.441 509.493 326.441 506.431V481.938Z" fill="white"/>
<path d="M379.66 112.308C379.66 103.124 372.144 95.608 362.959 95.608H149.039C139.854 95.608 132.338 103.124 132.338 112.308V272.621C132.338 281.806 139.854 289.322 149.039 289.322H362.96C372.145 289.322 379.661 281.806 379.661 272.621L379.66 112.308Z" fill="#D1D3D3"/>
<path d="M379.668 170.973H132.34V241.308H379.668V170.973Z" fill="#D1D3D3"/>
<path d="M255.999 268.946C293.1 268.946 323.175 238.87 323.175 201.77C323.175 164.67 293.1 134.594 255.999 134.594C218.899 134.594 188.823 164.67 188.823 201.77C188.823 238.87 218.899 268.946 255.999 268.946Z" fill="white"/>
<path d="M256.002 241.306C272.911 241.306 286.619 227.597 286.619 210.69C286.619 193.781 256.002 157.231 256.002 157.231C256.002 157.231 225.386 193.78 225.386 210.69C225.386 227.598 239.092 241.306 256.002 241.306Z" fill="#0071CE"/>
<path d="M372.751 379.06H139.256C134.702 379.06 131.013 375.37 131.013 370.817C131.013 366.264 134.703 362.574 139.256 362.574H372.752C377.306 362.574 380.995 366.264 380.995 370.817C380.995 375.37 377.304 379.06 372.751 379.06Z" fill="white"/>
<mask id="mask0" mask-type="alpha" maskUnits="userSpaceOnUse" x="84" y="-1" width="344" height="115">
<path d="M422.441 113.304C428.564 113.304 429.389 110.549 424.275 107.182L265.298 2.52501C260.184 -0.841994 251.813 -0.841994 246.699 2.52501L87.7229 107.181C82.6089 110.548 83.4339 113.303 89.5569 113.303H422.441V113.304V113.304Z" fill="white"/>
</mask>
<g mask="url(#mask0)">
<path d="M431.922 96.536L267.809 -9.5053C264.118 -11.6028 259.603 -13 255.5 -13C251.397 -13 246.883 -11.6028 243.192 -9.5053L79.0782 96.536C72.1047 101.081 69.2314 108.773 72.1047 116.113C74.5664 123.105 82.3618 128 91.3867 128H419.614C428.639 128 436.434 123.106 438.896 116.113C441.768 108.773 438.896 101.081 431.922 96.536Z" fill="white"/>
<path d="M438.893 116.113C436.424 123.105 428.608 128 419.559 128H255V-13C259.113 -13 263.641 -11.6028 267.342 -9.5053L431.9 96.536C438.893 101.081 441.773 108.773 438.893 116.113Z" fill="white"/>
</g>
</g>
<defs>
<clipPath id="clip0">
<rect width="511.998" height="511.998" fill="white"/>
</clipPath>
</defs>
</svg>
